  0
SECTION
  2
HEADER
  9
$ACADVER
  1
AC1009
  9
$INSBASE
 10
0.000000
 20
0.000000
  9
$LIMMIN
 10
-167.132000
 20
-169.164000
  9
$LIMMAX
 10
366.268000
 20
262.636000
  9
$EXTMIN
 10
-167.132000
 20
-169.164000
  9
$EXTMAX
 10
366.268000
 20
262.636000
  9
$ATTMODE
 70
0
  9
$LUNITS
 70
2
  9
$LUPREC
 70
1
  9
$THICKNESS
 40
1.584960
  0
ENDSEC
  0
SECTION
  2
TABLES
  0
TABLE
  2
LTYPE
 70
1
  0
LTYPE
  3
Solid Line
  2
CONTINUOUS
 70
0
 72
65
 73
0
 40
0.000000
  0
ENDTAB
  0
TABLE
  2
LAYER
 70
4
  0
LAYER
  2
SILKSCREEN_TOP
 70
0
 62
7
  6
CONTINUOUS
  0
LAYER
  2
OUTLINE
 70
0
 62
7
  6
CONTINUOUS
  0
LAYER
  2
SILKSCREEN_TOP
 70
0
 62
7
  6
CONTINUOUS
  0
LAYER
  2
TOP
 70
0
 62
1
  6
CONTINUOUS
  0
ENDTAB
  0
TABLE
  2
STYLE
 70
1
  0
STYLE
  2
STANDARD
 70
0
 40
0.000000
 41
1.000000
 50
0.000000
 71
0
 42
0.200000
  3
txt
  0
ENDTAB
  0
ENDSEC
  0
SECTION
  2
BLOCKS
  0
BLOCK
  8
0
  2
FIGURE_CIRCLE
 70
0
 10
0.000000
 20
0.000000
  0
CIRCLE
  8
0
 10
0.000000
 20
0.000000
 40
0.500000
  0
ENDBLK
  0
BLOCK
  8
0
  2
FIGURE_SQUARE
 70
0
 10
0.000000
 20
0.000000
  0
POLYLINE
  8
0
 66
1
 70
1
 40
0.000000
 41
0.000000
 39
0.000000
  0
VERTEX
  8
0
 10
-0.500000
 20
-0.500000
 40
0.000000
 41
0.000000
 42
0.000000
  0
VERTEX
  8
0
 10
-0.500000
 20
0.500000
 40
0.000000
 41
0.000000
 42
0.000000
  0
VERTEX
  8
0
 10
0.500000
 20
0.500000
 40
0.000000
 41
0.000000
 42
0.000000
  0
VERTEX
  8
0
 10
0.500000
 20
-0.500000
 40
0.000000
 41
0.000000
 42
0.000000
  0
SEQEND
  0
ENDBLK
  0
BLOCK
  8
0
  2
FIGURE_HEX
 70
0
 10
0.000000
 20
0.000000
  0
POLYLINE
  8
0
 66
1
 70
1
 40
0.000000
 41
0.000000
 39
0.000000
  0
VERTEX
  8
0
 10
-0.500000
 20
0.000000
 40
0.000000
 41
0.000000
 42
0.000000
  0
VERTEX
  8
0
 10
-0.250000
 20
0.500000
 40
0.000000
 41
0.000000
 42
0.000000
  0
VERTEX
  8
0
 10
0.250000
 20
0.500000
 40
0.000000
 41
0.000000
 42
0.000000
  0
VERTEX
  8
0
 10
0.500000
 20
0.000000
 40
0.000000
 41
0.000000
 42
0.000000
  0
VERTEX
  8
0
 10
0.250000
 20
-0.500000
 40
0.000000
 41
0.000000
 42
0.000000
  0
VERTEX
  8
0
 10
-0.250000
 20
-0.500000
 40
0.000000
 41
0.000000
 42
0.000000
  0
SEQEND
  0
ENDBLK
  0
BLOCK
  8
0
  2
FIGURE_OCT
 70
0
 10
0.000000
 20
0.000000
  0
POLYLINE
  8
0
 66
1
 70
1
 40
0.000000
 41
0.000000
 39
0.000000
  0
VERTEX
  8
0
 10
-0.500000
 20
-0.207100
 40
0.000000
 41
0.000000
 42
0.000000
  0
VERTEX
  8
0
 10
-0.500000
 20
0.207100
 40
0.000000
 41
0.000000
 42
0.000000
  0
VERTEX
  8
0
 10
-0.207100
 20
0.500000
 40
0.000000
 41
0.000000
 42
0.000000
  0
VERTEX
  8
0
 10
0.207100
 20
0.500000
 40
0.000000
 41
0.000000
 42
0.000000
  0
VERTEX
  8
0
 10
0.500000
 20
0.207100
 40
0.000000
 41
0.000000
 42
0.000000
  0
VERTEX
  8
0
 10
0.500000
 20
-0.207100
 40
0.000000
 41
0.000000
 42
0.000000
  0
VERTEX
  8
0
 10
0.207100
 20
-0.500000
 40
0.000000
 41
0.000000
 42
0.000000
  0
VERTEX
  8
0
 10
-0.207100
 20
-0.500000
 40
0.000000
 41
0.000000
 42
0.000000
  0
SEQEND
  0
ENDBLK
  0
BLOCK
  8
0
  2
FIGURE_OBLONG
 70
0
 10
0.000000
 20
0.000000
  0
POLYLINE
  8
0
 66
1
 70
1
 40
0.000000
 41
0.000000
 39
0.000000
  0
VERTEX
  8
0
 10
-0.500000
 20
-0.125000
 40
0.000000
 41
0.000000
 42
0.000000
  0
VERTEX
  8
0
 10
-0.500000
 20
0.125000
 40
0.000000
 41
0.000000
 42
0.000000
  0
VERTEX
  8
0
 10
-0.416000
 20
0.375000
 40
0.000000
 41
0.000000
 42
0.000000
  0
VERTEX
  8
0
 10
-0.250000
 20
0.500000
 40
0.000000
 41
0.000000
 42
0.000000
  0
VERTEX
  8
0
 10
0.250000
 20
0.500000
 40
0.000000
 41
0.000000
 42
0.000000
  0
VERTEX
  8
0
 10
0.416000
 20
0.375000
 40
0.000000
 41
0.000000
 42
0.000000
  0
VERTEX
  8
0
 10
0.500000
 20
0.125000
 40
0.000000
 41
0.000000
 42
0.000000
  0
VERTEX
  8
0
 10
0.500000
 20
-0.125000
 40
0.000000
 41
0.000000
 42
0.000000
  0
VERTEX
  8
0
 10
0.416000
 20
-0.375000
 40
0.000000
 41
0.000000
 42
0.000000
  0
VERTEX
  8
0
 10
0.250000
 20
-0.500000
 40
0.000000
 41
0.000000
 42
0.000000
  0
VERTEX
  8
0
 10
-0.250000
 20
-0.500000
 40
0.000000
 41
0.000000
 42
0.000000
  0
VERTEX
  8
0
 10
-0.416000
 20
-0.375000
 40
0.000000
 41
0.000000
 42
0.000000
  0
SEQEND
  0
ENDBLK
  0
BLOCK
  8
0
  2
FIGURE_TRI
 70
0
 10
0.000000
 20
0.000000
  0
POLYLINE
  8
0
 66
1
 70
1
 40
0.000000
 41
0.000000
 39
0.000000
  0
VERTEX
  8
0
 10
-0.500000
 20
-0.500000
 40
0.000000
 41
0.000000
 42
0.000000
  0
VERTEX
  8
0
 10
0.000000
 20
0.500000
 40
0.000000
 41
0.000000
 42
0.000000
  0
VERTEX
  8
0
 10
0.500000
 20
-0.500000
 40
0.000000
 41
0.000000
 42
0.000000
  0
SEQEND
  0
ENDBLK
  0
BLOCK
  8
0
  2
FIGURE_CROSS
 70
0
 10
0.000000
 20
0.000000
  0
POLYLINE
  8
0
 66
1
 70
0
 40
0.000000
 41
0.000000
 39
0.000000
  0
VERTEX
  8
0
 10
-0.500000
 20
0.000000
 40
0.000000
 41
0.000000
 42
0.000000
  0
VERTEX
  8
0
 10
0.500000
 20
0.000000
 40
0.000000
 41
0.000000
 42
0.000000
  0
SEQEND
  0
POLYLINE
  8
0
 66
1
 70
0
 40
0.000000
 41
0.000000
 39
0.000000
  0
VERTEX
  8
0
 10
0.000000
 20
0.500000
 40
0.000000
 41
0.000000
 42
0.000000
  0
VERTEX
  8
0
 10
0.000000
 20
-0.500000
 40
0.000000
 41
0.000000
 42
0.000000
  0
SEQEND
  0
ENDBLK
  0
BLOCK
  8
0
  2
FIGURE_DIAMOND
 70
0
 10
0.000000
 20
0.000000
  0
POLYLINE
  8
0
 66
1
 70
1
 40
0.000000
 41
0.000000
 39
0.000000
  0
VERTEX
  8
0
 10
-0.500000
 20
0.000000
 40
0.000000
 41
0.000000
 42
0.000000
  0
VERTEX
  8
0
 10
0.000000
 20
0.500000
 40
0.000000
 41
0.000000
 42
0.000000
  0
VERTEX
  8
0
 10
0.500000
 20
0.000000
 40
0.000000
 41
0.000000
 42
0.000000
  0
VERTEX
  8
0
 10
0.000000
 20
-0.500000
 40
0.000000
 41
0.000000
 42
0.000000
  0
SEQEND
  0
ENDBLK
  0
ENDSEC
  0
SECTION
  2
ENTITIES
  0
POLYLINE
  8
TOP
 66
1
 70
1
 40
0.000000
 41
0.000000
 39
0.000000
  0
VERTEX
  8
TOP
 10
128.268730
 20
78.808580
 40
0.000000
 41
0.000000
 42
0.000000
  0
VERTEX
  8
TOP
 10
128.779270
 20
78.808580
 40
0.000000
 41
0.000000
 42
0.000000
  0
VERTEX
  8
TOP
 10
128.779270
 20
78.529180
 40
0.000000
 41
0.000000
 42
0.000000
  0
VERTEX
  8
TOP
 10
128.268730
 20
78.529180
 40
0.000000
 41
0.000000
 42
0.000000
  0
SEQEND
  0
POLYLINE
  8
TOP
 66
1
 70
1
 40
0.000000
 41
0.000000
 39
0.000000
  0
VERTEX
  8
TOP
 10
128.779270
 20
79.179420
 40
0.000000
 41
0.000000
 42
0.000000
  0
VERTEX
  8
TOP
 10
128.268730
 20
79.179420
 40
0.000000
 41
0.000000
 42
0.000000
  0
VERTEX
  8
TOP
 10
128.268730
 20
79.458820
 40
0.000000
 41
0.000000
 42
0.000000
  0
VERTEX
  8
TOP
 10
128.779270
 20
79.458820
 40
0.000000
 41
0.000000
 42
0.000000
  0
SEQEND
  0
POLYLINE
  8
SILKSCREEN_TOP
 66
1
 70
0
 40
0.000000
 41
0.000000
 39
0.000000
  0
VERTEX
  8
SILKSCREEN_TOP
 10
128.760220
 20
78.353920
 40
0.119380
 41
0.119380
 42
0.000000
  0
VERTEX
  8
SILKSCREEN_TOP
 10
128.089660
 20
78.353920
 40
0.119380
 41
0.119380
 42
0.000000
  0
VERTEX
  8
SILKSCREEN_TOP
 10
128.089660
 20
79.634080
 40
0.119380
 41
0.119380
 42
0.000000
  0
VERTEX
  8
SILKSCREEN_TOP
 10
128.958340
 20
79.634080
 40
0.119380
 41
0.119380
 42
0.000000
  0
VERTEX
  8
SILKSCREEN_TOP
 10
128.958340
 20
78.554580
 40
0.119380
 41
0.119380
 42
0.000000
  0
VERTEX
  8
SILKSCREEN_TOP
 10
128.760220
 20
78.353920
 40
0.119380
 41
0.119380
 42
0.000000
  0
SEQEND
  0
POLYLINE
  8
TOP
 66
1
 70
1
 40
0.000000
 41
0.000000
 39
0.000000
  0
VERTEX
  8
TOP
 10
126.998730
 20
78.808580
 40
0.000000
 41
0.000000
 42
0.000000
  0
VERTEX
  8
TOP
 10
127.509270
 20
78.808580
 40
0.000000
 41
0.000000
 42
0.000000
  0
VERTEX
  8
TOP
 10
127.509270
 20
78.529180
 40
0.000000
 41
0.000000
 42
0.000000
  0
VERTEX
  8
TOP
 10
126.998730
 20
78.529180
 40
0.000000
 41
0.000000
 42
0.000000
  0
SEQEND
  0
POLYLINE
  8
TOP
 66
1
 70
1
 40
0.000000
 41
0.000000
 39
0.000000
  0
VERTEX
  8
TOP
 10
127.509270
 20
79.179420
 40
0.000000
 41
0.000000
 42
0.000000
  0
VERTEX
  8
TOP
 10
126.998730
 20
79.179420
 40
0.000000
 41
0.000000
 42
0.000000
  0
VERTEX
  8
TOP
 10
126.998730
 20
79.458820
 40
0.000000
 41
0.000000
 42
0.000000
  0
VERTEX
  8
TOP
 10
127.509270
 20
79.458820
 40
0.000000
 41
0.000000
 42
0.000000
  0
SEQEND
  0
POLYLINE
  8
SILKSCREEN_TOP
 66
1
 70
0
 40
0.000000
 41
0.000000
 39
0.000000
  0
VERTEX
  8
SILKSCREEN_TOP
 10
127.490220
 20
78.353920
 40
0.119380
 41
0.119380
 42
0.000000
  0
VERTEX
  8
SILKSCREEN_TOP
 10
126.819660
 20
78.353920
 40
0.119380
 41
0.119380
 42
0.000000
  0
VERTEX
  8
SILKSCREEN_TOP
 10
126.819660
 20
79.634080
 40
0.119380
 41
0.119380
 42
0.000000
  0
VERTEX
  8
SILKSCREEN_TOP
 10
127.688340
 20
79.634080
 40
0.119380
 41
0.119380
 42
0.000000
  0
VERTEX
  8
SILKSCREEN_TOP
 10
127.688340
 20
78.554580
 40
0.119380
 41
0.119380
 42
0.000000
  0
VERTEX
  8
SILKSCREEN_TOP
 10
127.490220
 20
78.353920
 40
0.119380
 41
0.119380
 42
0.000000
  0
SEQEND
  0
POLYLINE
  8
TOP
 66
1
 70
1
 40
0.000000
 41
0.000000
 39
0.000000
  0
VERTEX
  8
TOP
 10
126.871730
 20
80.586580
 40
0.000000
 41
0.000000
 42
0.000000
  0
VERTEX
  8
TOP
 10
127.382270
 20
80.586580
 40
0.000000
 41
0.000000
 42
0.000000
  0
VERTEX
  8
TOP
 10
127.382270
 20
80.307180
 40
0.000000
 41
0.000000
 42
0.000000
  0
VERTEX
  8
TOP
 10
126.871730
 20
80.307180
 40
0.000000
 41
0.000000
 42
0.000000
  0
SEQEND
  0
POLYLINE
  8
TOP
 66
1
 70
1
 40
0.000000
 41
0.000000
 39
0.000000
  0
VERTEX
  8
TOP
 10
127.382270
 20
80.957420
 40
0.000000
 41
0.000000
 42
0.000000
  0
VERTEX
  8
TOP
 10
126.871730
 20
80.957420
 40
0.000000
 41
0.000000
 42
0.000000
  0
VERTEX
  8
TOP
 10
126.871730
 20
81.236820
 40
0.000000
 41
0.000000
 42
0.000000
  0
VERTEX
  8
TOP
 10
127.382270
 20
81.236820
 40
0.000000
 41
0.000000
 42
0.000000
  0
SEQEND
  0
POLYLINE
  8
SILKSCREEN_TOP
 66
1
 70
0
 40
0.000000
 41
0.000000
 39
0.000000
  0
VERTEX
  8
SILKSCREEN_TOP
 10
127.363220
 20
80.131920
 40
0.119380
 41
0.119380
 42
0.000000
  0
VERTEX
  8
SILKSCREEN_TOP
 10
126.692660
 20
80.131920
 40
0.119380
 41
0.119380
 42
0.000000
  0
VERTEX
  8
SILKSCREEN_TOP
 10
126.692660
 20
81.412080
 40
0.119380
 41
0.119380
 42
0.000000
  0
VERTEX
  8
SILKSCREEN_TOP
 10
127.561340
 20
81.412080
 40
0.119380
 41
0.119380
 42
0.000000
  0
VERTEX
  8
SILKSCREEN_TOP
 10
127.561340
 20
80.332580
 40
0.119380
 41
0.119380
 42
0.000000
  0
VERTEX
  8
SILKSCREEN_TOP
 10
127.363220
 20
80.131920
 40
0.119380
 41
0.119380
 42
0.000000
  0
SEQEND
  0
POLYLINE
  8
TOP
 66
1
 70
1
 40
0.000000
 41
0.000000
 39
0.000000
  0
VERTEX
  8
TOP
 10
125.474730
 20
80.586580
 40
0.000000
 41
0.000000
 42
0.000000
  0
VERTEX
  8
TOP
 10
125.985270
 20
80.586580
 40
0.000000
 41
0.000000
 42
0.000000
  0
VERTEX
  8
TOP
 10
125.985270
 20
80.307180
 40
0.000000
 41
0.000000
 42
0.000000
  0
VERTEX
  8
TOP
 10
125.474730
 20
80.307180
 40
0.000000
 41
0.000000
 42
0.000000
  0
SEQEND
  0
POLYLINE
  8
TOP
 66
1
 70
1
 40
0.000000
 41
0.000000
 39
0.000000
  0
VERTEX
  8
TOP
 10
125.985270
 20
80.957420
 40
0.000000
 41
0.000000
 42
0.000000
  0
VERTEX
  8
TOP
 10
125.474730
 20
80.957420
 40
0.000000
 41
0.000000
 42
0.000000
  0
VERTEX
  8
TOP
 10
125.474730
 20
81.236820
 40
0.000000
 41
0.000000
 42
0.000000
  0
VERTEX
  8
TOP
 10
125.985270
 20
81.236820
 40
0.000000
 41
0.000000
 42
0.000000
  0
SEQEND
  0
POLYLINE
  8
SILKSCREEN_TOP
 66
1
 70
0
 40
0.000000
 41
0.000000
 39
0.000000
  0
VERTEX
  8
SILKSCREEN_TOP
 10
125.966220
 20
80.131920
 40
0.119380
 41
0.119380
 42
0.000000
  0
VERTEX
  8
SILKSCREEN_TOP
 10
125.295660
 20
80.131920
 40
0.119380
 41
0.119380
 42
0.000000
  0
VERTEX
  8
SILKSCREEN_TOP
 10
125.295660
 20
81.412080
 40
0.119380
 41
0.119380
 42
0.000000
  0
VERTEX
  8
SILKSCREEN_TOP
 10
126.164340
 20
81.412080
 40
0.119380
 41
0.119380
 42
0.000000
  0
VERTEX
  8
SILKSCREEN_TOP
 10
126.164340
 20
80.332580
 40
0.119380
 41
0.119380
 42
0.000000
  0
VERTEX
  8
SILKSCREEN_TOP
 10
125.966220
 20
80.131920
 40
0.119380
 41
0.119380
 42
0.000000
  0
SEQEND
  0
POLYLINE
  8
TOP
 66
1
 70
1
 40
0.000000
 41
0.000000
 39
0.000000
  0
VERTEX
  8
TOP
 10
125.347730
 20
78.808580
 40
0.000000
 41
0.000000
 42
0.000000
  0
VERTEX
  8
TOP
 10
125.858270
 20
78.808580
 40
0.000000
 41
0.000000
 42
0.000000
  0
VERTEX
  8
TOP
 10
125.858270
 20
78.529180
 40
0.000000
 41
0.000000
 42
0.000000
  0
VERTEX
  8
TOP
 10
125.347730
 20
78.529180
 40
0.000000
 41
0.000000
 42
0.000000
  0
SEQEND
  0
POLYLINE
  8
TOP
 66
1
 70
1
 40
0.000000
 41
0.000000
 39
0.000000
  0
VERTEX
  8
TOP
 10
125.858270
 20
79.179420
 40
0.000000
 41
0.000000
 42
0.000000
  0
VERTEX
  8
TOP
 10
125.347730
 20
79.179420
 40
0.000000
 41
0.000000
 42
0.000000
  0
VERTEX
  8
TOP
 10
125.347730
 20
79.458820
 40
0.000000
 41
0.000000
 42
0.000000
  0
VERTEX
  8
TOP
 10
125.858270
 20
79.458820
 40
0.000000
 41
0.000000
 42
0.000000
  0
SEQEND
  0
POLYLINE
  8
SILKSCREEN_TOP
 66
1
 70
0
 40
0.000000
 41
0.000000
 39
0.000000
  0
VERTEX
  8
SILKSCREEN_TOP
 10
125.839220
 20
78.353920
 40
0.119380
 41
0.119380
 42
0.000000
  0
VERTEX
  8
SILKSCREEN_TOP
 10
125.168660
 20
78.353920
 40
0.119380
 41
0.119380
 42
0.000000
  0
VERTEX
  8
SILKSCREEN_TOP
 10
125.168660
 20
79.634080
 40
0.119380
 41
0.119380
 42
0.000000
  0
VERTEX
  8
SILKSCREEN_TOP
 10
126.037340
 20
79.634080
 40
0.119380
 41
0.119380
 42
0.000000
  0
VERTEX
  8
SILKSCREEN_TOP
 10
126.037340
 20
78.554580
 40
0.119380
 41
0.119380
 42
0.000000
  0
VERTEX
  8
SILKSCREEN_TOP
 10
125.839220
 20
78.353920
 40
0.119380
 41
0.119380
 42
0.000000
  0
SEQEND
  0
POLYLINE
  8
TOP
 66
1
 70
1
 40
0.000000
 41
0.000000
 39
0.000000
  0
VERTEX
  8
TOP
 10
124.077730
 20
78.808580
 40
0.000000
 41
0.000000
 42
0.000000
  0
VERTEX
  8
TOP
 10
124.588270
 20
78.808580
 40
0.000000
 41
0.000000
 42
0.000000
  0
VERTEX
  8
TOP
 10
124.588270
 20
78.529180
 40
0.000000
 41
0.000000
 42
0.000000
  0
VERTEX
  8
TOP
 10
124.077730
 20
78.529180
 40
0.000000
 41
0.000000
 42
0.000000
  0
SEQEND
  0
POLYLINE
  8
TOP
 66
1
 70
1
 40
0.000000
 41
0.000000
 39
0.000000
  0
VERTEX
  8
TOP
 10
124.588270
 20
79.179420
 40
0.000000
 41
0.000000
 42
0.000000
  0
VERTEX
  8
TOP
 10
124.077730
 20
79.179420
 40
0.000000
 41
0.000000
 42
0.000000
  0
VERTEX
  8
TOP
 10
124.077730
 20
79.458820
 40
0.000000
 41
0.000000
 42
0.000000
  0
VERTEX
  8
TOP
 10
124.588270
 20
79.458820
 40
0.000000
 41
0.000000
 42
0.000000
  0
SEQEND
  0
POLYLINE
  8
SILKSCREEN_TOP
 66
1
 70
0
 40
0.000000
 41
0.000000
 39
0.000000
  0
VERTEX
  8
SILKSCREEN_TOP
 10
124.569220
 20
78.353920
 40
0.119380
 41
0.119380
 42
0.000000
  0
VERTEX
  8
SILKSCREEN_TOP
 10
123.898660
 20
78.353920
 40
0.119380
 41
0.119380
 42
0.000000
  0
VERTEX
  8
SILKSCREEN_TOP
 10
123.898660
 20
79.634080
 40
0.119380
 41
0.119380
 42
0.000000
  0
VERTEX
  8
SILKSCREEN_TOP
 10
124.767340
 20
79.634080
 40
0.119380
 41
0.119380
 42
0.000000
  0
VERTEX
  8
SILKSCREEN_TOP
 10
124.767340
 20
78.554580
 40
0.119380
 41
0.119380
 42
0.000000
  0
VERTEX
  8
SILKSCREEN_TOP
 10
124.569220
 20
78.353920
 40
0.119380
 41
0.119380
 42
0.000000
  0
SEQEND
  0
POLYLINE
  8
TOP
 66
1
 70
1
 40
0.000000
 41
0.000000
 39
0.000000
  0
VERTEX
  8
TOP
 10
123.823730
 20
80.586580
 40
0.000000
 41
0.000000
 42
0.000000
  0
VERTEX
  8
TOP
 10
124.334270
 20
80.586580
 40
0.000000
 41
0.000000
 42
0.000000
  0
VERTEX
  8
TOP
 10
124.334270
 20
80.307180
 40
0.000000
 41
0.000000
 42
0.000000
  0
VERTEX
  8
TOP
 10
123.823730
 20
80.307180
 40
0.000000
 41
0.000000
 42
0.000000
  0
SEQEND
  0
POLYLINE
  8
TOP
 66
1
 70
1
 40
0.000000
 41
0.000000
 39
0.000000
  0
VERTEX
  8
TOP
 10
124.334270
 20
80.957420
 40
0.000000
 41
0.000000
 42
0.000000
  0
VERTEX
  8
TOP
 10
123.823730
 20
80.957420
 40
0.000000
 41
0.000000
 42
0.000000
  0
VERTEX
  8
TOP
 10
123.823730
 20
81.236820
 40
0.000000
 41
0.000000
 42
0.000000
  0
VERTEX
  8
TOP
 10
124.334270
 20
81.236820
 40
0.000000
 41
0.000000
 42
0.000000
  0
SEQEND
  0
POLYLINE
  8
SILKSCREEN_TOP
 66
1
 70
0
 40
0.000000
 41
0.000000
 39
0.000000
  0
VERTEX
  8
SILKSCREEN_TOP
 10
124.315220
 20
80.131920
 40
0.119380
 41
0.119380
 42
0.000000
  0
VERTEX
  8
SILKSCREEN_TOP
 10
123.644660
 20
80.131920
 40
0.119380
 41
0.119380
 42
0.000000
  0
VERTEX
  8
SILKSCREEN_TOP
 10
123.644660
 20
81.412080
 40
0.119380
 41
0.119380
 42
0.000000
  0
VERTEX
  8
SILKSCREEN_TOP
 10
124.513340
 20
81.412080
 40
0.119380
 41
0.119380
 42
0.000000
  0
VERTEX
  8
SILKSCREEN_TOP
 10
124.513340
 20
80.332580
 40
0.119380
 41
0.119380
 42
0.000000
  0
VERTEX
  8
SILKSCREEN_TOP
 10
124.315220
 20
80.131920
 40
0.119380
 41
0.119380
 42
0.000000
  0
SEQEND
  0
POLYLINE
  8
TOP
 66
1
 70
1
 40
0.000000
 41
0.000000
 39
0.000000
  0
VERTEX
  8
TOP
 10
122.553730
 20
80.586580
 40
0.000000
 41
0.000000
 42
0.000000
  0
VERTEX
  8
TOP
 10
123.064270
 20
80.586580
 40
0.000000
 41
0.000000
 42
0.000000
  0
VERTEX
  8
TOP
 10
123.064270
 20
80.307180
 40
0.000000
 41
0.000000
 42
0.000000
  0
VERTEX
  8
TOP
 10
122.553730
 20
80.307180
 40
0.000000
 41
0.000000
 42
0.000000
  0
SEQEND
  0
POLYLINE
  8
TOP
 66
1
 70
1
 40
0.000000
 41
0.000000
 39
0.000000
  0
VERTEX
  8
TOP
 10
123.064270
 20
80.957420
 40
0.000000
 41
0.000000
 42
0.000000
  0
VERTEX
  8
TOP
 10
122.553730
 20
80.957420
 40
0.000000
 41
0.000000
 42
0.000000
  0
VERTEX
  8
TOP
 10
122.553730
 20
81.236820
 40
0.000000
 41
0.000000
 42
0.000000
  0
VERTEX
  8
TOP
 10
123.064270
 20
81.236820
 40
0.000000
 41
0.000000
 42
0.000000
  0
SEQEND
  0
POLYLINE
  8
SILKSCREEN_TOP
 66
1
 70
0
 40
0.000000
 41
0.000000
 39
0.000000
  0
VERTEX
  8
SILKSCREEN_TOP
 10
123.045220
 20
80.131920
 40
0.119380
 41
0.119380
 42
0.000000
  0
VERTEX
  8
SILKSCREEN_TOP
 10
122.374660
 20
80.131920
 40
0.119380
 41
0.119380
 42
0.000000
  0
VERTEX
  8
SILKSCREEN_TOP
 10
122.374660
 20
81.412080
 40
0.119380
 41
0.119380
 42
0.000000
  0
VERTEX
  8
SILKSCREEN_TOP
 10
123.243340
 20
81.412080
 40
0.119380
 41
0.119380
 42
0.000000
  0
VERTEX
  8
SILKSCREEN_TOP
 10
123.243340
 20
80.332580
 40
0.119380
 41
0.119380
 42
0.000000
  0
VERTEX
  8
SILKSCREEN_TOP
 10
123.045220
 20
80.131920
 40
0.119380
 41
0.119380
 42
0.000000
  0
SEQEND
  0
POLYLINE
  8
TOP
 66
1
 70
1
 40
0.000000
 41
0.000000
 39
0.000000
  0
VERTEX
  8
TOP
 10
72.134730
 20
87.444580
 40
0.000000
 41
0.000000
 42
0.000000
  0
VERTEX
  8
TOP
 10
72.645270
 20
87.444580
 40
0.000000
 41
0.000000
 42
0.000000
  0
VERTEX
  8
TOP
 10
72.645270
 20
87.165180
 40
0.000000
 41
0.000000
 42
0.000000
  0
VERTEX
  8
TOP
 10
72.134730
 20
87.165180
 40
0.000000
 41
0.000000
 42
0.000000
  0
SEQEND
  0
POLYLINE
  8
TOP
 66
1
 70
1
 40
0.000000
 41
0.000000
 39
0.000000
  0
VERTEX
  8
TOP
 10
72.645270
 20
87.815420
 40
0.000000
 41
0.000000
 42
0.000000
  0
VERTEX
  8
TOP
 10
72.134730
 20
87.815420
 40
0.000000
 41
0.000000
 42
0.000000
  0
VERTEX
  8
TOP
 10
72.134730
 20
88.094820
 40
0.000000
 41
0.000000
 42
0.000000
  0
VERTEX
  8
TOP
 10
72.645270
 20
88.094820
 40
0.000000
 41
0.000000
 42
0.000000
  0
SEQEND
  0
POLYLINE
  8
SILKSCREEN_TOP
 66
1
 70
0
 40
0.000000
 41
0.000000
 39
0.000000
  0
VERTEX
  8
SILKSCREEN_TOP
 10
72.626220
 20
86.989920
 40
0.119380
 41
0.119380
 42
0.000000
  0
VERTEX
  8
SILKSCREEN_TOP
 10
71.955660
 20
86.989920
 40
0.119380
 41
0.119380
 42
0.000000
  0
VERTEX
  8
SILKSCREEN_TOP
 10
71.955660
 20
88.270080
 40
0.119380
 41
0.119380
 42
0.000000
  0
VERTEX
  8
SILKSCREEN_TOP
 10
72.824340
 20
88.270080
 40
0.119380
 41
0.119380
 42
0.000000
  0
VERTEX
  8
SILKSCREEN_TOP
 10
72.824340
 20
87.190580
 40
0.119380
 41
0.119380
 42
0.000000
  0
VERTEX
  8
SILKSCREEN_TOP
 10
72.626220
 20
86.989920
 40
0.119380
 41
0.119380
 42
0.000000
  0
SEQEND
  0
POLYLINE
  8
TOP
 66
1
 70
1
 40
0.000000
 41
0.000000
 39
0.000000
  0
VERTEX
  8
TOP
 10
68.324730
 20
87.444580
 40
0.000000
 41
0.000000
 42
0.000000
  0
VERTEX
  8
TOP
 10
68.835270
 20
87.444580
 40
0.000000
 41
0.000000
 42
0.000000
  0
VERTEX
  8
TOP
 10
68.835270
 20
87.165180
 40
0.000000
 41
0.000000
 42
0.000000
  0
VERTEX
  8
TOP
 10
68.324730
 20
87.165180
 40
0.000000
 41
0.000000
 42
0.000000
  0
SEQEND
  0
POLYLINE
  8
TOP
 66
1
 70
1
 40
0.000000
 41
0.000000
 39
0.000000
  0
VERTEX
  8
TOP
 10
68.835270
 20
87.815420
 40
0.000000
 41
0.000000
 42
0.000000
  0
VERTEX
  8
TOP
 10
68.324730
 20
87.815420
 40
0.000000
 41
0.000000
 42
0.000000
  0
VERTEX
  8
TOP
 10
68.324730
 20
88.094820
 40
0.000000
 41
0.000000
 42
0.000000
  0
VERTEX
  8
TOP
 10
68.835270
 20
88.094820
 40
0.000000
 41
0.000000
 42
0.000000
  0
SEQEND
  0
POLYLINE
  8
SILKSCREEN_TOP
 66
1
 70
0
 40
0.000000
 41
0.000000
 39
0.000000
  0
VERTEX
  8
SILKSCREEN_TOP
 10
68.816220
 20
86.989920
 40
0.119380
 41
0.119380
 42
0.000000
  0
VERTEX
  8
SILKSCREEN_TOP
 10
68.145660
 20
86.989920
 40
0.119380
 41
0.119380
 42
0.000000
  0
VERTEX
  8
SILKSCREEN_TOP
 10
68.145660
 20
88.270080
 40
0.119380
 41
0.119380
 42
0.000000
  0
VERTEX
  8
SILKSCREEN_TOP
 10
69.014340
 20
88.270080
 40
0.119380
 41
0.119380
 42
0.000000
  0
VERTEX
  8
SILKSCREEN_TOP
 10
69.014340
 20
87.190580
 40
0.119380
 41
0.119380
 42
0.000000
  0
VERTEX
  8
SILKSCREEN_TOP
 10
68.816220
 20
86.989920
 40
0.119380
 41
0.119380
 42
0.000000
  0
SEQEND
  0
POLYLINE
  8
TOP
 66
1
 70
1
 40
0.000000
 41
0.000000
 39
0.000000
  0
VERTEX
  8
TOP
 10
69.594730
 20
87.444580
 40
0.000000
 41
0.000000
 42
0.000000
  0
VERTEX
  8
TOP
 10
70.105270
 20
87.444580
 40
0.000000
 41
0.000000
 42
0.000000
  0
VERTEX
  8
TOP
 10
70.105270
 20
87.165180
 40
0.000000
 41
0.000000
 42
0.000000
  0
VERTEX
  8
TOP
 10
69.594730
 20
87.165180
 40
0.000000
 41
0.000000
 42
0.000000
  0
SEQEND
  0
POLYLINE
  8
TOP
 66
1
 70
1
 40
0.000000
 41
0.000000
 39
0.000000
  0
VERTEX
  8
TOP
 10
70.105270
 20
87.815420
 40
0.000000
 41
0.000000
 42
0.000000
  0
VERTEX
  8
TOP
 10
69.594730
 20
87.815420
 40
0.000000
 41
0.000000
 42
0.000000
  0
VERTEX
  8
TOP
 10
69.594730
 20
88.094820
 40
0.000000
 41
0.000000
 42
0.000000
  0
VERTEX
  8
TOP
 10
70.105270
 20
88.094820
 40
0.000000
 41
0.000000
 42
0.000000
  0
SEQEND
  0
POLYLINE
  8
SILKSCREEN_TOP
 66
1
 70
0
 40
0.000000
 41
0.000000
 39
0.000000
  0
VERTEX
  8
SILKSCREEN_TOP
 10
70.086220
 20
86.989920
 40
0.119380
 41
0.119380
 42
0.000000
  0
VERTEX
  8
SILKSCREEN_TOP
 10
69.415660
 20
86.989920
 40
0.119380
 41
0.119380
 42
0.000000
  0
VERTEX
  8
SILKSCREEN_TOP
 10
69.415660
 20
88.270080
 40
0.119380
 41
0.119380
 42
0.000000
  0
VERTEX
  8
SILKSCREEN_TOP
 10
70.284340
 20
88.270080
 40
0.119380
 41
0.119380
 42
0.000000
  0
VERTEX
  8
SILKSCREEN_TOP
 10
70.284340
 20
87.190580
 40
0.119380
 41
0.119380
 42
0.000000
  0
VERTEX
  8
SILKSCREEN_TOP
 10
70.086220
 20
86.989920
 40
0.119380
 41
0.119380
 42
0.000000
  0
SEQEND
  0
POLYLINE
  8
TOP
 66
1
 70
1
 40
0.000000
 41
0.000000
 39
0.000000
  0
VERTEX
  8
TOP
 10
70.864730
 20
87.444580
 40
0.000000
 41
0.000000
 42
0.000000
  0
VERTEX
  8
TOP
 10
71.375270
 20
87.444580
 40
0.000000
 41
0.000000
 42
0.000000
  0
VERTEX
  8
TOP
 10
71.375270
 20
87.165180
 40
0.000000
 41
0.000000
 42
0.000000
  0
VERTEX
  8
TOP
 10
70.864730
 20
87.165180
 40
0.000000
 41
0.000000
 42
0.000000
  0
SEQEND
  0
POLYLINE
  8
TOP
 66
1
 70
1
 40
0.000000
 41
0.000000
 39
0.000000
  0
VERTEX
  8
TOP
 10
71.375270
 20
87.815420
 40
0.000000
 41
0.000000
 42
0.000000
  0
VERTEX
  8
TOP
 10
70.864730
 20
87.815420
 40
0.000000
 41
0.000000
 42
0.000000
  0
VERTEX
  8
TOP
 10
70.864730
 20
88.094820
 40
0.000000
 41
0.000000
 42
0.000000
  0
VERTEX
  8
TOP
 10
71.375270
 20
88.094820
 40
0.000000
 41
0.000000
 42
0.000000
  0
SEQEND
  0
POLYLINE
  8
SILKSCREEN_TOP
 66
1
 70
0
 40
0.000000
 41
0.000000
 39
0.000000
  0
VERTEX
  8
SILKSCREEN_TOP
 10
71.356220
 20
86.989920
 40
0.119380
 41
0.119380
 42
0.000000
  0
VERTEX
  8
SILKSCREEN_TOP
 10
70.685660
 20
86.989920
 40
0.119380
 41
0.119380
 42
0.000000
  0
VERTEX
  8
SILKSCREEN_TOP
 10
70.685660
 20
88.270080
 40
0.119380
 41
0.119380
 42
0.000000
  0
VERTEX
  8
SILKSCREEN_TOP
 10
71.554340
 20
88.270080
 40
0.119380
 41
0.119380
 42
0.000000
  0
VERTEX
  8
SILKSCREEN_TOP
 10
71.554340
 20
87.190580
 40
0.119380
 41
0.119380
 42
0.000000
  0
VERTEX
  8
SILKSCREEN_TOP
 10
71.356220
 20
86.989920
 40
0.119380
 41
0.119380
 42
0.000000
  0
SEQEND
  0
POLYLINE
  8
TOP
 66
1
 70
1
 40
0.000000
 41
0.000000
 39
0.000000
  0
VERTEX
  8
TOP
 10
73.404730
 20
87.444580
 40
0.000000
 41
0.000000
 42
0.000000
  0
VERTEX
  8
TOP
 10
73.915270
 20
87.444580
 40
0.000000
 41
0.000000
 42
0.000000
  0
VERTEX
  8
TOP
 10
73.915270
 20
87.165180
 40
0.000000
 41
0.000000
 42
0.000000
  0
VERTEX
  8
TOP
 10
73.404730
 20
87.165180
 40
0.000000
 41
0.000000
 42
0.000000
  0
SEQEND
  0
POLYLINE
  8
TOP
 66
1
 70
1
 40
0.000000
 41
0.000000
 39
0.000000
  0
VERTEX
  8
TOP
 10
73.915270
 20
87.815420
 40
0.000000
 41
0.000000
 42
0.000000
  0
VERTEX
  8
TOP
 10
73.404730
 20
87.815420
 40
0.000000
 41
0.000000
 42
0.000000
  0
VERTEX
  8
TOP
 10
73.404730
 20
88.094820
 40
0.000000
 41
0.000000
 42
0.000000
  0
VERTEX
  8
TOP
 10
73.915270
 20
88.094820
 40
0.000000
 41
0.000000
 42
0.000000
  0
SEQEND
  0
POLYLINE
  8
SILKSCREEN_TOP
 66
1
 70
0
 40
0.000000
 41
0.000000
 39
0.000000
  0
VERTEX
  8
SILKSCREEN_TOP
 10
73.896220
 20
86.989920
 40
0.119380
 41
0.119380
 42
0.000000
  0
VERTEX
  8
SILKSCREEN_TOP
 10
73.225660
 20
86.989920
 40
0.119380
 41
0.119380
 42
0.000000
  0
VERTEX
  8
SILKSCREEN_TOP
 10
73.225660
 20
88.270080
 40
0.119380
 41
0.119380
 42
0.000000
  0
VERTEX
  8
SILKSCREEN_TOP
 10
74.094340
 20
88.270080
 40
0.119380
 41
0.119380
 42
0.000000
  0
VERTEX
  8
SILKSCREEN_TOP
 10
74.094340
 20
87.190580
 40
0.119380
 41
0.119380
 42
0.000000
  0
VERTEX
  8
SILKSCREEN_TOP
 10
73.896220
 20
86.989920
 40
0.119380
 41
0.119380
 42
0.000000
  0
SEQEND
  0
POLYLINE
  8
TOP
 66
1
 70
1
 40
0.000000
 41
0.000000
 39
0.000000
  0
VERTEX
  8
TOP
 10
129.792730
 20
80.586580
 40
0.000000
 41
0.000000
 42
0.000000
  0
VERTEX
  8
TOP
 10
130.303270
 20
80.586580
 40
0.000000
 41
0.000000
 42
0.000000
  0
VERTEX
  8
TOP
 10
130.303270
 20
80.307180
 40
0.000000
 41
0.000000
 42
0.000000
  0
VERTEX
  8
TOP
 10
129.792730
 20
80.307180
 40
0.000000
 41
0.000000
 42
0.000000
  0
SEQEND
  0
POLYLINE
  8
TOP
 66
1
 70
1
 40
0.000000
 41
0.000000
 39
0.000000
  0
VERTEX
  8
TOP
 10
130.303270
 20
80.957420
 40
0.000000
 41
0.000000
 42
0.000000
  0
VERTEX
  8
TOP
 10
129.792730
 20
80.957420
 40
0.000000
 41
0.000000
 42
0.000000
  0
VERTEX
  8
TOP
 10
129.792730
 20
81.236820
 40
0.000000
 41
0.000000
 42
0.000000
  0
VERTEX
  8
TOP
 10
130.303270
 20
81.236820
 40
0.000000
 41
0.000000
 42
0.000000
  0
SEQEND
  0
POLYLINE
  8
SILKSCREEN_TOP
 66
1
 70
0
 40
0.000000
 41
0.000000
 39
0.000000
  0
VERTEX
  8
SILKSCREEN_TOP
 10
130.284220
 20
80.131920
 40
0.119380
 41
0.119380
 42
0.000000
  0
VERTEX
  8
SILKSCREEN_TOP
 10
129.613660
 20
80.131920
 40
0.119380
 41
0.119380
 42
0.000000
  0
VERTEX
  8
SILKSCREEN_TOP
 10
129.613660
 20
81.412080
 40
0.119380
 41
0.119380
 42
0.000000
  0
VERTEX
  8
SILKSCREEN_TOP
 10
130.482340
 20
81.412080
 40
0.119380
 41
0.119380
 42
0.000000
  0
VERTEX
  8
SILKSCREEN_TOP
 10
130.482340
 20
80.332580
 40
0.119380
 41
0.119380
 42
0.000000
  0
VERTEX
  8
SILKSCREEN_TOP
 10
130.284220
 20
80.131920
 40
0.119380
 41
0.119380
 42
0.000000
  0
SEQEND
  0
POLYLINE
  8
TOP
 66
1
 70
1
 40
0.000000
 41
0.000000
 39
0.000000
  0
VERTEX
  8
TOP
 10
128.522730
 20
80.586580
 40
0.000000
 41
0.000000
 42
0.000000
  0
VERTEX
  8
TOP
 10
129.033270
 20
80.586580
 40
0.000000
 41
0.000000
 42
0.000000
  0
VERTEX
  8
TOP
 10
129.033270
 20
80.307180
 40
0.000000
 41
0.000000
 42
0.000000
  0
VERTEX
  8
TOP
 10
128.522730
 20
80.307180
 40
0.000000
 41
0.000000
 42
0.000000
  0
SEQEND
  0
POLYLINE
  8
TOP
 66
1
 70
1
 40
0.000000
 41
0.000000
 39
0.000000
  0
VERTEX
  8
TOP
 10
129.033270
 20
80.957420
 40
0.000000
 41
0.000000
 42
0.000000
  0
VERTEX
  8
TOP
 10
128.522730
 20
80.957420
 40
0.000000
 41
0.000000
 42
0.000000
  0
VERTEX
  8
TOP
 10
128.522730
 20
81.236820
 40
0.000000
 41
0.000000
 42
0.000000
  0
VERTEX
  8
TOP
 10
129.033270
 20
81.236820
 40
0.000000
 41
0.000000
 42
0.000000
  0
SEQEND
  0
POLYLINE
  8
SILKSCREEN_TOP
 66
1
 70
0
 40
0.000000
 41
0.000000
 39
0.000000
  0
VERTEX
  8
SILKSCREEN_TOP
 10
129.014220
 20
80.131920
 40
0.119380
 41
0.119380
 42
0.000000
  0
VERTEX
  8
SILKSCREEN_TOP
 10
128.343660
 20
80.131920
 40
0.119380
 41
0.119380
 42
0.000000
  0
VERTEX
  8
SILKSCREEN_TOP
 10
128.343660
 20
81.412080
 40
0.119380
 41
0.119380
 42
0.000000
  0
VERTEX
  8
SILKSCREEN_TOP
 10
129.212340
 20
81.412080
 40
0.119380
 41
0.119380
 42
0.000000
  0
VERTEX
  8
SILKSCREEN_TOP
 10
129.212340
 20
80.332580
 40
0.119380
 41
0.119380
 42
0.000000
  0
VERTEX
  8
SILKSCREEN_TOP
 10
129.014220
 20
80.131920
 40
0.119380
 41
0.119380
 42
0.000000
  0
SEQEND
  0
POLYLINE
  8
TOP
 66
1
 70
1
 40
0.000000
 41
0.000000
 39
0.000000
  0
VERTEX
  8
TOP
 10
89.322910
 20
69.197220
 40
0.000000
 41
0.000000
 42
0.000000
  0
VERTEX
  8
TOP
 10
89.721690
 20
69.197220
 40
0.000000
 41
0.000000
 42
0.000000
  0
VERTEX
  8
TOP
 10
89.721690
 20
67.947540
 40
0.000000
 41
0.000000
 42
0.000000
  0
VERTEX
  8
TOP
 10
89.322910
 20
67.947540
 40
0.000000
 41
0.000000
 42
0.000000
  0
SEQEND
  0
POLYLINE
  8
TOP
 66
1
 70
1
 40
0.000000
 41
0.000000
 39
0.000000
  0
VERTEX
  8
TOP
 10
90.323670
 20
69.197220
 40
0.000000
 41
0.000000
 42
0.000000
  0
VERTEX
  8
TOP
 10
90.722450
 20
69.197220
 40
0.000000
 41
0.000000
 42
0.000000
  0
VERTEX
  8
TOP
 10
90.722450
 20
67.947540
 40
0.000000
 41
0.000000
 42
0.000000
  0
VERTEX
  8
TOP
 10
90.323670
 20
67.947540
 40
0.000000
 41
0.000000
 42
0.000000
  0
SEQEND
  0
POLYLINE
  8
TOP
 66
1
 70
1
 40
0.000000
 41
0.000000
 39
0.000000
  0
VERTEX
  8
TOP
 10
91.324430
 20
69.197220
 40
0.000000
 41
0.000000
 42
0.000000
  0
VERTEX
  8
TOP
 10
91.723210
 20
69.197220
 40
0.000000
 41
0.000000
 42
0.000000
  0
VERTEX
  8
TOP
 10
91.723210
 20
67.947540
 40
0.000000
 41
0.000000
 42
0.000000
  0
VERTEX
  8
TOP
 10
91.324430
 20
67.947540
 40
0.000000
 41
0.000000
 42
0.000000
  0
SEQEND
  0
POLYLINE
  8
TOP
 66
1
 70
1
 40
0.000000
 41
0.000000
 39
0.000000
  0
VERTEX
  8
TOP
 10
92.322650
 20
69.197220
 40
0.000000
 41
0.000000
 42
0.000000
  0
VERTEX
  8
TOP
 10
92.721430
 20
69.197220
 40
0.000000
 41
0.000000
 42
0.000000
  0
VERTEX
  8
TOP
 10
92.721430
 20
67.947540
 40
0.000000
 41
0.000000
 42
0.000000
  0
VERTEX
  8
TOP
 10
92.322650
 20
67.947540
 40
0.000000
 41
0.000000
 42
0.000000
  0
SEQEND
  0
POLYLINE
  8
TOP
 66
1
 70
1
 40
0.000000
 41
0.000000
 39
0.000000
  0
VERTEX
  8
TOP
 10
93.323410
 20
69.197220
 40
0.000000
 41
0.000000
 42
0.000000
  0
VERTEX
  8
TOP
 10
93.722190
 20
69.197220
 40
0.000000
 41
0.000000
 42
0.000000
  0
VERTEX
  8
TOP
 10
93.722190
 20
67.947540
 40
0.000000
 41
0.000000
 42
0.000000
  0
VERTEX
  8
TOP
 10
93.323410
 20
67.947540
 40
0.000000
 41
0.000000
 42
0.000000
  0
SEQEND
  0
POLYLINE
  8
TOP
 66
1
 70
1
 40
0.000000
 41
0.000000
 39
0.000000
  0
VERTEX
  8
TOP
 10
94.324170
 20
69.197220
 40
0.000000
 41
0.000000
 42
0.000000
  0
VERTEX
  8
TOP
 10
94.722950
 20
69.197220
 40
0.000000
 41
0.000000
 42
0.000000
  0
VERTEX
  8
TOP
 10
94.722950
 20
67.947540
 40
0.000000
 41
0.000000
 42
0.000000
  0
VERTEX
  8
TOP
 10
94.324170
 20
67.947540
 40
0.000000
 41
0.000000
 42
0.000000
  0
SEQEND
  0
POLYLINE
  8
TOP
 66
1
 70
1
 40
0.000000
 41
0.000000
 39
0.000000
  0
VERTEX
  8
TOP
 10
95.322390
 20
69.197220
 40
0.000000
 41
0.000000
 42
0.000000
  0
VERTEX
  8
TOP
 10
95.721170
 20
69.197220
 40
0.000000
 41
0.000000
 42
0.000000
  0
VERTEX
  8
TOP
 10
95.721170
 20
67.947540
 40
0.000000
 41
0.000000
 42
0.000000
  0
VERTEX
  8
TOP
 10
95.322390
 20
67.947540
 40
0.000000
 41
0.000000
 42
0.000000
  0
SEQEND
  0
POLYLINE
  8
TOP
 66
1
 70
1
 40
0.000000
 41
0.000000
 39
0.000000
  0
VERTEX
  8
TOP
 10
96.323150
 20
69.197220
 40
0.000000
 41
0.000000
 42
0.000000
  0
VERTEX
  8
TOP
 10
96.721930
 20
69.197220
 40
0.000000
 41
0.000000
 42
0.000000
  0
VERTEX
  8
TOP
 10
96.721930
 20
67.947540
 40
0.000000
 41
0.000000
 42
0.000000
  0
VERTEX
  8
TOP
 10
96.323150
 20
67.947540
 40
0.000000
 41
0.000000
 42
0.000000
  0
SEQEND
  0
POLYLINE
  8
TOP
 66
1
 70
1
 40
0.000000
 41
0.000000
 39
0.000000
  0
VERTEX
  8
TOP
 10
97.323910
 20
69.197220
 40
0.000000
 41
0.000000
 42
0.000000
  0
VERTEX
  8
TOP
 10
97.722690
 20
69.197220
 40
0.000000
 41
0.000000
 42
0.000000
  0
VERTEX
  8
TOP
 10
97.722690
 20
67.947540
 40
0.000000
 41
0.000000
 42
0.000000
  0
VERTEX
  8
TOP
 10
97.323910
 20
67.947540
 40
0.000000
 41
0.000000
 42
0.000000
  0
SEQEND
  0
POLYLINE
  8
TOP
 66
1
 70
1
 40
0.000000
 41
0.000000
 39
0.000000
  0
VERTEX
  8
TOP
 10
98.324670
 20
69.197220
 40
0.000000
 41
0.000000
 42
0.000000
  0
VERTEX
  8
TOP
 10
98.723450
 20
69.197220
 40
0.000000
 41
0.000000
 42
0.000000
  0
VERTEX
  8
TOP
 10
98.723450
 20
67.947540
 40
0.000000
 41
0.000000
 42
0.000000
  0
VERTEX
  8
TOP
 10
98.324670
 20
67.947540
 40
0.000000
 41
0.000000
 42
0.000000
  0
SEQEND
  0
POLYLINE
  8
TOP
 66
1
 70
1
 40
0.000000
 41
0.000000
 39
0.000000
  0
VERTEX
  8
TOP
 10
99.322890
 20
69.197220
 40
0.000000
 41
0.000000
 42
0.000000
  0
VERTEX
  8
TOP
 10
99.721670
 20
69.197220
 40
0.000000
 41
0.000000
 42
0.000000
  0
VERTEX
  8
TOP
 10
99.721670
 20
67.947540
 40
0.000000
 41
0.000000
 42
0.000000
  0
VERTEX
  8
TOP
 10
99.322890
 20
67.947540
 40
0.000000
 41
0.000000
 42
0.000000
  0
SEQEND
  0
POLYLINE
  8
TOP
 66
1
 70
1
 40
0.000000
 41
0.000000
 39
0.000000
  0
VERTEX
  8
TOP
 10
100.323650
 20
69.197220
 40
0.000000
 41
0.000000
 42
0.000000
  0
VERTEX
  8
TOP
 10
100.722430
 20
69.197220
 40
0.000000
 41
0.000000
 42
0.000000
  0
VERTEX
  8
TOP
 10
100.722430
 20
67.947540
 40
0.000000
 41
0.000000
 42
0.000000
  0
VERTEX
  8
TOP
 10
100.323650
 20
67.947540
 40
0.000000
 41
0.000000
 42
0.000000
  0
SEQEND
  0
POLYLINE
  8
TOP
 66
1
 70
1
 40
0.000000
 41
0.000000
 39
0.000000
  0
VERTEX
  8
TOP
 10
101.324410
 20
69.197220
 40
0.000000
 41
0.000000
 42
0.000000
  0
VERTEX
  8
TOP
 10
101.723190
 20
69.197220
 40
0.000000
 41
0.000000
 42
0.000000
  0
VERTEX
  8
TOP
 10
101.723190
 20
67.947540
 40
0.000000
 41
0.000000
 42
0.000000
  0
VERTEX
  8
TOP
 10
101.324410
 20
67.947540
 40
0.000000
 41
0.000000
 42
0.000000
  0
SEQEND
  0
POLYLINE
  8
TOP
 66
1
 70
1
 40
0.000000
 41
0.000000
 39
0.000000
  0
VERTEX
  8
TOP
 10
102.322630
 20
69.197220
 40
0.000000
 41
0.000000
 42
0.000000
  0
VERTEX
  8
TOP
 10
102.721410
 20
69.197220
 40
0.000000
 41
0.000000
 42
0.000000
  0
VERTEX
  8
TOP
 10
102.721410
 20
67.947540
 40
0.000000
 41
0.000000
 42
0.000000
  0
VERTEX
  8
TOP
 10
102.322630
 20
67.947540
 40
0.000000
 41
0.000000
 42
0.000000
  0
SEQEND
  0
POLYLINE
  8
TOP
 66
1
 70
1
 40
0.000000
 41
0.000000
 39
0.000000
  0
VERTEX
  8
TOP
 10
103.323390
 20
69.197220
 40
0.000000
 41
0.000000
 42
0.000000
  0
VERTEX
  8
TOP
 10
103.722170
 20
69.197220
 40
0.000000
 41
0.000000
 42
0.000000
  0
VERTEX
  8
TOP
 10
103.722170
 20
67.947540
 40
0.000000
 41
0.000000
 42
0.000000
  0
VERTEX
  8
TOP
 10
103.323390
 20
67.947540
 40
0.000000
 41
0.000000
 42
0.000000
  0
SEQEND
  0
POLYLINE
  8
TOP
 66
1
 70
1
 40
0.000000
 41
0.000000
 39
0.000000
  0
VERTEX
  8
TOP
 10
103.821230
 20
71.638160
 40
0.000000
 41
0.000000
 42
0.000000
  0
VERTEX
  8
TOP
 10
104.220010
 20
71.638160
 40
0.000000
 41
0.000000
 42
0.000000
  0
VERTEX
  8
TOP
 10
104.220010
 20
70.388480
 40
0.000000
 41
0.000000
 42
0.000000
  0
VERTEX
  8
TOP
 10
103.821230
 20
70.388480
 40
0.000000
 41
0.000000
 42
0.000000
  0
SEQEND
  0
POLYLINE
  8
TOP
 66
1
 70
1
 40
0.000000
 41
0.000000
 39
0.000000
  0
VERTEX
  8
TOP
 10
102.820470
 20
71.638160
 40
0.000000
 41
0.000000
 42
0.000000
  0
VERTEX
  8
TOP
 10
103.219250
 20
71.638160
 40
0.000000
 41
0.000000
 42
0.000000
  0
VERTEX
  8
TOP
 10
103.219250
 20
70.388480
 40
0.000000
 41
0.000000
 42
0.000000
  0
VERTEX
  8
TOP
 10
102.820470
 20
70.388480
 40
0.000000
 41
0.000000
 42
0.000000
  0
SEQEND
  0
POLYLINE
  8
TOP
 66
1
 70
1
 40
0.000000
 41
0.000000
 39
0.000000
  0
VERTEX
  8
TOP
 10
101.822250
 20
71.638160
 40
0.000000
 41
0.000000
 42
0.000000
  0
VERTEX
  8
TOP
 10
102.221030
 20
71.638160
 40
0.000000
 41
0.000000
 42
0.000000
  0
VERTEX
  8
TOP
 10
102.221030
 20
70.388480
 40
0.000000
 41
0.000000
 42
0.000000
  0
VERTEX
  8
TOP
 10
101.822250
 20
70.388480
 40
0.000000
 41
0.000000
 42
0.000000
  0
SEQEND
  0
POLYLINE
  8
TOP
 66
1
 70
1
 40
0.000000
 41
0.000000
 39
0.000000
  0
VERTEX
  8
TOP
 10
100.821490
 20
71.638160
 40
0.000000
 41
0.000000
 42
0.000000
  0
VERTEX
  8
TOP
 10
101.220270
 20
71.638160
 40
0.000000
 41
0.000000
 42
0.000000
  0
VERTEX
  8
TOP
 10
101.220270
 20
70.388480
 40
0.000000
 41
0.000000
 42
0.000000
  0
VERTEX
  8
TOP
 10
100.821490
 20
70.388480
 40
0.000000
 41
0.000000
 42
0.000000
  0
SEQEND
  0
POLYLINE
  8
TOP
 66
1
 70
1
 40
0.000000
 41
0.000000
 39
0.000000
  0
VERTEX
  8
TOP
 10
99.820730
 20
71.638160
 40
0.000000
 41
0.000000
 42
0.000000
  0
VERTEX
  8
TOP
 10
100.219510
 20
71.638160
 40
0.000000
 41
0.000000
 42
0.000000
  0
VERTEX
  8
TOP
 10
100.219510
 20
70.388480
 40
0.000000
 41
0.000000
 42
0.000000
  0
VERTEX
  8
TOP
 10
99.820730
 20
70.388480
 40
0.000000
 41
0.000000
 42
0.000000
  0
SEQEND
  0
POLYLINE
  8
TOP
 66
1
 70
1
 40
0.000000
 41
0.000000
 39
0.000000
  0
VERTEX
  8
TOP
 10
98.822510
 20
71.638160
 40
0.000000
 41
0.000000
 42
0.000000
  0
VERTEX
  8
TOP
 10
99.221290
 20
71.638160
 40
0.000000
 41
0.000000
 42
0.000000
  0
VERTEX
  8
TOP
 10
99.221290
 20
70.388480
 40
0.000000
 41
0.000000
 42
0.000000
  0
VERTEX
  8
TOP
 10
98.822510
 20
70.388480
 40
0.000000
 41
0.000000
 42
0.000000
  0
SEQEND
  0
POLYLINE
  8
TOP
 66
1
 70
1
 40
0.000000
 41
0.000000
 39
0.000000
  0
VERTEX
  8
TOP
 10
97.821750
 20
71.638160
 40
0.000000
 41
0.000000
 42
0.000000
  0
VERTEX
  8
TOP
 10
98.220530
 20
71.638160
 40
0.000000
 41
0.000000
 42
0.000000
  0
VERTEX
  8
TOP
 10
98.220530
 20
70.388480
 40
0.000000
 41
0.000000
 42
0.000000
  0
VERTEX
  8
TOP
 10
97.821750
 20
70.388480
 40
0.000000
 41
0.000000
 42
0.000000
  0
SEQEND
  0
POLYLINE
  8
TOP
 66
1
 70
1
 40
0.000000
 41
0.000000
 39
0.000000
  0
VERTEX
  8
TOP
 10
96.820990
 20
71.638160
 40
0.000000
 41
0.000000
 42
0.000000
  0
VERTEX
  8
TOP
 10
97.219770
 20
71.638160
 40
0.000000
 41
0.000000
 42
0.000000
  0
VERTEX
  8
TOP
 10
97.219770
 20
70.388480
 40
0.000000
 41
0.000000
 42
0.000000
  0
VERTEX
  8
TOP
 10
96.820990
 20
70.388480
 40
0.000000
 41
0.000000
 42
0.000000
  0
SEQEND
  0
POLYLINE
  8
TOP
 66
1
 70
1
 40
0.000000
 41
0.000000
 39
0.000000
  0
VERTEX
  8
TOP
 10
95.822770
 20
71.638160
 40
0.000000
 41
0.000000
 42
0.000000
  0
VERTEX
  8
TOP
 10
96.221550
 20
71.638160
 40
0.000000
 41
0.000000
 42
0.000000
  0
VERTEX
  8
TOP
 10
96.221550
 20
70.388480
 40
0.000000
 41
0.000000
 42
0.000000
  0
VERTEX
  8
TOP
 10
95.822770
 20
70.388480
 40
0.000000
 41
0.000000
 42
0.000000
  0
SEQEND
  0
POLYLINE
  8
TOP
 66
1
 70
1
 40
0.000000
 41
0.000000
 39
0.000000
  0
VERTEX
  8
TOP
 10
94.822010
 20
71.638160
 40
0.000000
 41
0.000000
 42
0.000000
  0
VERTEX
  8
TOP
 10
95.220790
 20
71.638160
 40
0.000000
 41
0.000000
 42
0.000000
  0
VERTEX
  8
TOP
 10
95.220790
 20
70.388480
 40
0.000000
 41
0.000000
 42
0.000000
  0
VERTEX
  8
TOP
 10
94.822010
 20
70.388480
 40
0.000000
 41
0.000000
 42
0.000000
  0
SEQEND
  0
POLYLINE
  8
TOP
 66
1
 70
1
 40
0.000000
 41
0.000000
 39
0.000000
  0
VERTEX
  8
TOP
 10
93.821250
 20
71.638160
 40
0.000000
 41
0.000000
 42
0.000000
  0
VERTEX
  8
TOP
 10
94.220030
 20
71.638160
 40
0.000000
 41
0.000000
 42
0.000000
  0
VERTEX
  8
TOP
 10
94.220030
 20
70.388480
 40
0.000000
 41
0.000000
 42
0.000000
  0
VERTEX
  8
TOP
 10
93.821250
 20
70.388480
 40
0.000000
 41
0.000000
 42
0.000000
  0
SEQEND
  0
POLYLINE
  8
TOP
 66
1
 70
1
 40
0.000000
 41
0.000000
 39
0.000000
  0
VERTEX
  8
TOP
 10
92.820490
 20
71.638160
 40
0.000000
 41
0.000000
 42
0.000000
  0
VERTEX
  8
TOP
 10
93.219270
 20
71.638160
 40
0.000000
 41
0.000000
 42
0.000000
  0
VERTEX
  8
TOP
 10
93.219270
 20
70.388480
 40
0.000000
 41
0.000000
 42
0.000000
  0
VERTEX
  8
TOP
 10
92.820490
 20
70.388480
 40
0.000000
 41
0.000000
 42
0.000000
  0
SEQEND
  0
POLYLINE
  8
TOP
 66
1
 70
1
 40
0.000000
 41
0.000000
 39
0.000000
  0
VERTEX
  8
TOP
 10
91.822270
 20
71.638160
 40
0.000000
 41
0.000000
 42
0.000000
  0
VERTEX
  8
TOP
 10
92.221050
 20
71.638160
 40
0.000000
 41
0.000000
 42
0.000000
  0
VERTEX
  8
TOP
 10
92.221050
 20
70.388480
 40
0.000000
 41
0.000000
 42
0.000000
  0
VERTEX
  8
TOP
 10
91.822270
 20
70.388480
 40
0.000000
 41
0.000000
 42
0.000000
  0
SEQEND
  0
POLYLINE
  8
TOP
 66
1
 70
1
 40
0.000000
 41
0.000000
 39
0.000000
  0
VERTEX
  8
TOP
 10
90.821510
 20
71.638160
 40
0.000000
 41
0.000000
 42
0.000000
  0
VERTEX
  8
TOP
 10
91.220290
 20
71.638160
 40
0.000000
 41
0.000000
 42
0.000000
  0
VERTEX
  8
TOP
 10
91.220290
 20
70.388480
 40
0.000000
 41
0.000000
 42
0.000000
  0
VERTEX
  8
TOP
 10
90.821510
 20
70.388480
 40
0.000000
 41
0.000000
 42
0.000000
  0
SEQEND
  0
POLYLINE
  8
TOP
 66
1
 70
1
 40
0.000000
 41
0.000000
 39
0.000000
  0
VERTEX
  8
TOP
 10
89.820750
 20
71.638160
 40
0.000000
 41
0.000000
 42
0.000000
  0
VERTEX
  8
TOP
 10
90.219530
 20
71.638160
 40
0.000000
 41
0.000000
 42
0.000000
  0
VERTEX
  8
TOP
 10
90.219530
 20
70.388480
 40
0.000000
 41
0.000000
 42
0.000000
  0
VERTEX
  8
TOP
 10
89.820750
 20
70.388480
 40
0.000000
 41
0.000000
 42
0.000000
  0
SEQEND
  0
POLYLINE
  8
TOP
 66
1
 70
1
 40
0.000000
 41
0.000000
 39
0.000000
  0
VERTEX
  8
TOP
 10
88.624410
 20
70.796150
 40
0.000000
 41
0.000000
 42
0.000000
  0
VERTEX
  8
TOP
 10
88.624410
 20
68.797170
 40
0.000000
 41
0.000000
 42
0.000000
  0
VERTEX
  8
TOP
 10
86.823550
 20
68.797170
 40
0.000000
 41
0.000000
 42
0.000000
  0
VERTEX
  8
TOP
 10
86.823550
 20
70.796150
 40
0.000000
 41
0.000000
 42
0.000000
  0
SEQEND
  0
POLYLINE
  8
TOP
 66
1
 70
1
 40
0.000000
 41
0.000000
 39
0.000000
  0
VERTEX
  8
TOP
 10
106.724450
 20
70.796150
 40
0.000000
 41
0.000000
 42
0.000000
  0
VERTEX
  8
TOP
 10
106.724450
 20
68.797170
 40
0.000000
 41
0.000000
 42
0.000000
  0
VERTEX
  8
TOP
 10
104.923590
 20
68.797170
 40
0.000000
 41
0.000000
 42
0.000000
  0
VERTEX
  8
TOP
 10
104.923590
 20
70.796150
 40
0.000000
 41
0.000000
 42
0.000000
  0
SEQEND
  0
POLYLINE
  8
SILKSCREEN_TOP
 66
1
 70
0
 40
0.000000
 41
0.000000
 39
0.000000
  0
VERTEX
  8
SILKSCREEN_TOP
 10
104.223820
 20
70.921880
 40
0.200660
 41
0.200660
 42
0.000000
  0
VERTEX
  8
SILKSCREEN_TOP
 10
107.099100
 20
70.921880
 40
0.200660
 41
0.200660
 42
0.000000
  0
VERTEX
  8
SILKSCREEN_TOP
 10
107.099100
 20
68.922900
 40
0.200660
 41
0.200660
 42
0.000000
  0
VERTEX
  8
SILKSCREEN_TOP
 10
105.575100
 20
68.922900
 40
0.200660
 41
0.200660
 42
0.000000
  0
VERTEX
  8
SILKSCREEN_TOP
 10
105.575100
 20
70.121780
 40
0.200660
 41
0.200660
 42
0.000000
  0
VERTEX
  8
SILKSCREEN_TOP
 10
87.972900
 20
70.121780
 40
0.200660
 41
0.200660
 42
0.000000
  0
VERTEX
  8
SILKSCREEN_TOP
 10
87.972900
 20
68.922900
 40
0.200660
 41
0.200660
 42
0.000000
  0
VERTEX
  8
SILKSCREEN_TOP
 10
86.448900
 20
68.922900
 40
0.200660
 41
0.200660
 42
0.000000
  0
VERTEX
  8
SILKSCREEN_TOP
 10
86.448900
 20
70.921880
 40
0.200660
 41
0.200660
 42
0.000000
  0
VERTEX
  8
SILKSCREEN_TOP
 10
89.824560
 20
70.921880
 40
0.200660
 41
0.200660
 42
0.000000
  0
SEQEND
  0
POLYLINE
  8
SILKSCREEN_TOP
 66
1
 70
0
 40
0.000000
 41
0.000000
 39
0.000000
  0
VERTEX
  8
SILKSCREEN_TOP
 10
89.324180
 20
68.821300
 40
0.200660
 41
0.200660
 42
0.000000
  0
VERTEX
  8
SILKSCREEN_TOP
 10
88.574880
 20
68.821300
 40
0.200660
 41
0.200660
 42
0.000000
  0
VERTEX
  8
SILKSCREEN_TOP
 10
88.574880
 20
69.522340
 40
0.200660
 41
0.200660
 42
0.000000
  0
VERTEX
  8
SILKSCREEN_TOP
 10
104.973120
 20
69.522340
 40
0.200660
 41
0.200660
 42
0.000000
  0
VERTEX
  8
SILKSCREEN_TOP
 10
104.973120
 20
68.821300
 40
0.200660
 41
0.200660
 42
0.000000
  0
VERTEX
  8
SILKSCREEN_TOP
 10
103.723440
 20
68.821300
 40
0.200660
 41
0.200660
 42
0.000000
  0
SEQEND
  0
POLYLINE
  8
SILKSCREEN_TOP
 66
1
 70
0
 40
0.000000
 41
0.000000
 39
0.000000
  0
VERTEX
  8
SILKSCREEN_TOP
 10
89.154000
 20
67.998340
 40
0.200660
 41
0.200660
 42
0.000000
  0
VERTEX
  8
SILKSCREEN_TOP
 10
87.630000
 20
67.998340
 40
0.200660
 41
0.200660
 42
0.000000
  0
VERTEX
  8
SILKSCREEN_TOP
 10
86.868000
 20
68.760340
 40
0.200660
 41
0.200660
 42
0.000000
  0
SEQEND
  0
POLYLINE
  8
SILKSCREEN_TOP
 66
1
 70
0
 40
0.000000
 41
0.000000
 39
0.000000
  0
VERTEX
  8
SILKSCREEN_TOP
 10
103.886000
 20
67.998340
 40
0.200660
 41
0.200660
 42
0.000000
  0
VERTEX
  8
SILKSCREEN_TOP
 10
105.664000
 20
67.998340
 40
0.200660
 41
0.200660
 42
0.000000
  0
VERTEX
  8
SILKSCREEN_TOP
 10
106.426000
 20
68.760340
 40
0.200660
 41
0.200660
 42
0.000000
  0
SEQEND
  0
POLYLINE
  8
SILKSCREEN_TOP
 66
1
 70
0
 40
0.000000
 41
0.000000
 39
0.000000
  0
VERTEX
  8
SILKSCREEN_TOP
 10
89.916000
 20
67.490340
 40
0.200660
 41
0.200660
 42
1.000000
  0
VERTEX
  8
SILKSCREEN_TOP
 10
89.408000
 20
67.490340
 40
0.200660
 41
0.200660
 42
1.000000
  0
VERTEX
  8
SILKSCREEN_TOP
 10
89.916000
 20
67.490340
 40
0.200660
 41
0.200660
 42
0.000000
  0
SEQEND
  0
CIRCLE
  8
TOP
 10
153.662380
 20
101.709220
 40
3.100070
  0
CIRCLE
  8
TOP
 10
153.662380
 20
35.410140
 40
3.100070
  0
CIRCLE
  8
TOP
 10
42.562780
 20
35.410140
 40
3.100070
  0
CIRCLE
  8
TOP
 10
42.562780
 20
101.709220
 40
3.100070
  0
CIRCLE
  8
TOP
 10
114.300000
 20
79.502000
 40
0.500380
  0
POLYLINE
  8
SILKSCREEN_TOP
 66
1
 70
0
 40
0.000000
 41
0.000000
 39
0.000000
  0
VERTEX
  8
SILKSCREEN_TOP
 10
114.868960
 20
79.502000
 40
0.152400
 41
0.152400
 42
1.000000
  0
VERTEX
  8
SILKSCREEN_TOP
 10
113.731040
 20
79.502000
 40
0.152400
 41
0.152400
 42
1.000000
  0
VERTEX
  8
SILKSCREEN_TOP
 10
114.868960
 20
79.502000
 40
0.152400
 41
0.152400
 42
0.000000
  0
SEQEND
  0
CIRCLE
  8
TOP
 10
114.300000
 20
81.280000
 40
0.500380
  0
POLYLINE
  8
SILKSCREEN_TOP
 66
1
 70
0
 40
0.000000
 41
0.000000
 39
0.000000
  0
VERTEX
  8
SILKSCREEN_TOP
 10
114.868960
 20
81.280000
 40
0.152400
 41
0.152400
 42
1.000000
  0
VERTEX
  8
SILKSCREEN_TOP
 10
113.731040
 20
81.280000
 40
0.152400
 41
0.152400
 42
1.000000
  0
VERTEX
  8
SILKSCREEN_TOP
 10
114.868960
 20
81.280000
 40
0.152400
 41
0.152400
 42
0.000000
  0
SEQEND
  0
POLYLINE
  8
TOP
 66
1
 70
1
 40
0.000000
 41
0.000000
 39
0.000000
  0
VERTEX
  8
TOP
 10
108.022390
 20
62.132210
 40
0.000000
 41
0.000000
 42
0.000000
  0
VERTEX
  8
TOP
 10
109.401610
 20
62.132210
 40
0.000000
 41
0.000000
 42
0.000000
  0
VERTEX
  8
TOP
 10
109.401610
 20
61.372750
 40
0.000000
 41
0.000000
 42
0.000000
  0
VERTEX
  8
TOP
 10
108.022390
 20
61.372750
 40
0.000000
 41
0.000000
 42
0.000000
  0
SEQEND
  0
POLYLINE
  8
TOP
 66
1
 70
1
 40
0.000000
 41
0.000000
 39
0.000000
  0
VERTEX
  8
TOP
 10
109.401610
 20
63.343790
 40
0.000000
 41
0.000000
 42
0.000000
  0
VERTEX
  8
TOP
 10
108.022390
 20
63.343790
 40
0.000000
 41
0.000000
 42
0.000000
  0
VERTEX
  8
TOP
 10
108.022390
 20
64.103250
 40
0.000000
 41
0.000000
 42
0.000000
  0
VERTEX
  8
TOP
 10
109.401610
 20
64.103250
 40
0.000000
 41
0.000000
 42
0.000000
  0
SEQEND
  0
POLYLINE
  8
SILKSCREEN_TOP
 66
1
 70
0
 40
0.000000
 41
0.000000
 39
0.000000
  0
VERTEX
  8
SILKSCREEN_TOP
 10
109.537500
 20
61.231780
 40
0.119380
 41
0.119380
 42
0.000000
  0
VERTEX
  8
SILKSCREEN_TOP
 10
109.537500
 20
64.244220
 40
0.119380
 41
0.119380
 42
0.000000
  0
VERTEX
  8
SILKSCREEN_TOP
 10
107.886500
 20
64.244220
 40
0.119380
 41
0.119380
 42
0.000000
  0
SEQEND
  0
POLYLINE
  8
SILKSCREEN_TOP
 66
1
 70
0
 40
0.000000
 41
0.000000
 39
0.000000
  0
VERTEX
  8
SILKSCREEN_TOP
 10
107.886500
 20
61.231780
 40
0.119380
 41
0.119380
 42
0.000000
  0
VERTEX
  8
SILKSCREEN_TOP
 10
109.537500
 20
61.231780
 40
0.119380
 41
0.119380
 42
0.000000
  0
SEQEND
  0
POLYLINE
  8
SILKSCREEN_TOP
 66
1
 70
0
 40
0.000000
 41
0.000000
 39
0.000000
  0
VERTEX
  8
SILKSCREEN_TOP
 10
107.886500
 20
64.244220
 40
0.119380
 41
0.119380
 42
0.000000
  0
VERTEX
  8
SILKSCREEN_TOP
 10
107.886500
 20
61.231780
 40
0.119380
 41
0.119380
 42
0.000000
  0
SEQEND
  0
POLYLINE
  8
TOP
 66
1
 70
1
 40
0.000000
 41
0.000000
 39
0.000000
  0
VERTEX
  8
TOP
 10
106.244390
 20
62.132210
 40
0.000000
 41
0.000000
 42
0.000000
  0
VERTEX
  8
TOP
 10
107.623610
 20
62.132210
 40
0.000000
 41
0.000000
 42
0.000000
  0
VERTEX
  8
TOP
 10
107.623610
 20
61.372750
 40
0.000000
 41
0.000000
 42
0.000000
  0
VERTEX
  8
TOP
 10
106.244390
 20
61.372750
 40
0.000000
 41
0.000000
 42
0.000000
  0
SEQEND
  0
POLYLINE
  8
TOP
 66
1
 70
1
 40
0.000000
 41
0.000000
 39
0.000000
  0
VERTEX
  8
TOP
 10
107.623610
 20
63.343790
 40
0.000000
 41
0.000000
 42
0.000000
  0
VERTEX
  8
TOP
 10
106.244390
 20
63.343790
 40
0.000000
 41
0.000000
 42
0.000000
  0
VERTEX
  8
TOP
 10
106.244390
 20
64.103250
 40
0.000000
 41
0.000000
 42
0.000000
  0
VERTEX
  8
TOP
 10
107.623610
 20
64.103250
 40
0.000000
 41
0.000000
 42
0.000000
  0
SEQEND
  0
POLYLINE
  8
SILKSCREEN_TOP
 66
1
 70
0
 40
0.000000
 41
0.000000
 39
0.000000
  0
VERTEX
  8
SILKSCREEN_TOP
 10
107.759500
 20
61.231780
 40
0.119380
 41
0.119380
 42
0.000000
  0
VERTEX
  8
SILKSCREEN_TOP
 10
107.759500
 20
64.244220
 40
0.119380
 41
0.119380
 42
0.000000
  0
VERTEX
  8
SILKSCREEN_TOP
 10
106.108500
 20
64.244220
 40
0.119380
 41
0.119380
 42
0.000000
  0
SEQEND
  0
POLYLINE
  8
SILKSCREEN_TOP
 66
1
 70
0
 40
0.000000
 41
0.000000
 39
0.000000
  0
VERTEX
  8
SILKSCREEN_TOP
 10
106.108500
 20
61.231780
 40
0.119380
 41
0.119380
 42
0.000000
  0
VERTEX
  8
SILKSCREEN_TOP
 10
107.759500
 20
61.231780
 40
0.119380
 41
0.119380
 42
0.000000
  0
SEQEND
  0
POLYLINE
  8
SILKSCREEN_TOP
 66
1
 70
0
 40
0.000000
 41
0.000000
 39
0.000000
  0
VERTEX
  8
SILKSCREEN_TOP
 10
106.108500
 20
64.244220
 40
0.119380
 41
0.119380
 42
0.000000
  0
VERTEX
  8
SILKSCREEN_TOP
 10
106.108500
 20
61.231780
 40
0.119380
 41
0.119380
 42
0.000000
  0
SEQEND
  0
POLYLINE
  8
TOP
 66
1
 70
1
 40
0.000000
 41
0.000000
 39
0.000000
  0
VERTEX
  8
TOP
 10
97.370900
 20
59.479180
 40
0.000000
 41
0.000000
 42
0.000000
  0
VERTEX
  8
TOP
 10
97.370900
 20
60.408820
 40
0.000000
 41
0.000000
 42
0.000000
  0
VERTEX
  8
TOP
 10
98.191320
 20
60.408820
 40
0.000000
 41
0.000000
 42
0.000000
  0
VERTEX
  8
TOP
 10
98.191320
 20
59.479180
 40
0.000000
 41
0.000000
 42
0.000000
  0
SEQEND
  0
POLYLINE
  8
TOP
 66
1
 70
1
 40
0.000000
 41
0.000000
 39
0.000000
  0
VERTEX
  8
TOP
 10
96.683830
 20
60.408820
 40
0.000000
 41
0.000000
 42
0.000000
  0
VERTEX
  8
TOP
 10
96.683830
 20
59.479180
 40
0.000000
 41
0.000000
 42
0.000000
  0
VERTEX
  8
TOP
 10
95.863410
 20
59.479180
 40
0.000000
 41
0.000000
 42
0.000000
  0
VERTEX
  8
TOP
 10
95.863410
 20
60.408820
 40
0.000000
 41
0.000000
 42
0.000000
  0
SEQEND
  0
POLYLINE
  8
SILKSCREEN_TOP
 66
1
 70
0
 40
0.000000
 41
0.000000
 39
0.000000
  0
VERTEX
  8
SILKSCREEN_TOP
 10
98.374200
 20
60.589160
 40
0.119380
 41
0.119380
 42
0.000000
  0
VERTEX
  8
SILKSCREEN_TOP
 10
95.681800
 20
60.589160
 40
0.119380
 41
0.119380
 42
0.000000
  0
VERTEX
  8
SILKSCREEN_TOP
 10
95.681800
 20
59.298840
 40
0.119380
 41
0.119380
 42
0.000000
  0
VERTEX
  8
SILKSCREEN_TOP
 10
98.374200
 20
59.298840
 40
0.119380
 41
0.119380
 42
0.000000
  0
SEQEND
  0
POLYLINE
  8
SILKSCREEN_TOP
 66
1
 70
0
 40
0.000000
 41
0.000000
 39
0.000000
  0
VERTEX
  8
SILKSCREEN_TOP
 10
98.374200
 20
60.589160
 40
0.119380
 41
0.119380
 42
0.000000
  0
VERTEX
  8
SILKSCREEN_TOP
 10
98.374200
 20
59.298840
 40
0.119380
 41
0.119380
 42
0.000000
  0
SEQEND
  0
POLYLINE
  8
TOP
 66
1
 70
1
 40
0.000000
 41
0.000000
 39
0.000000
  0
VERTEX
  8
TOP
 10
140.164820
 20
61.812170
 40
0.000000
 41
0.000000
 42
0.000000
  0
VERTEX
  8
TOP
 10
139.235180
 20
61.812170
 40
0.000000
 41
0.000000
 42
0.000000
  0
VERTEX
  8
TOP
 10
139.235180
 20
62.632590
 40
0.000000
 41
0.000000
 42
0.000000
  0
VERTEX
  8
TOP
 10
140.164820
 20
62.632590
 40
0.000000
 41
0.000000
 42
0.000000
  0
SEQEND
  0
POLYLINE
  8
TOP
 66
1
 70
1
 40
0.000000
 41
0.000000
 39
0.000000
  0
VERTEX
  8
TOP
 10
139.235180
 20
61.123830
 40
0.000000
 41
0.000000
 42
0.000000
  0
VERTEX
  8
TOP
 10
140.164820
 20
61.123830
 40
0.000000
 41
0.000000
 42
0.000000
  0
VERTEX
  8
TOP
 10
140.164820
 20
60.303410
 40
0.000000
 41
0.000000
 42
0.000000
  0
VERTEX
  8
TOP
 10
139.235180
 20
60.303410
 40
0.000000
 41
0.000000
 42
0.000000
  0
SEQEND
  0
POLYLINE
  8
SILKSCREEN_TOP
 66
1
 70
0
 40
0.000000
 41
0.000000
 39
0.000000
  0
VERTEX
  8
SILKSCREEN_TOP
 10
139.054840
 20
62.814200
 40
0.119380
 41
0.119380
 42
0.000000
  0
VERTEX
  8
SILKSCREEN_TOP
 10
139.054840
 20
60.121800
 40
0.119380
 41
0.119380
 42
0.000000
  0
VERTEX
  8
SILKSCREEN_TOP
 10
140.345160
 20
60.121800
 40
0.119380
 41
0.119380
 42
0.000000
  0
VERTEX
  8
SILKSCREEN_TOP
 10
140.345160
 20
62.814200
 40
0.119380
 41
0.119380
 42
0.000000
  0
SEQEND
  0
POLYLINE
  8
SILKSCREEN_TOP
 66
1
 70
0
 40
0.000000
 41
0.000000
 39
0.000000
  0
VERTEX
  8
SILKSCREEN_TOP
 10
139.054840
 20
62.814200
 40
0.119380
 41
0.119380
 42
0.000000
  0
VERTEX
  8
SILKSCREEN_TOP
 10
140.345160
 20
62.814200
 40
0.119380
 41
0.119380
 42
0.000000
  0
SEQEND
  0
POLYLINE
  8
TOP
 66
1
 70
1
 40
0.000000
 41
0.000000
 39
0.000000
  0
VERTEX
  8
TOP
 10
138.640820
 20
61.812170
 40
0.000000
 41
0.000000
 42
0.000000
  0
VERTEX
  8
TOP
 10
137.711180
 20
61.812170
 40
0.000000
 41
0.000000
 42
0.000000
  0
VERTEX
  8
TOP
 10
137.711180
 20
62.632590
 40
0.000000
 41
0.000000
 42
0.000000
  0
VERTEX
  8
TOP
 10
138.640820
 20
62.632590
 40
0.000000
 41
0.000000
 42
0.000000
  0
SEQEND
  0
POLYLINE
  8
TOP
 66
1
 70
1
 40
0.000000
 41
0.000000
 39
0.000000
  0
VERTEX
  8
TOP
 10
137.711180
 20
61.123830
 40
0.000000
 41
0.000000
 42
0.000000
  0
VERTEX
  8
TOP
 10
138.640820
 20
61.123830
 40
0.000000
 41
0.000000
 42
0.000000
  0
VERTEX
  8
TOP
 10
138.640820
 20
60.303410
 40
0.000000
 41
0.000000
 42
0.000000
  0
VERTEX
  8
TOP
 10
137.711180
 20
60.303410
 40
0.000000
 41
0.000000
 42
0.000000
  0
SEQEND
  0
POLYLINE
  8
SILKSCREEN_TOP
 66
1
 70
0
 40
0.000000
 41
0.000000
 39
0.000000
  0
VERTEX
  8
SILKSCREEN_TOP
 10
137.530840
 20
62.814200
 40
0.119380
 41
0.119380
 42
0.000000
  0
VERTEX
  8
SILKSCREEN_TOP
 10
137.530840
 20
60.121800
 40
0.119380
 41
0.119380
 42
0.000000
  0
VERTEX
  8
SILKSCREEN_TOP
 10
138.821160
 20
60.121800
 40
0.119380
 41
0.119380
 42
0.000000
  0
VERTEX
  8
SILKSCREEN_TOP
 10
138.821160
 20
62.814200
 40
0.119380
 41
0.119380
 42
0.000000
  0
SEQEND
  0
POLYLINE
  8
SILKSCREEN_TOP
 66
1
 70
0
 40
0.000000
 41
0.000000
 39
0.000000
  0
VERTEX
  8
SILKSCREEN_TOP
 10
137.530840
 20
62.814200
 40
0.119380
 41
0.119380
 42
0.000000
  0
VERTEX
  8
SILKSCREEN_TOP
 10
138.821160
 20
62.814200
 40
0.119380
 41
0.119380
 42
0.000000
  0
SEQEND
  0
POLYLINE
  8
TOP
 66
1
 70
1
 40
0.000000
 41
0.000000
 39
0.000000
  0
VERTEX
  8
TOP
 10
108.554520
 20
59.253120
 40
0.000000
 41
0.000000
 42
0.000000
  0
VERTEX
  8
TOP
 10
108.554520
 20
60.632340
 40
0.000000
 41
0.000000
 42
0.000000
  0
VERTEX
  8
TOP
 10
109.313980
 20
60.632340
 40
0.000000
 41
0.000000
 42
0.000000
  0
VERTEX
  8
TOP
 10
109.313980
 20
59.253120
 40
0.000000
 41
0.000000
 42
0.000000
  0
SEQEND
  0
POLYLINE
  8
TOP
 66
1
 70
1
 40
0.000000
 41
0.000000
 39
0.000000
  0
VERTEX
  8
TOP
 10
107.344210
 20
60.633610
 40
0.000000
 41
0.000000
 42
0.000000
  0
VERTEX
  8
TOP
 10
107.344210
 20
59.254390
 40
0.000000
 41
0.000000
 42
0.000000
  0
VERTEX
  8
TOP
 10
106.584750
 20
59.254390
 40
0.000000
 41
0.000000
 42
0.000000
  0
VERTEX
  8
TOP
 10
106.584750
 20
60.633610
 40
0.000000
 41
0.000000
 42
0.000000
  0
SEQEND
  0
POLYLINE
  8
SILKSCREEN_TOP
 66
1
 70
0
 40
0.000000
 41
0.000000
 39
0.000000
  0
VERTEX
  8
SILKSCREEN_TOP
 10
107.345480
 20
60.769500
 40
0.119380
 41
0.119380
 42
0.000000
  0
VERTEX
  8
SILKSCREEN_TOP
 10
106.443780
 20
60.769500
 40
0.119380
 41
0.119380
 42
0.000000
  0
VERTEX
  8
SILKSCREEN_TOP
 10
106.443780
 20
59.118500
 40
0.119380
 41
0.119380
 42
0.000000
  0
VERTEX
  8
SILKSCREEN_TOP
 10
107.345480
 20
59.118500
 40
0.119380
 41
0.119380
 42
0.000000
  0
SEQEND
  0
POLYLINE
  8
SILKSCREEN_TOP
 66
1
 70
0
 40
0.000000
 41
0.000000
 39
0.000000
  0
VERTEX
  8
SILKSCREEN_TOP
 10
108.554520
 20
59.118500
 40
0.119380
 41
0.119380
 42
0.000000
  0
VERTEX
  8
SILKSCREEN_TOP
 10
109.456220
 20
59.118500
 40
0.119380
 41
0.119380
 42
0.000000
  0
SEQEND
  0
POLYLINE
  8
SILKSCREEN_TOP
 66
1
 70
0
 40
0.000000
 41
0.000000
 39
0.000000
  0
VERTEX
  8
SILKSCREEN_TOP
 10
109.456220
 20
59.118500
 40
0.119380
 41
0.119380
 42
0.000000
  0
VERTEX
  8
SILKSCREEN_TOP
 10
109.456220
 20
60.769500
 40
0.119380
 41
0.119380
 42
0.000000
  0
VERTEX
  8
SILKSCREEN_TOP
 10
108.554520
 20
60.769500
 40
0.119380
 41
0.119380
 42
0.000000
  0
SEQEND
  0
POLYLINE
  8
TOP
 66
1
 70
1
 40
0.000000
 41
0.000000
 39
0.000000
  0
VERTEX
  8
TOP
 10
71.409560
 20
90.040460
 40
0.000000
 41
0.000000
 42
0.000000
  0
VERTEX
  8
TOP
 10
70.830440
 20
90.040460
 40
0.000000
 41
0.000000
 42
0.000000
  0
VERTEX
  8
TOP
 10
70.830440
 20
90.614500
 40
0.000000
 41
0.000000
 42
0.000000
  0
VERTEX
  8
TOP
 10
71.409560
 20
90.614500
 40
0.000000
 41
0.000000
 42
0.000000
  0
SEQEND
  0
POLYLINE
  8
TOP
 66
1
 70
1
 40
0.000000
 41
0.000000
 39
0.000000
  0
VERTEX
  8
TOP
 10
70.830440
 20
89.791540
 40
0.000000
 41
0.000000
 42
0.000000
  0
VERTEX
  8
TOP
 10
71.409560
 20
89.791540
 40
0.000000
 41
0.000000
 42
0.000000
  0
VERTEX
  8
TOP
 10
71.409560
 20
89.217500
 40
0.000000
 41
0.000000
 42
0.000000
  0
VERTEX
  8
TOP
 10
70.830440
 20
89.217500
 40
0.000000
 41
0.000000
 42
0.000000
  0
SEQEND
  0
POLYLINE
  8
SILKSCREEN_TOP
 66
1
 70
0
 40
0.000000
 41
0.000000
 39
0.000000
  0
VERTEX
  8
SILKSCREEN_TOP
 10
70.650100
 20
89.037160
 40
0.119380
 41
0.119380
 42
0.000000
  0
VERTEX
  8
SILKSCREEN_TOP
 10
71.589900
 20
89.037160
 40
0.119380
 41
0.119380
 42
0.000000
  0
SEQEND
  0
POLYLINE
  8
SILKSCREEN_TOP
 66
1
 70
0
 40
0.000000
 41
0.000000
 39
0.000000
  0
VERTEX
  8
SILKSCREEN_TOP
 10
70.650100
 20
89.037160
 40
0.119380
 41
0.119380
 42
0.000000
  0
VERTEX
  8
SILKSCREEN_TOP
 10
70.650100
 20
90.794840
 40
0.119380
 41
0.119380
 42
0.000000
  0
VERTEX
  8
SILKSCREEN_TOP
 10
71.589900
 20
90.794840
 40
0.119380
 41
0.119380
 42
0.000000
  0
VERTEX
  8
SILKSCREEN_TOP
 10
71.589900
 20
89.037160
 40
0.119380
 41
0.119380
 42
0.000000
  0
SEQEND
  0
POLYLINE
  8
TOP
 66
1
 70
1
 40
0.000000
 41
0.000000
 39
0.000000
  0
VERTEX
  8
TOP
 10
68.869560
 20
90.040460
 40
0.000000
 41
0.000000
 42
0.000000
  0
VERTEX
  8
TOP
 10
68.290440
 20
90.040460
 40
0.000000
 41
0.000000
 42
0.000000
  0
VERTEX
  8
TOP
 10
68.290440
 20
90.614500
 40
0.000000
 41
0.000000
 42
0.000000
  0
VERTEX
  8
TOP
 10
68.869560
 20
90.614500
 40
0.000000
 41
0.000000
 42
0.000000
  0
SEQEND
  0
POLYLINE
  8
TOP
 66
1
 70
1
 40
0.000000
 41
0.000000
 39
0.000000
  0
VERTEX
  8
TOP
 10
68.290440
 20
89.791540
 40
0.000000
 41
0.000000
 42
0.000000
  0
VERTEX
  8
TOP
 10
68.869560
 20
89.791540
 40
0.000000
 41
0.000000
 42
0.000000
  0
VERTEX
  8
TOP
 10
68.869560
 20
89.217500
 40
0.000000
 41
0.000000
 42
0.000000
  0
VERTEX
  8
TOP
 10
68.290440
 20
89.217500
 40
0.000000
 41
0.000000
 42
0.000000
  0
SEQEND
  0
POLYLINE
  8
SILKSCREEN_TOP
 66
1
 70
0
 40
0.000000
 41
0.000000
 39
0.000000
  0
VERTEX
  8
SILKSCREEN_TOP
 10
68.110100
 20
89.037160
 40
0.119380
 41
0.119380
 42
0.000000
  0
VERTEX
  8
SILKSCREEN_TOP
 10
69.049900
 20
89.037160
 40
0.119380
 41
0.119380
 42
0.000000
  0
SEQEND
  0
POLYLINE
  8
SILKSCREEN_TOP
 66
1
 70
0
 40
0.000000
 41
0.000000
 39
0.000000
  0
VERTEX
  8
SILKSCREEN_TOP
 10
68.110100
 20
89.037160
 40
0.119380
 41
0.119380
 42
0.000000
  0
VERTEX
  8
SILKSCREEN_TOP
 10
68.110100
 20
90.794840
 40
0.119380
 41
0.119380
 42
0.000000
  0
VERTEX
  8
SILKSCREEN_TOP
 10
69.049900
 20
90.794840
 40
0.119380
 41
0.119380
 42
0.000000
  0
VERTEX
  8
SILKSCREEN_TOP
 10
69.049900
 20
89.037160
 40
0.119380
 41
0.119380
 42
0.000000
  0
SEQEND
  0
POLYLINE
  8
TOP
 66
1
 70
1
 40
0.000000
 41
0.000000
 39
0.000000
  0
VERTEX
  8
TOP
 10
70.139560
 20
90.040460
 40
0.000000
 41
0.000000
 42
0.000000
  0
VERTEX
  8
TOP
 10
69.560440
 20
90.040460
 40
0.000000
 41
0.000000
 42
0.000000
  0
VERTEX
  8
TOP
 10
69.560440
 20
90.614500
 40
0.000000
 41
0.000000
 42
0.000000
  0
VERTEX
  8
TOP
 10
70.139560
 20
90.614500
 40
0.000000
 41
0.000000
 42
0.000000
  0
SEQEND
  0
POLYLINE
  8
TOP
 66
1
 70
1
 40
0.000000
 41
0.000000
 39
0.000000
  0
VERTEX
  8
TOP
 10
69.560440
 20
89.791540
 40
0.000000
 41
0.000000
 42
0.000000
  0
VERTEX
  8
TOP
 10
70.139560
 20
89.791540
 40
0.000000
 41
0.000000
 42
0.000000
  0
VERTEX
  8
TOP
 10
70.139560
 20
89.217500
 40
0.000000
 41
0.000000
 42
0.000000
  0
VERTEX
  8
TOP
 10
69.560440
 20
89.217500
 40
0.000000
 41
0.000000
 42
0.000000
  0
SEQEND
  0
POLYLINE
  8
SILKSCREEN_TOP
 66
1
 70
0
 40
0.000000
 41
0.000000
 39
0.000000
  0
VERTEX
  8
SILKSCREEN_TOP
 10
69.380100
 20
89.037160
 40
0.119380
 41
0.119380
 42
0.000000
  0
VERTEX
  8
SILKSCREEN_TOP
 10
70.319900
 20
89.037160
 40
0.119380
 41
0.119380
 42
0.000000
  0
SEQEND
  0
POLYLINE
  8
SILKSCREEN_TOP
 66
1
 70
0
 40
0.000000
 41
0.000000
 39
0.000000
  0
VERTEX
  8
SILKSCREEN_TOP
 10
69.380100
 20
89.037160
 40
0.119380
 41
0.119380
 42
0.000000
  0
VERTEX
  8
SILKSCREEN_TOP
 10
69.380100
 20
90.794840
 40
0.119380
 41
0.119380
 42
0.000000
  0
VERTEX
  8
SILKSCREEN_TOP
 10
70.319900
 20
90.794840
 40
0.119380
 41
0.119380
 42
0.000000
  0
VERTEX
  8
SILKSCREEN_TOP
 10
70.319900
 20
89.037160
 40
0.119380
 41
0.119380
 42
0.000000
  0
SEQEND
  0
POLYLINE
  8
TOP
 66
1
 70
1
 40
0.000000
 41
0.000000
 39
0.000000
  0
VERTEX
  8
TOP
 10
104.523540
 20
63.789560
 40
0.000000
 41
0.000000
 42
0.000000
  0
VERTEX
  8
TOP
 10
104.523540
 20
63.210440
 40
0.000000
 41
0.000000
 42
0.000000
  0
VERTEX
  8
TOP
 10
103.949500
 20
63.210440
 40
0.000000
 41
0.000000
 42
0.000000
  0
VERTEX
  8
TOP
 10
103.949500
 20
63.789560
 40
0.000000
 41
0.000000
 42
0.000000
  0
SEQEND
  0
POLYLINE
  8
TOP
 66
1
 70
1
 40
0.000000
 41
0.000000
 39
0.000000
  0
VERTEX
  8
TOP
 10
104.772460
 20
63.210440
 40
0.000000
 41
0.000000
 42
0.000000
  0
VERTEX
  8
TOP
 10
104.772460
 20
63.789560
 40
0.000000
 41
0.000000
 42
0.000000
  0
VERTEX
  8
TOP
 10
105.346500
 20
63.789560
 40
0.000000
 41
0.000000
 42
0.000000
  0
VERTEX
  8
TOP
 10
105.346500
 20
63.210440
 40
0.000000
 41
0.000000
 42
0.000000
  0
SEQEND
  0
POLYLINE
  8
SILKSCREEN_TOP
 66
1
 70
0
 40
0.000000
 41
0.000000
 39
0.000000
  0
VERTEX
  8
SILKSCREEN_TOP
 10
105.526840
 20
63.030100
 40
0.119380
 41
0.119380
 42
0.000000
  0
VERTEX
  8
SILKSCREEN_TOP
 10
105.526840
 20
63.969900
 40
0.119380
 41
0.119380
 42
0.000000
  0
SEQEND
  0
POLYLINE
  8
SILKSCREEN_TOP
 66
1
 70
0
 40
0.000000
 41
0.000000
 39
0.000000
  0
VERTEX
  8
SILKSCREEN_TOP
 10
105.526840
 20
63.030100
 40
0.119380
 41
0.119380
 42
0.000000
  0
VERTEX
  8
SILKSCREEN_TOP
 10
103.769160
 20
63.030100
 40
0.119380
 41
0.119380
 42
0.000000
  0
VERTEX
  8
SILKSCREEN_TOP
 10
103.769160
 20
63.969900
 40
0.119380
 41
0.119380
 42
0.000000
  0
VERTEX
  8
SILKSCREEN_TOP
 10
105.526840
 20
63.969900
 40
0.119380
 41
0.119380
 42
0.000000
  0
SEQEND
  0
POLYLINE
  8
TOP
 66
1
 70
1
 40
0.000000
 41
0.000000
 39
0.000000
  0
VERTEX
  8
TOP
 10
134.655560
 20
80.642460
 40
0.000000
 41
0.000000
 42
0.000000
  0
VERTEX
  8
TOP
 10
134.076440
 20
80.642460
 40
0.000000
 41
0.000000
 42
0.000000
  0
VERTEX
  8
TOP
 10
134.076440
 20
81.216500
 40
0.000000
 41
0.000000
 42
0.000000
  0
VERTEX
  8
TOP
 10
134.655560
 20
81.216500
 40
0.000000
 41
0.000000
 42
0.000000
  0
SEQEND
  0
POLYLINE
  8
TOP
 66
1
 70
1
 40
0.000000
 41
0.000000
 39
0.000000
  0
VERTEX
  8
TOP
 10
134.076440
 20
80.393540
 40
0.000000
 41
0.000000
 42
0.000000
  0
VERTEX
  8
TOP
 10
134.655560
 20
80.393540
 40
0.000000
 41
0.000000
 42
0.000000
  0
VERTEX
  8
TOP
 10
134.655560
 20
79.819500
 40
0.000000
 41
0.000000
 42
0.000000
  0
VERTEX
  8
TOP
 10
134.076440
 20
79.819500
 40
0.000000
 41
0.000000
 42
0.000000
  0
SEQEND
  0
POLYLINE
  8
SILKSCREEN_TOP
 66
1
 70
0
 40
0.000000
 41
0.000000
 39
0.000000
  0
VERTEX
  8
SILKSCREEN_TOP
 10
133.896100
 20
79.639160
 40
0.119380
 41
0.119380
 42
0.000000
  0
VERTEX
  8
SILKSCREEN_TOP
 10
134.835900
 20
79.639160
 40
0.119380
 41
0.119380
 42
0.000000
  0
SEQEND
  0
POLYLINE
  8
SILKSCREEN_TOP
 66
1
 70
0
 40
0.000000
 41
0.000000
 39
0.000000
  0
VERTEX
  8
SILKSCREEN_TOP
 10
133.896100
 20
79.639160
 40
0.119380
 41
0.119380
 42
0.000000
  0
VERTEX
  8
SILKSCREEN_TOP
 10
133.896100
 20
81.396840
 40
0.119380
 41
0.119380
 42
0.000000
  0
VERTEX
  8
SILKSCREEN_TOP
 10
134.835900
 20
81.396840
 40
0.119380
 41
0.119380
 42
0.000000
  0
VERTEX
  8
SILKSCREEN_TOP
 10
134.835900
 20
79.639160
 40
0.119380
 41
0.119380
 42
0.000000
  0
SEQEND
  0
POLYLINE
  8
TOP
 66
1
 70
1
 40
0.000000
 41
0.000000
 39
0.000000
  0
VERTEX
  8
TOP
 10
97.411540
 20
63.281560
 40
0.000000
 41
0.000000
 42
0.000000
  0
VERTEX
  8
TOP
 10
97.411540
 20
62.702440
 40
0.000000
 41
0.000000
 42
0.000000
  0
VERTEX
  8
TOP
 10
96.837500
 20
62.702440
 40
0.000000
 41
0.000000
 42
0.000000
  0
VERTEX
  8
TOP
 10
96.837500
 20
63.281560
 40
0.000000
 41
0.000000
 42
0.000000
  0
SEQEND
  0
POLYLINE
  8
TOP
 66
1
 70
1
 40
0.000000
 41
0.000000
 39
0.000000
  0
VERTEX
  8
TOP
 10
97.660460
 20
62.702440
 40
0.000000
 41
0.000000
 42
0.000000
  0
VERTEX
  8
TOP
 10
97.660460
 20
63.281560
 40
0.000000
 41
0.000000
 42
0.000000
  0
VERTEX
  8
TOP
 10
98.234500
 20
63.281560
 40
0.000000
 41
0.000000
 42
0.000000
  0
VERTEX
  8
TOP
 10
98.234500
 20
62.702440
 40
0.000000
 41
0.000000
 42
0.000000
  0
SEQEND
  0
POLYLINE
  8
SILKSCREEN_TOP
 66
1
 70
0
 40
0.000000
 41
0.000000
 39
0.000000
  0
VERTEX
  8
SILKSCREEN_TOP
 10
98.414840
 20
62.522100
 40
0.119380
 41
0.119380
 42
0.000000
  0
VERTEX
  8
SILKSCREEN_TOP
 10
98.414840
 20
63.461900
 40
0.119380
 41
0.119380
 42
0.000000
  0
SEQEND
  0
POLYLINE
  8
SILKSCREEN_TOP
 66
1
 70
0
 40
0.000000
 41
0.000000
 39
0.000000
  0
VERTEX
  8
SILKSCREEN_TOP
 10
98.414840
 20
62.522100
 40
0.119380
 41
0.119380
 42
0.000000
  0
VERTEX
  8
SILKSCREEN_TOP
 10
96.657160
 20
62.522100
 40
0.119380
 41
0.119380
 42
0.000000
  0
VERTEX
  8
SILKSCREEN_TOP
 10
96.657160
 20
63.461900
 40
0.119380
 41
0.119380
 42
0.000000
  0
VERTEX
  8
SILKSCREEN_TOP
 10
98.414840
 20
63.461900
 40
0.119380
 41
0.119380
 42
0.000000
  0
SEQEND
  0
POLYLINE
  8
TOP
 66
1
 70
1
 40
0.000000
 41
0.000000
 39
0.000000
  0
VERTEX
  8
TOP
 10
144.236440
 20
57.025540
 40
0.000000
 41
0.000000
 42
0.000000
  0
VERTEX
  8
TOP
 10
144.815560
 20
57.025540
 40
0.000000
 41
0.000000
 42
0.000000
  0
VERTEX
  8
TOP
 10
144.815560
 20
56.451500
 40
0.000000
 41
0.000000
 42
0.000000
  0
VERTEX
  8
TOP
 10
144.236440
 20
56.451500
 40
0.000000
 41
0.000000
 42
0.000000
  0
SEQEND
  0
POLYLINE
  8
TOP
 66
1
 70
1
 40
0.000000
 41
0.000000
 39
0.000000
  0
VERTEX
  8
TOP
 10
144.815560
 20
57.274460
 40
0.000000
 41
0.000000
 42
0.000000
  0
VERTEX
  8
TOP
 10
144.236440
 20
57.274460
 40
0.000000
 41
0.000000
 42
0.000000
  0
VERTEX
  8
TOP
 10
144.236440
 20
57.848500
 40
0.000000
 41
0.000000
 42
0.000000
  0
VERTEX
  8
TOP
 10
144.815560
 20
57.848500
 40
0.000000
 41
0.000000
 42
0.000000
  0
SEQEND
  0
POLYLINE
  8
SILKSCREEN_TOP
 66
1
 70
0
 40
0.000000
 41
0.000000
 39
0.000000
  0
VERTEX
  8
SILKSCREEN_TOP
 10
144.995900
 20
58.028840
 40
0.119380
 41
0.119380
 42
0.000000
  0
VERTEX
  8
SILKSCREEN_TOP
 10
144.056100
 20
58.028840
 40
0.119380
 41
0.119380
 42
0.000000
  0
SEQEND
  0
POLYLINE
  8
SILKSCREEN_TOP
 66
1
 70
0
 40
0.000000
 41
0.000000
 39
0.000000
  0
VERTEX
  8
SILKSCREEN_TOP
 10
144.995900
 20
58.028840
 40
0.119380
 41
0.119380
 42
0.000000
  0
VERTEX
  8
SILKSCREEN_TOP
 10
144.995900
 20
56.271160
 40
0.119380
 41
0.119380
 42
0.000000
  0
VERTEX
  8
SILKSCREEN_TOP
 10
144.056100
 20
56.271160
 40
0.119380
 41
0.119380
 42
0.000000
  0
VERTEX
  8
SILKSCREEN_TOP
 10
144.056100
 20
58.028840
 40
0.119380
 41
0.119380
 42
0.000000
  0
SEQEND
  0
POLYLINE
  8
TOP
 66
1
 70
1
 40
0.000000
 41
0.000000
 39
0.000000
  0
VERTEX
  8
TOP
 10
75.473560
 20
90.040460
 40
0.000000
 41
0.000000
 42
0.000000
  0
VERTEX
  8
TOP
 10
74.894440
 20
90.040460
 40
0.000000
 41
0.000000
 42
0.000000
  0
VERTEX
  8
TOP
 10
74.894440
 20
90.614500
 40
0.000000
 41
0.000000
 42
0.000000
  0
VERTEX
  8
TOP
 10
75.473560
 20
90.614500
 40
0.000000
 41
0.000000
 42
0.000000
  0
SEQEND
  0
POLYLINE
  8
TOP
 66
1
 70
1
 40
0.000000
 41
0.000000
 39
0.000000
  0
VERTEX
  8
TOP
 10
74.894440
 20
89.791540
 40
0.000000
 41
0.000000
 42
0.000000
  0
VERTEX
  8
TOP
 10
75.473560
 20
89.791540
 40
0.000000
 41
0.000000
 42
0.000000
  0
VERTEX
  8
TOP
 10
75.473560
 20
89.217500
 40
0.000000
 41
0.000000
 42
0.000000
  0
VERTEX
  8
TOP
 10
74.894440
 20
89.217500
 40
0.000000
 41
0.000000
 42
0.000000
  0
SEQEND
  0
POLYLINE
  8
SILKSCREEN_TOP
 66
1
 70
0
 40
0.000000
 41
0.000000
 39
0.000000
  0
VERTEX
  8
SILKSCREEN_TOP
 10
74.714100
 20
89.037160
 40
0.119380
 41
0.119380
 42
0.000000
  0
VERTEX
  8
SILKSCREEN_TOP
 10
75.653900
 20
89.037160
 40
0.119380
 41
0.119380
 42
0.000000
  0
SEQEND
  0
POLYLINE
  8
SILKSCREEN_TOP
 66
1
 70
0
 40
0.000000
 41
0.000000
 39
0.000000
  0
VERTEX
  8
SILKSCREEN_TOP
 10
74.714100
 20
89.037160
 40
0.119380
 41
0.119380
 42
0.000000
  0
VERTEX
  8
SILKSCREEN_TOP
 10
74.714100
 20
90.794840
 40
0.119380
 41
0.119380
 42
0.000000
  0
VERTEX
  8
SILKSCREEN_TOP
 10
75.653900
 20
90.794840
 40
0.119380
 41
0.119380
 42
0.000000
  0
VERTEX
  8
SILKSCREEN_TOP
 10
75.653900
 20
89.037160
 40
0.119380
 41
0.119380
 42
0.000000
  0
SEQEND
  0
POLYLINE
  8
TOP
 66
1
 70
1
 40
0.000000
 41
0.000000
 39
0.000000
  0
VERTEX
  8
TOP
 10
116.804440
 20
80.393540
 40
0.000000
 41
0.000000
 42
0.000000
  0
VERTEX
  8
TOP
 10
117.383560
 20
80.393540
 40
0.000000
 41
0.000000
 42
0.000000
  0
VERTEX
  8
TOP
 10
117.383560
 20
79.819500
 40
0.000000
 41
0.000000
 42
0.000000
  0
VERTEX
  8
TOP
 10
116.804440
 20
79.819500
 40
0.000000
 41
0.000000
 42
0.000000
  0
SEQEND
  0
POLYLINE
  8
TOP
 66
1
 70
1
 40
0.000000
 41
0.000000
 39
0.000000
  0
VERTEX
  8
TOP
 10
117.383560
 20
80.642460
 40
0.000000
 41
0.000000
 42
0.000000
  0
VERTEX
  8
TOP
 10
116.804440
 20
80.642460
 40
0.000000
 41
0.000000
 42
0.000000
  0
VERTEX
  8
TOP
 10
116.804440
 20
81.216500
 40
0.000000
 41
0.000000
 42
0.000000
  0
VERTEX
  8
TOP
 10
117.383560
 20
81.216500
 40
0.000000
 41
0.000000
 42
0.000000
  0
SEQEND
  0
POLYLINE
  8
SILKSCREEN_TOP
 66
1
 70
0
 40
0.000000
 41
0.000000
 39
0.000000
  0
VERTEX
  8
SILKSCREEN_TOP
 10
117.563900
 20
81.396840
 40
0.119380
 41
0.119380
 42
0.000000
  0
VERTEX
  8
SILKSCREEN_TOP
 10
116.624100
 20
81.396840
 40
0.119380
 41
0.119380
 42
0.000000
  0
SEQEND
  0
POLYLINE
  8
SILKSCREEN_TOP
 66
1
 70
0
 40
0.000000
 41
0.000000
 39
0.000000
  0
VERTEX
  8
SILKSCREEN_TOP
 10
117.563900
 20
81.396840
 40
0.119380
 41
0.119380
 42
0.000000
  0
VERTEX
  8
SILKSCREEN_TOP
 10
117.563900
 20
79.639160
 40
0.119380
 41
0.119380
 42
0.000000
  0
VERTEX
  8
SILKSCREEN_TOP
 10
116.624100
 20
79.639160
 40
0.119380
 41
0.119380
 42
0.000000
  0
VERTEX
  8
SILKSCREEN_TOP
 10
116.624100
 20
81.396840
 40
0.119380
 41
0.119380
 42
0.000000
  0
SEQEND
  0
POLYLINE
  8
TOP
 66
1
 70
1
 40
0.000000
 41
0.000000
 39
0.000000
  0
VERTEX
  8
TOP
 10
117.820440
 20
80.393540
 40
0.000000
 41
0.000000
 42
0.000000
  0
VERTEX
  8
TOP
 10
118.399560
 20
80.393540
 40
0.000000
 41
0.000000
 42
0.000000
  0
VERTEX
  8
TOP
 10
118.399560
 20
79.819500
 40
0.000000
 41
0.000000
 42
0.000000
  0
VERTEX
  8
TOP
 10
117.820440
 20
79.819500
 40
0.000000
 41
0.000000
 42
0.000000
  0
SEQEND
  0
POLYLINE
  8
TOP
 66
1
 70
1
 40
0.000000
 41
0.000000
 39
0.000000
  0
VERTEX
  8
TOP
 10
118.399560
 20
80.642460
 40
0.000000
 41
0.000000
 42
0.000000
  0
VERTEX
  8
TOP
 10
117.820440
 20
80.642460
 40
0.000000
 41
0.000000
 42
0.000000
  0
VERTEX
  8
TOP
 10
117.820440
 20
81.216500
 40
0.000000
 41
0.000000
 42
0.000000
  0
VERTEX
  8
TOP
 10
118.399560
 20
81.216500
 40
0.000000
 41
0.000000
 42
0.000000
  0
SEQEND
  0
POLYLINE
  8
SILKSCREEN_TOP
 66
1
 70
0
 40
0.000000
 41
0.000000
 39
0.000000
  0
VERTEX
  8
SILKSCREEN_TOP
 10
118.579900
 20
81.396840
 40
0.119380
 41
0.119380
 42
0.000000
  0
VERTEX
  8
SILKSCREEN_TOP
 10
117.640100
 20
81.396840
 40
0.119380
 41
0.119380
 42
0.000000
  0
SEQEND
  0
POLYLINE
  8
SILKSCREEN_TOP
 66
1
 70
0
 40
0.000000
 41
0.000000
 39
0.000000
  0
VERTEX
  8
SILKSCREEN_TOP
 10
118.579900
 20
81.396840
 40
0.119380
 41
0.119380
 42
0.000000
  0
VERTEX
  8
SILKSCREEN_TOP
 10
118.579900
 20
79.639160
 40
0.119380
 41
0.119380
 42
0.000000
  0
VERTEX
  8
SILKSCREEN_TOP
 10
117.640100
 20
79.639160
 40
0.119380
 41
0.119380
 42
0.000000
  0
VERTEX
  8
SILKSCREEN_TOP
 10
117.640100
 20
81.396840
 40
0.119380
 41
0.119380
 42
0.000000
  0
SEQEND
  0
POLYLINE
  8
TOP
 66
1
 70
1
 40
0.000000
 41
0.000000
 39
0.000000
  0
VERTEX
  8
TOP
 10
120.431560
 20
80.642460
 40
0.000000
 41
0.000000
 42
0.000000
  0
VERTEX
  8
TOP
 10
119.852440
 20
80.642460
 40
0.000000
 41
0.000000
 42
0.000000
  0
VERTEX
  8
TOP
 10
119.852440
 20
81.216500
 40
0.000000
 41
0.000000
 42
0.000000
  0
VERTEX
  8
TOP
 10
120.431560
 20
81.216500
 40
0.000000
 41
0.000000
 42
0.000000
  0
SEQEND
  0
POLYLINE
  8
TOP
 66
1
 70
1
 40
0.000000
 41
0.000000
 39
0.000000
  0
VERTEX
  8
TOP
 10
119.852440
 20
80.393540
 40
0.000000
 41
0.000000
 42
0.000000
  0
VERTEX
  8
TOP
 10
120.431560
 20
80.393540
 40
0.000000
 41
0.000000
 42
0.000000
  0
VERTEX
  8
TOP
 10
120.431560
 20
79.819500
 40
0.000000
 41
0.000000
 42
0.000000
  0
VERTEX
  8
TOP
 10
119.852440
 20
79.819500
 40
0.000000
 41
0.000000
 42
0.000000
  0
SEQEND
  0
POLYLINE
  8
SILKSCREEN_TOP
 66
1
 70
0
 40
0.000000
 41
0.000000
 39
0.000000
  0
VERTEX
  8
SILKSCREEN_TOP
 10
119.672100
 20
79.639160
 40
0.119380
 41
0.119380
 42
0.000000
  0
VERTEX
  8
SILKSCREEN_TOP
 10
120.611900
 20
79.639160
 40
0.119380
 41
0.119380
 42
0.000000
  0
SEQEND
  0
POLYLINE
  8
SILKSCREEN_TOP
 66
1
 70
0
 40
0.000000
 41
0.000000
 39
0.000000
  0
VERTEX
  8
SILKSCREEN_TOP
 10
119.672100
 20
79.639160
 40
0.119380
 41
0.119380
 42
0.000000
  0
VERTEX
  8
SILKSCREEN_TOP
 10
119.672100
 20
81.396840
 40
0.119380
 41
0.119380
 42
0.000000
  0
VERTEX
  8
SILKSCREEN_TOP
 10
120.611900
 20
81.396840
 40
0.119380
 41
0.119380
 42
0.000000
  0
VERTEX
  8
SILKSCREEN_TOP
 10
120.611900
 20
79.639160
 40
0.119380
 41
0.119380
 42
0.000000
  0
SEQEND
  0
POLYLINE
  8
TOP
 66
1
 70
1
 40
0.000000
 41
0.000000
 39
0.000000
  0
VERTEX
  8
TOP
 10
132.496560
 20
80.642460
 40
0.000000
 41
0.000000
 42
0.000000
  0
VERTEX
  8
TOP
 10
131.917440
 20
80.642460
 40
0.000000
 41
0.000000
 42
0.000000
  0
VERTEX
  8
TOP
 10
131.917440
 20
81.216500
 40
0.000000
 41
0.000000
 42
0.000000
  0
VERTEX
  8
TOP
 10
132.496560
 20
81.216500
 40
0.000000
 41
0.000000
 42
0.000000
  0
SEQEND
  0
POLYLINE
  8
TOP
 66
1
 70
1
 40
0.000000
 41
0.000000
 39
0.000000
  0
VERTEX
  8
TOP
 10
131.917440
 20
80.393540
 40
0.000000
 41
0.000000
 42
0.000000
  0
VERTEX
  8
TOP
 10
132.496560
 20
80.393540
 40
0.000000
 41
0.000000
 42
0.000000
  0
VERTEX
  8
TOP
 10
132.496560
 20
79.819500
 40
0.000000
 41
0.000000
 42
0.000000
  0
VERTEX
  8
TOP
 10
131.917440
 20
79.819500
 40
0.000000
 41
0.000000
 42
0.000000
  0
SEQEND
  0
POLYLINE
  8
SILKSCREEN_TOP
 66
1
 70
0
 40
0.000000
 41
0.000000
 39
0.000000
  0
VERTEX
  8
SILKSCREEN_TOP
 10
131.737100
 20
79.639160
 40
0.119380
 41
0.119380
 42
0.000000
  0
VERTEX
  8
SILKSCREEN_TOP
 10
132.676900
 20
79.639160
 40
0.119380
 41
0.119380
 42
0.000000
  0
SEQEND
  0
POLYLINE
  8
SILKSCREEN_TOP
 66
1
 70
0
 40
0.000000
 41
0.000000
 39
0.000000
  0
VERTEX
  8
SILKSCREEN_TOP
 10
131.737100
 20
79.639160
 40
0.119380
 41
0.119380
 42
0.000000
  0
VERTEX
  8
SILKSCREEN_TOP
 10
131.737100
 20
81.396840
 40
0.119380
 41
0.119380
 42
0.000000
  0
VERTEX
  8
SILKSCREEN_TOP
 10
132.676900
 20
81.396840
 40
0.119380
 41
0.119380
 42
0.000000
  0
VERTEX
  8
SILKSCREEN_TOP
 10
132.676900
 20
79.639160
 40
0.119380
 41
0.119380
 42
0.000000
  0
SEQEND
  0
POLYLINE
  8
TOP
 66
1
 70
1
 40
0.000000
 41
0.000000
 39
0.000000
  0
VERTEX
  8
TOP
 10
119.415560
 20
80.642460
 40
0.000000
 41
0.000000
 42
0.000000
  0
VERTEX
  8
TOP
 10
118.836440
 20
80.642460
 40
0.000000
 41
0.000000
 42
0.000000
  0
VERTEX
  8
TOP
 10
118.836440
 20
81.216500
 40
0.000000
 41
0.000000
 42
0.000000
  0
VERTEX
  8
TOP
 10
119.415560
 20
81.216500
 40
0.000000
 41
0.000000
 42
0.000000
  0
SEQEND
  0
POLYLINE
  8
TOP
 66
1
 70
1
 40
0.000000
 41
0.000000
 39
0.000000
  0
VERTEX
  8
TOP
 10
118.836440
 20
80.393540
 40
0.000000
 41
0.000000
 42
0.000000
  0
VERTEX
  8
TOP
 10
119.415560
 20
80.393540
 40
0.000000
 41
0.000000
 42
0.000000
  0
VERTEX
  8
TOP
 10
119.415560
 20
79.819500
 40
0.000000
 41
0.000000
 42
0.000000
  0
VERTEX
  8
TOP
 10
118.836440
 20
79.819500
 40
0.000000
 41
0.000000
 42
0.000000
  0
SEQEND
  0
POLYLINE
  8
SILKSCREEN_TOP
 66
1
 70
0
 40
0.000000
 41
0.000000
 39
0.000000
  0
VERTEX
  8
SILKSCREEN_TOP
 10
118.656100
 20
79.639160
 40
0.119380
 41
0.119380
 42
0.000000
  0
VERTEX
  8
SILKSCREEN_TOP
 10
119.595900
 20
79.639160
 40
0.119380
 41
0.119380
 42
0.000000
  0
SEQEND
  0
POLYLINE
  8
SILKSCREEN_TOP
 66
1
 70
0
 40
0.000000
 41
0.000000
 39
0.000000
  0
VERTEX
  8
SILKSCREEN_TOP
 10
118.656100
 20
79.639160
 40
0.119380
 41
0.119380
 42
0.000000
  0
VERTEX
  8
SILKSCREEN_TOP
 10
118.656100
 20
81.396840
 40
0.119380
 41
0.119380
 42
0.000000
  0
VERTEX
  8
SILKSCREEN_TOP
 10
119.595900
 20
81.396840
 40
0.119380
 41
0.119380
 42
0.000000
  0
VERTEX
  8
SILKSCREEN_TOP
 10
119.595900
 20
79.639160
 40
0.119380
 41
0.119380
 42
0.000000
  0
SEQEND
  0
POLYLINE
  8
TOP
 66
1
 70
1
 40
0.000000
 41
0.000000
 39
0.000000
  0
VERTEX
  8
TOP
 10
120.868440
 20
80.393540
 40
0.000000
 41
0.000000
 42
0.000000
  0
VERTEX
  8
TOP
 10
121.447560
 20
80.393540
 40
0.000000
 41
0.000000
 42
0.000000
  0
VERTEX
  8
TOP
 10
121.447560
 20
79.819500
 40
0.000000
 41
0.000000
 42
0.000000
  0
VERTEX
  8
TOP
 10
120.868440
 20
79.819500
 40
0.000000
 41
0.000000
 42
0.000000
  0
SEQEND
  0
POLYLINE
  8
TOP
 66
1
 70
1
 40
0.000000
 41
0.000000
 39
0.000000
  0
VERTEX
  8
TOP
 10
121.447560
 20
80.642460
 40
0.000000
 41
0.000000
 42
0.000000
  0
VERTEX
  8
TOP
 10
120.868440
 20
80.642460
 40
0.000000
 41
0.000000
 42
0.000000
  0
VERTEX
  8
TOP
 10
120.868440
 20
81.216500
 40
0.000000
 41
0.000000
 42
0.000000
  0
VERTEX
  8
TOP
 10
121.447560
 20
81.216500
 40
0.000000
 41
0.000000
 42
0.000000
  0
SEQEND
  0
POLYLINE
  8
SILKSCREEN_TOP
 66
1
 70
0
 40
0.000000
 41
0.000000
 39
0.000000
  0
VERTEX
  8
SILKSCREEN_TOP
 10
121.627900
 20
81.396840
 40
0.119380
 41
0.119380
 42
0.000000
  0
VERTEX
  8
SILKSCREEN_TOP
 10
120.688100
 20
81.396840
 40
0.119380
 41
0.119380
 42
0.000000
  0
SEQEND
  0
POLYLINE
  8
SILKSCREEN_TOP
 66
1
 70
0
 40
0.000000
 41
0.000000
 39
0.000000
  0
VERTEX
  8
SILKSCREEN_TOP
 10
121.627900
 20
81.396840
 40
0.119380
 41
0.119380
 42
0.000000
  0
VERTEX
  8
SILKSCREEN_TOP
 10
121.627900
 20
79.639160
 40
0.119380
 41
0.119380
 42
0.000000
  0
VERTEX
  8
SILKSCREEN_TOP
 10
120.688100
 20
79.639160
 40
0.119380
 41
0.119380
 42
0.000000
  0
VERTEX
  8
SILKSCREEN_TOP
 10
120.688100
 20
81.396840
 40
0.119380
 41
0.119380
 42
0.000000
  0
SEQEND
  0
POLYLINE
  8
TOP
 66
1
 70
1
 40
0.000000
 41
0.000000
 39
0.000000
  0
VERTEX
  8
TOP
 10
130.901440
 20
80.393540
 40
0.000000
 41
0.000000
 42
0.000000
  0
VERTEX
  8
TOP
 10
131.480560
 20
80.393540
 40
0.000000
 41
0.000000
 42
0.000000
  0
VERTEX
  8
TOP
 10
131.480560
 20
79.819500
 40
0.000000
 41
0.000000
 42
0.000000
  0
VERTEX
  8
TOP
 10
130.901440
 20
79.819500
 40
0.000000
 41
0.000000
 42
0.000000
  0
SEQEND
  0
POLYLINE
  8
TOP
 66
1
 70
1
 40
0.000000
 41
0.000000
 39
0.000000
  0
VERTEX
  8
TOP
 10
131.480560
 20
80.642460
 40
0.000000
 41
0.000000
 42
0.000000
  0
VERTEX
  8
TOP
 10
130.901440
 20
80.642460
 40
0.000000
 41
0.000000
 42
0.000000
  0
VERTEX
  8
TOP
 10
130.901440
 20
81.216500
 40
0.000000
 41
0.000000
 42
0.000000
  0
VERTEX
  8
TOP
 10
131.480560
 20
81.216500
 40
0.000000
 41
0.000000
 42
0.000000
  0
SEQEND
  0
POLYLINE
  8
SILKSCREEN_TOP
 66
1
 70
0
 40
0.000000
 41
0.000000
 39
0.000000
  0
VERTEX
  8
SILKSCREEN_TOP
 10
131.660900
 20
81.396840
 40
0.119380
 41
0.119380
 42
0.000000
  0
VERTEX
  8
SILKSCREEN_TOP
 10
130.721100
 20
81.396840
 40
0.119380
 41
0.119380
 42
0.000000
  0
SEQEND
  0
POLYLINE
  8
SILKSCREEN_TOP
 66
1
 70
0
 40
0.000000
 41
0.000000
 39
0.000000
  0
VERTEX
  8
SILKSCREEN_TOP
 10
131.660900
 20
81.396840
 40
0.119380
 41
0.119380
 42
0.000000
  0
VERTEX
  8
SILKSCREEN_TOP
 10
131.660900
 20
79.639160
 40
0.119380
 41
0.119380
 42
0.000000
  0
VERTEX
  8
SILKSCREEN_TOP
 10
130.721100
 20
79.639160
 40
0.119380
 41
0.119380
 42
0.000000
  0
VERTEX
  8
SILKSCREEN_TOP
 10
130.721100
 20
81.396840
 40
0.119380
 41
0.119380
 42
0.000000
  0
SEQEND
  0
POLYLINE
  8
TOP
 66
1
 70
1
 40
0.000000
 41
0.000000
 39
0.000000
  0
VERTEX
  8
TOP
 10
143.220440
 20
57.025540
 40
0.000000
 41
0.000000
 42
0.000000
  0
VERTEX
  8
TOP
 10
143.799560
 20
57.025540
 40
0.000000
 41
0.000000
 42
0.000000
  0
VERTEX
  8
TOP
 10
143.799560
 20
56.451500
 40
0.000000
 41
0.000000
 42
0.000000
  0
VERTEX
  8
TOP
 10
143.220440
 20
56.451500
 40
0.000000
 41
0.000000
 42
0.000000
  0
SEQEND
  0
POLYLINE
  8
TOP
 66
1
 70
1
 40
0.000000
 41
0.000000
 39
0.000000
  0
VERTEX
  8
TOP
 10
143.799560
 20
57.274460
 40
0.000000
 41
0.000000
 42
0.000000
  0
VERTEX
  8
TOP
 10
143.220440
 20
57.274460
 40
0.000000
 41
0.000000
 42
0.000000
  0
VERTEX
  8
TOP
 10
143.220440
 20
57.848500
 40
0.000000
 41
0.000000
 42
0.000000
  0
VERTEX
  8
TOP
 10
143.799560
 20
57.848500
 40
0.000000
 41
0.000000
 42
0.000000
  0
SEQEND
  0
POLYLINE
  8
SILKSCREEN_TOP
 66
1
 70
0
 40
0.000000
 41
0.000000
 39
0.000000
  0
VERTEX
  8
SILKSCREEN_TOP
 10
143.979900
 20
58.028840
 40
0.119380
 41
0.119380
 42
0.000000
  0
VERTEX
  8
SILKSCREEN_TOP
 10
143.040100
 20
58.028840
 40
0.119380
 41
0.119380
 42
0.000000
  0
SEQEND
  0
POLYLINE
  8
SILKSCREEN_TOP
 66
1
 70
0
 40
0.000000
 41
0.000000
 39
0.000000
  0
VERTEX
  8
SILKSCREEN_TOP
 10
143.979900
 20
58.028840
 40
0.119380
 41
0.119380
 42
0.000000
  0
VERTEX
  8
SILKSCREEN_TOP
 10
143.979900
 20
56.271160
 40
0.119380
 41
0.119380
 42
0.000000
  0
VERTEX
  8
SILKSCREEN_TOP
 10
143.040100
 20
56.271160
 40
0.119380
 41
0.119380
 42
0.000000
  0
VERTEX
  8
SILKSCREEN_TOP
 10
143.040100
 20
58.028840
 40
0.119380
 41
0.119380
 42
0.000000
  0
SEQEND
  0
POLYLINE
  8
TOP
 66
1
 70
1
 40
0.000000
 41
0.000000
 39
0.000000
  0
VERTEX
  8
TOP
 10
116.367560
 20
80.642460
 40
0.000000
 41
0.000000
 42
0.000000
  0
VERTEX
  8
TOP
 10
115.788440
 20
80.642460
 40
0.000000
 41
0.000000
 42
0.000000
  0
VERTEX
  8
TOP
 10
115.788440
 20
81.216500
 40
0.000000
 41
0.000000
 42
0.000000
  0
VERTEX
  8
TOP
 10
116.367560
 20
81.216500
 40
0.000000
 41
0.000000
 42
0.000000
  0
SEQEND
  0
POLYLINE
  8
TOP
 66
1
 70
1
 40
0.000000
 41
0.000000
 39
0.000000
  0
VERTEX
  8
TOP
 10
115.788440
 20
80.393540
 40
0.000000
 41
0.000000
 42
0.000000
  0
VERTEX
  8
TOP
 10
116.367560
 20
80.393540
 40
0.000000
 41
0.000000
 42
0.000000
  0
VERTEX
  8
TOP
 10
116.367560
 20
79.819500
 40
0.000000
 41
0.000000
 42
0.000000
  0
VERTEX
  8
TOP
 10
115.788440
 20
79.819500
 40
0.000000
 41
0.000000
 42
0.000000
  0
SEQEND
  0
POLYLINE
  8
SILKSCREEN_TOP
 66
1
 70
0
 40
0.000000
 41
0.000000
 39
0.000000
  0
VERTEX
  8
SILKSCREEN_TOP
 10
115.608100
 20
79.639160
 40
0.119380
 41
0.119380
 42
0.000000
  0
VERTEX
  8
SILKSCREEN_TOP
 10
116.547900
 20
79.639160
 40
0.119380
 41
0.119380
 42
0.000000
  0
SEQEND
  0
POLYLINE
  8
SILKSCREEN_TOP
 66
1
 70
0
 40
0.000000
 41
0.000000
 39
0.000000
  0
VERTEX
  8
SILKSCREEN_TOP
 10
115.608100
 20
79.639160
 40
0.119380
 41
0.119380
 42
0.000000
  0
VERTEX
  8
SILKSCREEN_TOP
 10
115.608100
 20
81.396840
 40
0.119380
 41
0.119380
 42
0.000000
  0
VERTEX
  8
SILKSCREEN_TOP
 10
116.547900
 20
81.396840
 40
0.119380
 41
0.119380
 42
0.000000
  0
VERTEX
  8
SILKSCREEN_TOP
 10
116.547900
 20
79.639160
 40
0.119380
 41
0.119380
 42
0.000000
  0
SEQEND
  0
POLYLINE
  8
TOP
 66
1
 70
1
 40
0.000000
 41
0.000000
 39
0.000000
  0
VERTEX
  8
TOP
 10
97.660460
 20
63.718440
 40
0.000000
 41
0.000000
 42
0.000000
  0
VERTEX
  8
TOP
 10
97.660460
 20
64.297560
 40
0.000000
 41
0.000000
 42
0.000000
  0
VERTEX
  8
TOP
 10
98.234500
 20
64.297560
 40
0.000000
 41
0.000000
 42
0.000000
  0
VERTEX
  8
TOP
 10
98.234500
 20
63.718440
 40
0.000000
 41
0.000000
 42
0.000000
  0
SEQEND
  0
POLYLINE
  8
TOP
 66
1
 70
1
 40
0.000000
 41
0.000000
 39
0.000000
  0
VERTEX
  8
TOP
 10
97.411540
 20
64.297560
 40
0.000000
 41
0.000000
 42
0.000000
  0
VERTEX
  8
TOP
 10
97.411540
 20
63.718440
 40
0.000000
 41
0.000000
 42
0.000000
  0
VERTEX
  8
TOP
 10
96.837500
 20
63.718440
 40
0.000000
 41
0.000000
 42
0.000000
  0
VERTEX
  8
TOP
 10
96.837500
 20
64.297560
 40
0.000000
 41
0.000000
 42
0.000000
  0
SEQEND
  0
POLYLINE
  8
SILKSCREEN_TOP
 66
1
 70
0
 40
0.000000
 41
0.000000
 39
0.000000
  0
VERTEX
  8
SILKSCREEN_TOP
 10
96.657160
 20
64.477900
 40
0.119380
 41
0.119380
 42
0.000000
  0
VERTEX
  8
SILKSCREEN_TOP
 10
96.657160
 20
63.538100
 40
0.119380
 41
0.119380
 42
0.000000
  0
SEQEND
  0
POLYLINE
  8
SILKSCREEN_TOP
 66
1
 70
0
 40
0.000000
 41
0.000000
 39
0.000000
  0
VERTEX
  8
SILKSCREEN_TOP
 10
96.657160
 20
64.477900
 40
0.119380
 41
0.119380
 42
0.000000
  0
VERTEX
  8
SILKSCREEN_TOP
 10
98.414840
 20
64.477900
 40
0.119380
 41
0.119380
 42
0.000000
  0
VERTEX
  8
SILKSCREEN_TOP
 10
98.414840
 20
63.538100
 40
0.119380
 41
0.119380
 42
0.000000
  0
VERTEX
  8
SILKSCREEN_TOP
 10
96.657160
 20
63.538100
 40
0.119380
 41
0.119380
 42
0.000000
  0
SEQEND
  0
POLYLINE
  8
TOP
 66
1
 70
1
 40
0.000000
 41
0.000000
 39
0.000000
  0
VERTEX
  8
TOP
 10
143.893540
 20
58.963560
 40
0.000000
 41
0.000000
 42
0.000000
  0
VERTEX
  8
TOP
 10
143.893540
 20
58.384440
 40
0.000000
 41
0.000000
 42
0.000000
  0
VERTEX
  8
TOP
 10
143.319500
 20
58.384440
 40
0.000000
 41
0.000000
 42
0.000000
  0
VERTEX
  8
TOP
 10
143.319500
 20
58.963560
 40
0.000000
 41
0.000000
 42
0.000000
  0
SEQEND
  0
POLYLINE
  8
TOP
 66
1
 70
1
 40
0.000000
 41
0.000000
 39
0.000000
  0
VERTEX
  8
TOP
 10
144.142460
 20
58.384440
 40
0.000000
 41
0.000000
 42
0.000000
  0
VERTEX
  8
TOP
 10
144.142460
 20
58.963560
 40
0.000000
 41
0.000000
 42
0.000000
  0
VERTEX
  8
TOP
 10
144.716500
 20
58.963560
 40
0.000000
 41
0.000000
 42
0.000000
  0
VERTEX
  8
TOP
 10
144.716500
 20
58.384440
 40
0.000000
 41
0.000000
 42
0.000000
  0
SEQEND
  0
POLYLINE
  8
SILKSCREEN_TOP
 66
1
 70
0
 40
0.000000
 41
0.000000
 39
0.000000
  0
VERTEX
  8
SILKSCREEN_TOP
 10
144.896840
 20
58.204100
 40
0.119380
 41
0.119380
 42
0.000000
  0
VERTEX
  8
SILKSCREEN_TOP
 10
144.896840
 20
59.143900
 40
0.119380
 41
0.119380
 42
0.000000
  0
SEQEND
  0
POLYLINE
  8
SILKSCREEN_TOP
 66
1
 70
0
 40
0.000000
 41
0.000000
 39
0.000000
  0
VERTEX
  8
SILKSCREEN_TOP
 10
144.896840
 20
58.204100
 40
0.119380
 41
0.119380
 42
0.000000
  0
VERTEX
  8
SILKSCREEN_TOP
 10
143.139160
 20
58.204100
 40
0.119380
 41
0.119380
 42
0.000000
  0
VERTEX
  8
SILKSCREEN_TOP
 10
143.139160
 20
59.143900
 40
0.119380
 41
0.119380
 42
0.000000
  0
VERTEX
  8
SILKSCREEN_TOP
 10
144.896840
 20
59.143900
 40
0.119380
 41
0.119380
 42
0.000000
  0
SEQEND
  0
POLYLINE
  8
TOP
 66
1
 70
1
 40
0.000000
 41
0.000000
 39
0.000000
  0
VERTEX
  8
TOP
 10
98.668840
 20
56.807100
 40
0.000000
 41
0.000000
 42
0.000000
  0
VERTEX
  8
TOP
 10
98.668840
 20
59.016900
 40
0.000000
 41
0.000000
 42
0.000000
  0
VERTEX
  8
TOP
 10
100.459540
 20
59.016900
 40
0.000000
 41
0.000000
 42
0.000000
  0
VERTEX
  8
TOP
 10
100.459540
 20
56.807100
 40
0.000000
 41
0.000000
 42
0.000000
  0
SEQEND
  0
POLYLINE
  8
TOP
 66
1
 70
1
 40
0.000000
 41
0.000000
 39
0.000000
  0
VERTEX
  8
TOP
 10
102.737920
 20
56.807100
 40
0.000000
 41
0.000000
 42
0.000000
  0
VERTEX
  8
TOP
 10
102.737920
 20
59.016900
 40
0.000000
 41
0.000000
 42
0.000000
  0
VERTEX
  8
TOP
 10
104.528620
 20
59.016900
 40
0.000000
 41
0.000000
 42
0.000000
  0
VERTEX
  8
TOP
 10
104.528620
 20
56.807100
 40
0.000000
 41
0.000000
 42
0.000000
  0
SEQEND
  0
POLYLINE
  8
SILKSCREEN_TOP
 66
1
 70
0
 40
0.000000
 41
0.000000
 39
0.000000
  0
VERTEX
  8
SILKSCREEN_TOP
 10
99.314000
 20
59.309000
 40
0.200660
 41
0.200660
 42
0.000000
  0
VERTEX
  8
SILKSCREEN_TOP
 10
100.711000
 20
59.309000
 40
0.200660
 41
0.200660
 42
0.000000
  0
VERTEX
  8
SILKSCREEN_TOP
 10
100.711000
 20
56.515000
 40
0.200660
 41
0.200660
 42
0.000000
  0
VERTEX
  8
SILKSCREEN_TOP
 10
99.314000
 20
56.515000
 40
0.200660
 41
0.200660
 42
0.000000
  0
SEQEND
  0
POLYLINE
  8
SILKSCREEN_TOP
 66
1
 70
0
 40
0.000000
 41
0.000000
 39
0.000000
  0
VERTEX
  8
SILKSCREEN_TOP
 10
104.013000
 20
56.769000
 40
0.200660
 41
0.200660
 42
0.000000
  0
VERTEX
  8
SILKSCREEN_TOP
 10
104.013000
 20
55.880000
 40
0.200660
 41
0.200660
 42
0.000000
  0
VERTEX
  8
SILKSCREEN_TOP
 10
103.901240
 20
55.732680
 40
0.200660
 41
0.200660
 42
0.000000
  0
VERTEX
  8
SILKSCREEN_TOP
 10
99.298760
 20
55.732680
 40
0.200660
 41
0.200660
 42
0.000000
  0
VERTEX
  8
SILKSCREEN_TOP
 10
99.187000
 20
55.880000
 40
0.200660
 41
0.200660
 42
0.000000
  0
VERTEX
  8
SILKSCREEN_TOP
 10
99.187000
 20
56.769000
 40
0.200660
 41
0.200660
 42
0.000000
  0
SEQEND
  0
POLYLINE
  8
SILKSCREEN_TOP
 66
1
 70
0
 40
0.000000
 41
0.000000
 39
0.000000
  0
VERTEX
  8
SILKSCREEN_TOP
 10
104.013000
 20
59.055000
 40
0.200660
 41
0.200660
 42
0.000000
  0
VERTEX
  8
SILKSCREEN_TOP
 10
104.013000
 20
59.944000
 40
0.200660
 41
0.200660
 42
0.000000
  0
VERTEX
  8
SILKSCREEN_TOP
 10
103.901240
 20
60.091320
 40
0.200660
 41
0.200660
 42
0.000000
  0
VERTEX
  8
SILKSCREEN_TOP
 10
99.298760
 20
60.091320
 40
0.200660
 41
0.200660
 42
0.000000
  0
VERTEX
  8
SILKSCREEN_TOP
 10
99.187000
 20
59.944000
 40
0.200660
 41
0.200660
 42
0.000000
  0
VERTEX
  8
SILKSCREEN_TOP
 10
99.187000
 20
59.055000
 40
0.200660
 41
0.200660
 42
0.000000
  0
SEQEND
  0
POLYLINE
  8
TOP
 66
1
 70
1
 40
0.000000
 41
0.000000
 39
0.000000
  0
VERTEX
  8
TOP
 10
104.843580
 20
57.404000
 40
0.000000
 41
0.000000
 42
0.000000
  0
VERTEX
  8
TOP
 10
104.843580
 20
58.420000
 40
0.000000
 41
0.000000
 42
0.000000
  0
VERTEX
  8
TOP
 10
105.859580
 20
58.420000
 40
0.000000
 41
0.000000
 42
0.000000
  0
VERTEX
  8
TOP
 10
105.859580
 20
57.404000
 40
0.000000
 41
0.000000
 42
0.000000
  0
SEQEND
  0
POLYLINE
  8
TOP
 66
1
 70
1
 40
0.000000
 41
0.000000
 39
0.000000
  0
VERTEX
  8
TOP
 10
109.532420
 20
58.420000
 40
0.000000
 41
0.000000
 42
0.000000
  0
VERTEX
  8
TOP
 10
109.532420
 20
57.404000
 40
0.000000
 41
0.000000
 42
0.000000
  0
VERTEX
  8
TOP
 10
108.516420
 20
57.404000
 40
0.000000
 41
0.000000
 42
0.000000
  0
VERTEX
  8
TOP
 10
108.516420
 20
58.420000
 40
0.000000
 41
0.000000
 42
0.000000
  0
SEQEND
  0
POLYLINE
  8
SILKSCREEN_TOP
 66
1
 70
0
 40
0.000000
 41
0.000000
 39
0.000000
  0
VERTEX
  8
SILKSCREEN_TOP
 10
108.188760
 20
57.912000
 40
0.149860
 41
0.149860
 42
0.000000
  0
VERTEX
  8
SILKSCREEN_TOP
 10
106.187240
 20
57.912000
 40
0.149860
 41
0.149860
 42
0.000000
  0
SEQEND
  0
POLYLINE
  8
SILKSCREEN_TOP
 66
1
 70
0
 40
0.000000
 41
0.000000
 39
0.000000
  0
VERTEX
  8
SILKSCREEN_TOP
 10
107.436920
 20
57.912000
 40
0.149860
 41
0.149860
 42
0.000000
  0
VERTEX
  8
SILKSCREEN_TOP
 10
106.687620
 20
57.162700
 40
0.149860
 41
0.149860
 42
0.000000
  0
VERTEX
  8
SILKSCREEN_TOP
 10
106.687620
 20
58.661300
 40
0.149860
 41
0.149860
 42
0.000000
  0
VERTEX
  8
SILKSCREEN_TOP
 10
107.436920
 20
57.912000
 40
0.149860
 41
0.149860
 42
0.000000
  0
SEQEND
  0
POLYLINE
  8
SILKSCREEN_TOP
 66
1
 70
0
 40
0.000000
 41
0.000000
 39
0.000000
  0
VERTEX
  8
SILKSCREEN_TOP
 10
107.436920
 20
58.661300
 40
0.200660
 41
0.200660
 42
0.000000
  0
VERTEX
  8
SILKSCREEN_TOP
 10
107.436920
 20
57.162700
 40
0.200660
 41
0.200660
 42
0.000000
  0
SEQEND
  0
POLYLINE
  8
SILKSCREEN_TOP
 66
1
 70
0
 40
0.000000
 41
0.000000
 39
0.000000
  0
VERTEX
  8
SILKSCREEN_TOP
 10
108.712000
 20
58.420000
 40
0.152400
 41
0.152400
 42
0.000000
  0
VERTEX
  8
SILKSCREEN_TOP
 10
108.458000
 20
58.674000
 40
0.152400
 41
0.152400
 42
0.000000
  0
VERTEX
  8
SILKSCREEN_TOP
 10
105.664000
 20
58.674000
 40
0.152400
 41
0.152400
 42
0.000000
  0
VERTEX
  8
SILKSCREEN_TOP
 10
105.664000
 20
58.420000
 40
0.152400
 41
0.152400
 42
0.000000
  0
SEQEND
  0
POLYLINE
  8
SILKSCREEN_TOP
 66
1
 70
0
 40
0.000000
 41
0.000000
 39
0.000000
  0
VERTEX
  8
SILKSCREEN_TOP
 10
105.664000
 20
57.404000
 40
0.152400
 41
0.152400
 42
0.000000
  0
VERTEX
  8
SILKSCREEN_TOP
 10
105.664000
 20
57.150000
 40
0.152400
 41
0.152400
 42
0.000000
  0
VERTEX
  8
SILKSCREEN_TOP
 10
108.458000
 20
57.150000
 40
0.152400
 41
0.152400
 42
0.000000
  0
VERTEX
  8
SILKSCREEN_TOP
 10
108.712000
 20
57.404000
 40
0.152400
 41
0.152400
 42
0.000000
  0
SEQEND
  0
POLYLINE
  8
SILKSCREEN_TOP
 66
1
 70
1
 40
0.000000
 41
0.000000
 39
0.000000
  0
VERTEX
  8
SILKSCREEN_TOP
 10
109.687360
 20
57.086500
 40
0.000000
 41
0.000000
 42
1.000000
  0
VERTEX
  8
SILKSCREEN_TOP
 10
109.388640
 20
57.087500
 40
0.000000
 41
0.000000
 42
1.000000
  0
SEQEND
  0
POLYLINE
  8
TOP
 66
1
 70
1
 40
0.000000
 41
0.000000
 39
0.000000
  0
VERTEX
  8
TOP
 10
97.370900
 20
61.003180
 40
0.000000
 41
0.000000
 42
0.000000
  0
VERTEX
  8
TOP
 10
97.370900
 20
61.932820
 40
0.000000
 41
0.000000
 42
0.000000
  0
VERTEX
  8
TOP
 10
98.191320
 20
61.932820
 40
0.000000
 41
0.000000
 42
0.000000
  0
VERTEX
  8
TOP
 10
98.191320
 20
61.003180
 40
0.000000
 41
0.000000
 42
0.000000
  0
SEQEND
  0
POLYLINE
  8
TOP
 66
1
 70
1
 40
0.000000
 41
0.000000
 39
0.000000
  0
VERTEX
  8
TOP
 10
96.683830
 20
61.932820
 40
0.000000
 41
0.000000
 42
0.000000
  0
VERTEX
  8
TOP
 10
96.683830
 20
61.003180
 40
0.000000
 41
0.000000
 42
0.000000
  0
VERTEX
  8
TOP
 10
95.863410
 20
61.003180
 40
0.000000
 41
0.000000
 42
0.000000
  0
VERTEX
  8
TOP
 10
95.863410
 20
61.932820
 40
0.000000
 41
0.000000
 42
0.000000
  0
SEQEND
  0
POLYLINE
  8
SILKSCREEN_TOP
 66
1
 70
0
 40
0.000000
 41
0.000000
 39
0.000000
  0
VERTEX
  8
SILKSCREEN_TOP
 10
96.580960
 20
62.113160
 40
0.119380
 41
0.119380
 42
0.000000
  0
VERTEX
  8
SILKSCREEN_TOP
 10
95.681800
 20
62.113160
 40
0.119380
 41
0.119380
 42
0.000000
  0
VERTEX
  8
SILKSCREEN_TOP
 10
95.681800
 20
60.822840
 40
0.119380
 41
0.119380
 42
0.000000
  0
VERTEX
  8
SILKSCREEN_TOP
 10
96.580960
 20
60.822840
 40
0.119380
 41
0.119380
 42
0.000000
  0
SEQEND
  0
POLYLINE
  8
SILKSCREEN_TOP
 66
1
 70
0
 40
0.000000
 41
0.000000
 39
0.000000
  0
VERTEX
  8
SILKSCREEN_TOP
 10
97.475040
 20
62.113160
 40
0.119380
 41
0.119380
 42
0.000000
  0
VERTEX
  8
SILKSCREEN_TOP
 10
98.374200
 20
62.113160
 40
0.119380
 41
0.119380
 42
0.000000
  0
VERTEX
  8
SILKSCREEN_TOP
 10
98.374200
 20
60.822840
 40
0.119380
 41
0.119380
 42
0.000000
  0
VERTEX
  8
SILKSCREEN_TOP
 10
97.475040
 20
60.822840
 40
0.119380
 41
0.119380
 42
0.000000
  0
SEQEND
  0
POLYLINE
  8
TOP
 66
1
 70
1
 40
0.000000
 41
0.000000
 39
0.000000
  0
VERTEX
  8
TOP
 10
73.494900
 20
90.213180
 40
0.000000
 41
0.000000
 42
0.000000
  0
VERTEX
  8
TOP
 10
73.494900
 20
91.142820
 40
0.000000
 41
0.000000
 42
0.000000
  0
VERTEX
  8
TOP
 10
74.315320
 20
91.142820
 40
0.000000
 41
0.000000
 42
0.000000
  0
VERTEX
  8
TOP
 10
74.315320
 20
90.213180
 40
0.000000
 41
0.000000
 42
0.000000
  0
SEQEND
  0
POLYLINE
  8
TOP
 66
1
 70
1
 40
0.000000
 41
0.000000
 39
0.000000
  0
VERTEX
  8
TOP
 10
72.807830
 20
91.142820
 40
0.000000
 41
0.000000
 42
0.000000
  0
VERTEX
  8
TOP
 10
72.807830
 20
90.213180
 40
0.000000
 41
0.000000
 42
0.000000
  0
VERTEX
  8
TOP
 10
71.987410
 20
90.213180
 40
0.000000
 41
0.000000
 42
0.000000
  0
VERTEX
  8
TOP
 10
71.987410
 20
91.142820
 40
0.000000
 41
0.000000
 42
0.000000
  0
SEQEND
  0
POLYLINE
  8
SILKSCREEN_TOP
 66
1
 70
0
 40
0.000000
 41
0.000000
 39
0.000000
  0
VERTEX
  8
SILKSCREEN_TOP
 10
72.704960
 20
91.323160
 40
0.119380
 41
0.119380
 42
0.000000
  0
VERTEX
  8
SILKSCREEN_TOP
 10
71.805800
 20
91.323160
 40
0.119380
 41
0.119380
 42
0.000000
  0
VERTEX
  8
SILKSCREEN_TOP
 10
71.805800
 20
90.032840
 40
0.119380
 41
0.119380
 42
0.000000
  0
VERTEX
  8
SILKSCREEN_TOP
 10
72.704960
 20
90.032840
 40
0.119380
 41
0.119380
 42
0.000000
  0
SEQEND
  0
POLYLINE
  8
SILKSCREEN_TOP
 66
1
 70
0
 40
0.000000
 41
0.000000
 39
0.000000
  0
VERTEX
  8
SILKSCREEN_TOP
 10
73.599040
 20
91.323160
 40
0.119380
 41
0.119380
 42
0.000000
  0
VERTEX
  8
SILKSCREEN_TOP
 10
74.498200
 20
91.323160
 40
0.119380
 41
0.119380
 42
0.000000
  0
VERTEX
  8
SILKSCREEN_TOP
 10
74.498200
 20
90.032840
 40
0.119380
 41
0.119380
 42
0.000000
  0
VERTEX
  8
SILKSCREEN_TOP
 10
73.599040
 20
90.032840
 40
0.119380
 41
0.119380
 42
0.000000
  0
SEQEND
  0
POLYLINE
  8
TOP
 66
1
 70
1
 40
0.000000
 41
0.000000
 39
0.000000
  0
VERTEX
  8
TOP
 10
141.133830
 20
57.868820
 40
0.000000
 41
0.000000
 42
0.000000
  0
VERTEX
  8
TOP
 10
141.133830
 20
56.939180
 40
0.000000
 41
0.000000
 42
0.000000
  0
VERTEX
  8
TOP
 10
140.313410
 20
56.939180
 40
0.000000
 41
0.000000
 42
0.000000
  0
VERTEX
  8
TOP
 10
140.313410
 20
57.868820
 40
0.000000
 41
0.000000
 42
0.000000
  0
SEQEND
  0
POLYLINE
  8
TOP
 66
1
 70
1
 40
0.000000
 41
0.000000
 39
0.000000
  0
VERTEX
  8
TOP
 10
141.820900
 20
56.939180
 40
0.000000
 41
0.000000
 42
0.000000
  0
VERTEX
  8
TOP
 10
141.820900
 20
57.868820
 40
0.000000
 41
0.000000
 42
0.000000
  0
VERTEX
  8
TOP
 10
142.641320
 20
57.868820
 40
0.000000
 41
0.000000
 42
0.000000
  0
VERTEX
  8
TOP
 10
142.641320
 20
56.939180
 40
0.000000
 41
0.000000
 42
0.000000
  0
SEQEND
  0
POLYLINE
  8
SILKSCREEN_TOP
 66
1
 70
0
 40
0.000000
 41
0.000000
 39
0.000000
  0
VERTEX
  8
SILKSCREEN_TOP
 10
141.925040
 20
56.758840
 40
0.119380
 41
0.119380
 42
0.000000
  0
VERTEX
  8
SILKSCREEN_TOP
 10
142.824200
 20
56.758840
 40
0.119380
 41
0.119380
 42
0.000000
  0
VERTEX
  8
SILKSCREEN_TOP
 10
142.824200
 20
58.049160
 40
0.119380
 41
0.119380
 42
0.000000
  0
VERTEX
  8
SILKSCREEN_TOP
 10
141.925040
 20
58.049160
 40
0.119380
 41
0.119380
 42
0.000000
  0
SEQEND
  0
POLYLINE
  8
SILKSCREEN_TOP
 66
1
 70
0
 40
0.000000
 41
0.000000
 39
0.000000
  0
VERTEX
  8
SILKSCREEN_TOP
 10
141.030960
 20
56.758840
 40
0.119380
 41
0.119380
 42
0.000000
  0
VERTEX
  8
SILKSCREEN_TOP
 10
140.131800
 20
56.758840
 40
0.119380
 41
0.119380
 42
0.000000
  0
VERTEX
  8
SILKSCREEN_TOP
 10
140.131800
 20
58.049160
 40
0.119380
 41
0.119380
 42
0.000000
  0
VERTEX
  8
SILKSCREEN_TOP
 10
141.030960
 20
58.049160
 40
0.119380
 41
0.119380
 42
0.000000
  0
SEQEND
  0
POLYLINE
  8
TOP
 66
1
 70
1
 40
0.000000
 41
0.000000
 39
0.000000
  0
VERTEX
  8
TOP
 10
138.264900
 20
57.701180
 40
0.000000
 41
0.000000
 42
0.000000
  0
VERTEX
  8
TOP
 10
138.264900
 20
58.630820
 40
0.000000
 41
0.000000
 42
0.000000
  0
VERTEX
  8
TOP
 10
139.085320
 20
58.630820
 40
0.000000
 41
0.000000
 42
0.000000
  0
VERTEX
  8
TOP
 10
139.085320
 20
57.701180
 40
0.000000
 41
0.000000
 42
0.000000
  0
SEQEND
  0
POLYLINE
  8
TOP
 66
1
 70
1
 40
0.000000
 41
0.000000
 39
0.000000
  0
VERTEX
  8
TOP
 10
137.577830
 20
58.630820
 40
0.000000
 41
0.000000
 42
0.000000
  0
VERTEX
  8
TOP
 10
137.577830
 20
57.701180
 40
0.000000
 41
0.000000
 42
0.000000
  0
VERTEX
  8
TOP
 10
136.757410
 20
57.701180
 40
0.000000
 41
0.000000
 42
0.000000
  0
VERTEX
  8
TOP
 10
136.757410
 20
58.630820
 40
0.000000
 41
0.000000
 42
0.000000
  0
SEQEND
  0
POLYLINE
  8
SILKSCREEN_TOP
 66
1
 70
0
 40
0.000000
 41
0.000000
 39
0.000000
  0
VERTEX
  8
SILKSCREEN_TOP
 10
137.474960
 20
58.811160
 40
0.119380
 41
0.119380
 42
0.000000
  0
VERTEX
  8
SILKSCREEN_TOP
 10
136.575800
 20
58.811160
 40
0.119380
 41
0.119380
 42
0.000000
  0
VERTEX
  8
SILKSCREEN_TOP
 10
136.575800
 20
57.520840
 40
0.119380
 41
0.119380
 42
0.000000
  0
VERTEX
  8
SILKSCREEN_TOP
 10
137.474960
 20
57.520840
 40
0.119380
 41
0.119380
 42
0.000000
  0
SEQEND
  0
POLYLINE
  8
SILKSCREEN_TOP
 66
1
 70
0
 40
0.000000
 41
0.000000
 39
0.000000
  0
VERTEX
  8
SILKSCREEN_TOP
 10
138.369040
 20
58.811160
 40
0.119380
 41
0.119380
 42
0.000000
  0
VERTEX
  8
SILKSCREEN_TOP
 10
139.268200
 20
58.811160
 40
0.119380
 41
0.119380
 42
0.000000
  0
VERTEX
  8
SILKSCREEN_TOP
 10
139.268200
 20
57.520840
 40
0.119380
 41
0.119380
 42
0.000000
  0
VERTEX
  8
SILKSCREEN_TOP
 10
138.369040
 20
57.520840
 40
0.119380
 41
0.119380
 42
0.000000
  0
SEQEND
  0
POLYLINE
  8
TOP
 66
1
 70
1
 40
0.000000
 41
0.000000
 39
0.000000
  0
VERTEX
  8
TOP
 10
141.641830
 20
66.250820
 40
0.000000
 41
0.000000
 42
0.000000
  0
VERTEX
  8
TOP
 10
141.641830
 20
65.321180
 40
0.000000
 41
0.000000
 42
0.000000
  0
VERTEX
  8
TOP
 10
140.821410
 20
65.321180
 40
0.000000
 41
0.000000
 42
0.000000
  0
VERTEX
  8
TOP
 10
140.821410
 20
66.250820
 40
0.000000
 41
0.000000
 42
0.000000
  0
SEQEND
  0
POLYLINE
  8
TOP
 66
1
 70
1
 40
0.000000
 41
0.000000
 39
0.000000
  0
VERTEX
  8
TOP
 10
142.328900
 20
65.321180
 40
0.000000
 41
0.000000
 42
0.000000
  0
VERTEX
  8
TOP
 10
142.328900
 20
66.250820
 40
0.000000
 41
0.000000
 42
0.000000
  0
VERTEX
  8
TOP
 10
143.149320
 20
66.250820
 40
0.000000
 41
0.000000
 42
0.000000
  0
VERTEX
  8
TOP
 10
143.149320
 20
65.321180
 40
0.000000
 41
0.000000
 42
0.000000
  0
SEQEND
  0
POLYLINE
  8
SILKSCREEN_TOP
 66
1
 70
0
 40
0.000000
 41
0.000000
 39
0.000000
  0
VERTEX
  8
SILKSCREEN_TOP
 10
142.433040
 20
65.140840
 40
0.119380
 41
0.119380
 42
0.000000
  0
VERTEX
  8
SILKSCREEN_TOP
 10
143.332200
 20
65.140840
 40
0.119380
 41
0.119380
 42
0.000000
  0
VERTEX
  8
SILKSCREEN_TOP
 10
143.332200
 20
66.431160
 40
0.119380
 41
0.119380
 42
0.000000
  0
VERTEX
  8
SILKSCREEN_TOP
 10
142.433040
 20
66.431160
 40
0.119380
 41
0.119380
 42
0.000000
  0
SEQEND
  0
POLYLINE
  8
SILKSCREEN_TOP
 66
1
 70
0
 40
0.000000
 41
0.000000
 39
0.000000
  0
VERTEX
  8
SILKSCREEN_TOP
 10
141.538960
 20
65.140840
 40
0.119380
 41
0.119380
 42
0.000000
  0
VERTEX
  8
SILKSCREEN_TOP
 10
140.639800
 20
65.140840
 40
0.119380
 41
0.119380
 42
0.000000
  0
VERTEX
  8
SILKSCREEN_TOP
 10
140.639800
 20
66.431160
 40
0.119380
 41
0.119380
 42
0.000000
  0
VERTEX
  8
SILKSCREEN_TOP
 10
141.538960
 20
66.431160
 40
0.119380
 41
0.119380
 42
0.000000
  0
SEQEND
  0
POLYLINE
  8
TOP
 66
1
 70
1
 40
0.000000
 41
0.000000
 39
0.000000
  0
VERTEX
  8
TOP
 10
141.641830
 20
64.726820
 40
0.000000
 41
0.000000
 42
0.000000
  0
VERTEX
  8
TOP
 10
141.641830
 20
63.797180
 40
0.000000
 41
0.000000
 42
0.000000
  0
VERTEX
  8
TOP
 10
140.821410
 20
63.797180
 40
0.000000
 41
0.000000
 42
0.000000
  0
VERTEX
  8
TOP
 10
140.821410
 20
64.726820
 40
0.000000
 41
0.000000
 42
0.000000
  0
SEQEND
  0
POLYLINE
  8
TOP
 66
1
 70
1
 40
0.000000
 41
0.000000
 39
0.000000
  0
VERTEX
  8
TOP
 10
142.328900
 20
63.797180
 40
0.000000
 41
0.000000
 42
0.000000
  0
VERTEX
  8
TOP
 10
142.328900
 20
64.726820
 40
0.000000
 41
0.000000
 42
0.000000
  0
VERTEX
  8
TOP
 10
143.149320
 20
64.726820
 40
0.000000
 41
0.000000
 42
0.000000
  0
VERTEX
  8
TOP
 10
143.149320
 20
63.797180
 40
0.000000
 41
0.000000
 42
0.000000
  0
SEQEND
  0
POLYLINE
  8
SILKSCREEN_TOP
 66
1
 70
0
 40
0.000000
 41
0.000000
 39
0.000000
  0
VERTEX
  8
SILKSCREEN_TOP
 10
142.433040
 20
63.616840
 40
0.119380
 41
0.119380
 42
0.000000
  0
VERTEX
  8
SILKSCREEN_TOP
 10
143.332200
 20
63.616840
 40
0.119380
 41
0.119380
 42
0.000000
  0
VERTEX
  8
SILKSCREEN_TOP
 10
143.332200
 20
64.907160
 40
0.119380
 41
0.119380
 42
0.000000
  0
VERTEX
  8
SILKSCREEN_TOP
 10
142.433040
 20
64.907160
 40
0.119380
 41
0.119380
 42
0.000000
  0
SEQEND
  0
POLYLINE
  8
SILKSCREEN_TOP
 66
1
 70
0
 40
0.000000
 41
0.000000
 39
0.000000
  0
VERTEX
  8
SILKSCREEN_TOP
 10
141.538960
 20
63.616840
 40
0.119380
 41
0.119380
 42
0.000000
  0
VERTEX
  8
SILKSCREEN_TOP
 10
140.639800
 20
63.616840
 40
0.119380
 41
0.119380
 42
0.000000
  0
VERTEX
  8
SILKSCREEN_TOP
 10
140.639800
 20
64.907160
 40
0.119380
 41
0.119380
 42
0.000000
  0
VERTEX
  8
SILKSCREEN_TOP
 10
141.538960
 20
64.907160
 40
0.119380
 41
0.119380
 42
0.000000
  0
SEQEND
  0
POLYLINE
  8
TOP
 66
1
 70
1
 40
0.000000
 41
0.000000
 39
0.000000
  0
VERTEX
  8
TOP
 10
133.060440
 20
80.393540
 40
0.000000
 41
0.000000
 42
0.000000
  0
VERTEX
  8
TOP
 10
133.639560
 20
80.393540
 40
0.000000
 41
0.000000
 42
0.000000
  0
VERTEX
  8
TOP
 10
133.639560
 20
79.819500
 40
0.000000
 41
0.000000
 42
0.000000
  0
VERTEX
  8
TOP
 10
133.060440
 20
79.819500
 40
0.000000
 41
0.000000
 42
0.000000
  0
SEQEND
  0
POLYLINE
  8
TOP
 66
1
 70
1
 40
0.000000
 41
0.000000
 39
0.000000
  0
VERTEX
  8
TOP
 10
133.639560
 20
80.642460
 40
0.000000
 41
0.000000
 42
0.000000
  0
VERTEX
  8
TOP
 10
133.060440
 20
80.642460
 40
0.000000
 41
0.000000
 42
0.000000
  0
VERTEX
  8
TOP
 10
133.060440
 20
81.216500
 40
0.000000
 41
0.000000
 42
0.000000
  0
VERTEX
  8
TOP
 10
133.639560
 20
81.216500
 40
0.000000
 41
0.000000
 42
0.000000
  0
SEQEND
  0
POLYLINE
  8
SILKSCREEN_TOP
 66
1
 70
0
 40
0.000000
 41
0.000000
 39
0.000000
  0
VERTEX
  8
SILKSCREEN_TOP
 10
133.819900
 20
80.777080
 40
0.119380
 41
0.119380
 42
0.000000
  0
VERTEX
  8
SILKSCREEN_TOP
 10
133.819900
 20
81.396840
 40
0.119380
 41
0.119380
 42
0.000000
  0
VERTEX
  8
SILKSCREEN_TOP
 10
132.880100
 20
81.396840
 40
0.119380
 41
0.119380
 42
0.000000
  0
VERTEX
  8
SILKSCREEN_TOP
 10
132.880100
 20
80.777080
 40
0.119380
 41
0.119380
 42
0.000000
  0
SEQEND
  0
POLYLINE
  8
SILKSCREEN_TOP
 66
1
 70
0
 40
0.000000
 41
0.000000
 39
0.000000
  0
VERTEX
  8
SILKSCREEN_TOP
 10
133.819900
 20
80.258920
 40
0.119380
 41
0.119380
 42
0.000000
  0
VERTEX
  8
SILKSCREEN_TOP
 10
133.819900
 20
79.639160
 40
0.119380
 41
0.119380
 42
0.000000
  0
VERTEX
  8
SILKSCREEN_TOP
 10
132.880100
 20
79.639160
 40
0.119380
 41
0.119380
 42
0.000000
  0
VERTEX
  8
SILKSCREEN_TOP
 10
132.880100
 20
80.258920
 40
0.119380
 41
0.119380
 42
0.000000
  0
SEQEND
  0
POLYLINE
  8
TOP
 66
1
 70
1
 40
0.000000
 41
0.000000
 39
0.000000
  0
VERTEX
  8
TOP
 10
141.861540
 20
67.345560
 40
0.000000
 41
0.000000
 42
0.000000
  0
VERTEX
  8
TOP
 10
141.861540
 20
66.766440
 40
0.000000
 41
0.000000
 42
0.000000
  0
VERTEX
  8
TOP
 10
141.287500
 20
66.766440
 40
0.000000
 41
0.000000
 42
0.000000
  0
VERTEX
  8
TOP
 10
141.287500
 20
67.345560
 40
0.000000
 41
0.000000
 42
0.000000
  0
SEQEND
  0
POLYLINE
  8
TOP
 66
1
 70
1
 40
0.000000
 41
0.000000
 39
0.000000
  0
VERTEX
  8
TOP
 10
142.110460
 20
66.766440
 40
0.000000
 41
0.000000
 42
0.000000
  0
VERTEX
  8
TOP
 10
142.110460
 20
67.345560
 40
0.000000
 41
0.000000
 42
0.000000
  0
VERTEX
  8
TOP
 10
142.684500
 20
67.345560
 40
0.000000
 41
0.000000
 42
0.000000
  0
VERTEX
  8
TOP
 10
142.684500
 20
66.766440
 40
0.000000
 41
0.000000
 42
0.000000
  0
SEQEND
  0
POLYLINE
  8
SILKSCREEN_TOP
 66
1
 70
0
 40
0.000000
 41
0.000000
 39
0.000000
  0
VERTEX
  8
SILKSCREEN_TOP
 10
142.245080
 20
66.586100
 40
0.119380
 41
0.119380
 42
0.000000
  0
VERTEX
  8
SILKSCREEN_TOP
 10
142.864840
 20
66.586100
 40
0.119380
 41
0.119380
 42
0.000000
  0
VERTEX
  8
SILKSCREEN_TOP
 10
142.864840
 20
67.525900
 40
0.119380
 41
0.119380
 42
0.000000
  0
VERTEX
  8
SILKSCREEN_TOP
 10
142.245080
 20
67.525900
 40
0.119380
 41
0.119380
 42
0.000000
  0
SEQEND
  0
POLYLINE
  8
SILKSCREEN_TOP
 66
1
 70
0
 40
0.000000
 41
0.000000
 39
0.000000
  0
VERTEX
  8
SILKSCREEN_TOP
 10
141.726920
 20
66.586100
 40
0.119380
 41
0.119380
 42
0.000000
  0
VERTEX
  8
SILKSCREEN_TOP
 10
141.107160
 20
66.586100
 40
0.119380
 41
0.119380
 42
0.000000
  0
VERTEX
  8
SILKSCREEN_TOP
 10
141.107160
 20
67.525900
 40
0.119380
 41
0.119380
 42
0.000000
  0
VERTEX
  8
SILKSCREEN_TOP
 10
141.726920
 20
67.525900
 40
0.119380
 41
0.119380
 42
0.000000
  0
SEQEND
  0
POLYLINE
  8
TOP
 66
1
 70
1
 40
0.000000
 41
0.000000
 39
0.000000
  0
VERTEX
  8
TOP
 10
73.276460
 20
89.118440
 40
0.000000
 41
0.000000
 42
0.000000
  0
VERTEX
  8
TOP
 10
73.276460
 20
89.697560
 40
0.000000
 41
0.000000
 42
0.000000
  0
VERTEX
  8
TOP
 10
73.850500
 20
89.697560
 40
0.000000
 41
0.000000
 42
0.000000
  0
VERTEX
  8
TOP
 10
73.850500
 20
89.118440
 40
0.000000
 41
0.000000
 42
0.000000
  0
SEQEND
  0
POLYLINE
  8
TOP
 66
1
 70
1
 40
0.000000
 41
0.000000
 39
0.000000
  0
VERTEX
  8
TOP
 10
73.027540
 20
89.697560
 40
0.000000
 41
0.000000
 42
0.000000
  0
VERTEX
  8
TOP
 10
73.027540
 20
89.118440
 40
0.000000
 41
0.000000
 42
0.000000
  0
VERTEX
  8
TOP
 10
72.453500
 20
89.118440
 40
0.000000
 41
0.000000
 42
0.000000
  0
VERTEX
  8
TOP
 10
72.453500
 20
89.697560
 40
0.000000
 41
0.000000
 42
0.000000
  0
SEQEND
  0
POLYLINE
  8
SILKSCREEN_TOP
 66
1
 70
0
 40
0.000000
 41
0.000000
 39
0.000000
  0
VERTEX
  8
SILKSCREEN_TOP
 10
72.892920
 20
89.877900
 40
0.119380
 41
0.119380
 42
0.000000
  0
VERTEX
  8
SILKSCREEN_TOP
 10
72.273160
 20
89.877900
 40
0.119380
 41
0.119380
 42
0.000000
  0
VERTEX
  8
SILKSCREEN_TOP
 10
72.273160
 20
88.938100
 40
0.119380
 41
0.119380
 42
0.000000
  0
VERTEX
  8
SILKSCREEN_TOP
 10
72.892920
 20
88.938100
 40
0.119380
 41
0.119380
 42
0.000000
  0
SEQEND
  0
POLYLINE
  8
SILKSCREEN_TOP
 66
1
 70
0
 40
0.000000
 41
0.000000
 39
0.000000
  0
VERTEX
  8
SILKSCREEN_TOP
 10
73.411080
 20
89.877900
 40
0.119380
 41
0.119380
 42
0.000000
  0
VERTEX
  8
SILKSCREEN_TOP
 10
74.030840
 20
89.877900
 40
0.119380
 41
0.119380
 42
0.000000
  0
VERTEX
  8
SILKSCREEN_TOP
 10
74.030840
 20
88.938100
 40
0.119380
 41
0.119380
 42
0.000000
  0
VERTEX
  8
SILKSCREEN_TOP
 10
73.411080
 20
88.938100
 40
0.119380
 41
0.119380
 42
0.000000
  0
SEQEND
  0
POLYLINE
  8
TOP
 66
1
 70
1
 40
0.000000
 41
0.000000
 39
0.000000
  0
VERTEX
  8
TOP
 10
138.046460
 20
59.146440
 40
0.000000
 41
0.000000
 42
0.000000
  0
VERTEX
  8
TOP
 10
138.046460
 20
59.725560
 40
0.000000
 41
0.000000
 42
0.000000
  0
VERTEX
  8
TOP
 10
138.620500
 20
59.725560
 40
0.000000
 41
0.000000
 42
0.000000
  0
VERTEX
  8
TOP
 10
138.620500
 20
59.146440
 40
0.000000
 41
0.000000
 42
0.000000
  0
SEQEND
  0
POLYLINE
  8
TOP
 66
1
 70
1
 40
0.000000
 41
0.000000
 39
0.000000
  0
VERTEX
  8
TOP
 10
137.797540
 20
59.725560
 40
0.000000
 41
0.000000
 42
0.000000
  0
VERTEX
  8
TOP
 10
137.797540
 20
59.146440
 40
0.000000
 41
0.000000
 42
0.000000
  0
VERTEX
  8
TOP
 10
137.223500
 20
59.146440
 40
0.000000
 41
0.000000
 42
0.000000
  0
VERTEX
  8
TOP
 10
137.223500
 20
59.725560
 40
0.000000
 41
0.000000
 42
0.000000
  0
SEQEND
  0
POLYLINE
  8
SILKSCREEN_TOP
 66
1
 70
0
 40
0.000000
 41
0.000000
 39
0.000000
  0
VERTEX
  8
SILKSCREEN_TOP
 10
137.662920
 20
59.905900
 40
0.119380
 41
0.119380
 42
0.000000
  0
VERTEX
  8
SILKSCREEN_TOP
 10
137.043160
 20
59.905900
 40
0.119380
 41
0.119380
 42
0.000000
  0
VERTEX
  8
SILKSCREEN_TOP
 10
137.043160
 20
58.966100
 40
0.119380
 41
0.119380
 42
0.000000
  0
VERTEX
  8
SILKSCREEN_TOP
 10
137.662920
 20
58.966100
 40
0.119380
 41
0.119380
 42
0.000000
  0
SEQEND
  0
POLYLINE
  8
SILKSCREEN_TOP
 66
1
 70
0
 40
0.000000
 41
0.000000
 39
0.000000
  0
VERTEX
  8
SILKSCREEN_TOP
 10
138.181080
 20
59.905900
 40
0.119380
 41
0.119380
 42
0.000000
  0
VERTEX
  8
SILKSCREEN_TOP
 10
138.800840
 20
59.905900
 40
0.119380
 41
0.119380
 42
0.000000
  0
VERTEX
  8
SILKSCREEN_TOP
 10
138.800840
 20
58.966100
 40
0.119380
 41
0.119380
 42
0.000000
  0
VERTEX
  8
SILKSCREEN_TOP
 10
138.181080
 20
58.966100
 40
0.119380
 41
0.119380
 42
0.000000
  0
SEQEND
  0
POLYLINE
  8
TOP
 66
1
 70
1
 40
0.000000
 41
0.000000
 39
0.000000
  0
VERTEX
  8
TOP
 10
141.607540
 20
58.963560
 40
0.000000
 41
0.000000
 42
0.000000
  0
VERTEX
  8
TOP
 10
141.607540
 20
58.384440
 40
0.000000
 41
0.000000
 42
0.000000
  0
VERTEX
  8
TOP
 10
141.033500
 20
58.384440
 40
0.000000
 41
0.000000
 42
0.000000
  0
VERTEX
  8
TOP
 10
141.033500
 20
58.963560
 40
0.000000
 41
0.000000
 42
0.000000
  0
SEQEND
  0
POLYLINE
  8
TOP
 66
1
 70
1
 40
0.000000
 41
0.000000
 39
0.000000
  0
VERTEX
  8
TOP
 10
141.856460
 20
58.384440
 40
0.000000
 41
0.000000
 42
0.000000
  0
VERTEX
  8
TOP
 10
141.856460
 20
58.963560
 40
0.000000
 41
0.000000
 42
0.000000
  0
VERTEX
  8
TOP
 10
142.430500
 20
58.963560
 40
0.000000
 41
0.000000
 42
0.000000
  0
VERTEX
  8
TOP
 10
142.430500
 20
58.384440
 40
0.000000
 41
0.000000
 42
0.000000
  0
SEQEND
  0
POLYLINE
  8
SILKSCREEN_TOP
 66
1
 70
0
 40
0.000000
 41
0.000000
 39
0.000000
  0
VERTEX
  8
SILKSCREEN_TOP
 10
141.991080
 20
58.204100
 40
0.119380
 41
0.119380
 42
0.000000
  0
VERTEX
  8
SILKSCREEN_TOP
 10
142.610840
 20
58.204100
 40
0.119380
 41
0.119380
 42
0.000000
  0
VERTEX
  8
SILKSCREEN_TOP
 10
142.610840
 20
59.143900
 40
0.119380
 41
0.119380
 42
0.000000
  0
VERTEX
  8
SILKSCREEN_TOP
 10
141.991080
 20
59.143900
 40
0.119380
 41
0.119380
 42
0.000000
  0
SEQEND
  0
POLYLINE
  8
SILKSCREEN_TOP
 66
1
 70
0
 40
0.000000
 41
0.000000
 39
0.000000
  0
VERTEX
  8
SILKSCREEN_TOP
 10
141.472920
 20
58.204100
 40
0.119380
 41
0.119380
 42
0.000000
  0
VERTEX
  8
SILKSCREEN_TOP
 10
140.853160
 20
58.204100
 40
0.119380
 41
0.119380
 42
0.000000
  0
VERTEX
  8
SILKSCREEN_TOP
 10
140.853160
 20
59.143900
 40
0.119380
 41
0.119380
 42
0.000000
  0
VERTEX
  8
SILKSCREEN_TOP
 10
141.472920
 20
59.143900
 40
0.119380
 41
0.119380
 42
0.000000
  0
SEQEND
  0
POLYLINE
  8
TOP
 66
1
 70
1
 40
0.000000
 41
0.000000
 39
0.000000
  0
VERTEX
  8
TOP
 10
141.594840
 20
59.608720
 40
0.000000
 41
0.000000
 42
0.000000
  0
VERTEX
  8
TOP
 10
140.985240
 20
59.608720
 40
0.000000
 41
0.000000
 42
0.000000
  0
VERTEX
  8
TOP
 10
140.985240
 20
60.817760
 40
0.000000
 41
0.000000
 42
0.000000
  0
VERTEX
  8
TOP
 10
141.594840
 20
60.817760
 40
0.000000
 41
0.000000
 42
0.000000
  0
SEQEND
  0
POLYLINE
  8
TOP
 66
1
 70
1
 40
0.000000
 41
0.000000
 39
0.000000
  0
VERTEX
  8
TOP
 10
142.544800
 20
59.608720
 40
0.000000
 41
0.000000
 42
0.000000
  0
VERTEX
  8
TOP
 10
141.935200
 20
59.608720
 40
0.000000
 41
0.000000
 42
0.000000
  0
VERTEX
  8
TOP
 10
141.935200
 20
60.817760
 40
0.000000
 41
0.000000
 42
0.000000
  0
VERTEX
  8
TOP
 10
142.544800
 20
60.817760
 40
0.000000
 41
0.000000
 42
0.000000
  0
SEQEND
  0
POLYLINE
  8
TOP
 66
1
 70
1
 40
0.000000
 41
0.000000
 39
0.000000
  0
VERTEX
  8
TOP
 10
143.494760
 20
59.608720
 40
0.000000
 41
0.000000
 42
0.000000
  0
VERTEX
  8
TOP
 10
142.885160
 20
59.608720
 40
0.000000
 41
0.000000
 42
0.000000
  0
VERTEX
  8
TOP
 10
142.885160
 20
60.817760
 40
0.000000
 41
0.000000
 42
0.000000
  0
VERTEX
  8
TOP
 10
143.494760
 20
60.817760
 40
0.000000
 41
0.000000
 42
0.000000
  0
SEQEND
  0
POLYLINE
  8
TOP
 66
1
 70
1
 40
0.000000
 41
0.000000
 39
0.000000
  0
VERTEX
  8
TOP
 10
143.494760
 20
62.118240
 40
0.000000
 41
0.000000
 42
0.000000
  0
VERTEX
  8
TOP
 10
142.885160
 20
62.118240
 40
0.000000
 41
0.000000
 42
0.000000
  0
VERTEX
  8
TOP
 10
142.885160
 20
63.327280
 40
0.000000
 41
0.000000
 42
0.000000
  0
VERTEX
  8
TOP
 10
143.494760
 20
63.327280
 40
0.000000
 41
0.000000
 42
0.000000
  0
SEQEND
  0
POLYLINE
  8
TOP
 66
1
 70
1
 40
0.000000
 41
0.000000
 39
0.000000
  0
VERTEX
  8
TOP
 10
141.594840
 20
62.118240
 40
0.000000
 41
0.000000
 42
0.000000
  0
VERTEX
  8
TOP
 10
140.985240
 20
62.118240
 40
0.000000
 41
0.000000
 42
0.000000
  0
VERTEX
  8
TOP
 10
140.985240
 20
63.327280
 40
0.000000
 41
0.000000
 42
0.000000
  0
VERTEX
  8
TOP
 10
141.594840
 20
63.327280
 40
0.000000
 41
0.000000
 42
0.000000
  0
SEQEND
  0
POLYLINE
  8
SILKSCREEN_TOP
 66
1
 70
0
 40
0.000000
 41
0.000000
 39
0.000000
  0
VERTEX
  8
SILKSCREEN_TOP
 10
141.490700
 20
59.207400
 40
0.200660
 41
0.200660
 42
1.002995
  0
VERTEX
  8
SILKSCREEN_TOP
 10
141.089380
 20
59.207400
 40
0.200660
 41
0.200660
 42
0.997014
  0
VERTEX
  8
SILKSCREEN_TOP
 10
141.490700
 20
59.207400
 40
0.200660
 41
0.200660
 42
0.000000
  0
SEQEND
  0
POLYLINE
  8
SILKSCREEN_TOP
 66
1
 70
0
 40
0.000000
 41
0.000000
 39
0.000000
  0
VERTEX
  8
SILKSCREEN_TOP
 10
140.685520
 20
59.707780
 40
0.200660
 41
0.200660
 42
0.000000
  0
VERTEX
  8
SILKSCREEN_TOP
 10
140.685520
 20
62.346840
 40
0.200660
 41
0.200660
 42
0.000000
  0
SEQEND
  0
POLYLINE
  8
SILKSCREEN_TOP
 66
1
 70
0
 40
0.000000
 41
0.000000
 39
0.000000
  0
VERTEX
  8
SILKSCREEN_TOP
 10
143.794480
 20
60.589160
 40
0.200660
 41
0.200660
 42
0.000000
  0
VERTEX
  8
SILKSCREEN_TOP
 10
143.794480
 20
62.346840
 40
0.200660
 41
0.200660
 42
0.000000
  0
SEQEND
  0
POLYLINE
  8
TOP
 66
1
 70
1
 40
0.000000
 41
0.000000
 39
0.000000
  0
VERTEX
  8
TOP
 10
103.159560
 20
61.818520
 40
0.000000
 41
0.000000
 42
0.000000
  0
VERTEX
  8
TOP
 10
103.159560
 20
61.249560
 40
0.000000
 41
0.000000
 42
0.000000
  0
VERTEX
  8
TOP
 10
101.960680
 20
61.249560
 40
0.000000
 41
0.000000
 42
0.000000
  0
VERTEX
  8
TOP
 10
101.960680
 20
61.818520
 40
0.000000
 41
0.000000
 42
0.000000
  0
SEQEND
  0
POLYLINE
  8
TOP
 66
1
 70
1
 40
0.000000
 41
0.000000
 39
0.000000
  0
VERTEX
  8
TOP
 10
103.159560
 20
62.768480
 40
0.000000
 41
0.000000
 42
0.000000
  0
VERTEX
  8
TOP
 10
103.159560
 20
62.199520
 40
0.000000
 41
0.000000
 42
0.000000
  0
VERTEX
  8
TOP
 10
101.960680
 20
62.199520
 40
0.000000
 41
0.000000
 42
0.000000
  0
VERTEX
  8
TOP
 10
101.960680
 20
62.768480
 40
0.000000
 41
0.000000
 42
0.000000
  0
SEQEND
  0
POLYLINE
  8
TOP
 66
1
 70
1
 40
0.000000
 41
0.000000
 39
0.000000
  0
VERTEX
  8
TOP
 10
103.159560
 20
63.718440
 40
0.000000
 41
0.000000
 42
0.000000
  0
VERTEX
  8
TOP
 10
103.159560
 20
63.149480
 40
0.000000
 41
0.000000
 42
0.000000
  0
VERTEX
  8
TOP
 10
101.960680
 20
63.149480
 40
0.000000
 41
0.000000
 42
0.000000
  0
VERTEX
  8
TOP
 10
101.960680
 20
63.718440
 40
0.000000
 41
0.000000
 42
0.000000
  0
SEQEND
  0
POLYLINE
  8
TOP
 66
1
 70
1
 40
0.000000
 41
0.000000
 39
0.000000
  0
VERTEX
  8
TOP
 10
100.731320
 20
63.718440
 40
0.000000
 41
0.000000
 42
0.000000
  0
VERTEX
  8
TOP
 10
100.731320
 20
63.149480
 40
0.000000
 41
0.000000
 42
0.000000
  0
VERTEX
  8
TOP
 10
99.532440
 20
63.149480
 40
0.000000
 41
0.000000
 42
0.000000
  0
VERTEX
  8
TOP
 10
99.532440
 20
63.718440
 40
0.000000
 41
0.000000
 42
0.000000
  0
SEQEND
  0
POLYLINE
  8
TOP
 66
1
 70
1
 40
0.000000
 41
0.000000
 39
0.000000
  0
VERTEX
  8
TOP
 10
100.731320
 20
62.768480
 40
0.000000
 41
0.000000
 42
0.000000
  0
VERTEX
  8
TOP
 10
100.731320
 20
62.199520
 40
0.000000
 41
0.000000
 42
0.000000
  0
VERTEX
  8
TOP
 10
99.532440
 20
62.199520
 40
0.000000
 41
0.000000
 42
0.000000
  0
VERTEX
  8
TOP
 10
99.532440
 20
62.768480
 40
0.000000
 41
0.000000
 42
0.000000
  0
SEQEND
  0
POLYLINE
  8
TOP
 66
1
 70
1
 40
0.000000
 41
0.000000
 39
0.000000
  0
VERTEX
  8
TOP
 10
100.731320
 20
61.818520
 40
0.000000
 41
0.000000
 42
0.000000
  0
VERTEX
  8
TOP
 10
100.731320
 20
61.249560
 40
0.000000
 41
0.000000
 42
0.000000
  0
VERTEX
  8
TOP
 10
99.532440
 20
61.249560
 40
0.000000
 41
0.000000
 42
0.000000
  0
VERTEX
  8
TOP
 10
99.532440
 20
61.818520
 40
0.000000
 41
0.000000
 42
0.000000
  0
SEQEND
  0
POLYLINE
  8
SILKSCREEN_TOP
 66
1
 70
0
 40
0.000000
 41
0.000000
 39
0.000000
  0
VERTEX
  8
SILKSCREEN_TOP
 10
103.710740
 20
61.534040
 40
0.200660
 41
0.200660
 42
0.999733
  0
VERTEX
  8
SILKSCREEN_TOP
 10
103.411020
 20
61.534040
 40
0.200660
 41
0.200660
 42
1.000267
  0
VERTEX
  8
SILKSCREEN_TOP
 10
103.710740
 20
61.534040
 40
0.200660
 41
0.200660
 42
0.000000
  0
SEQEND
  0
POLYLINE
  8
SILKSCREEN_TOP
 66
1
 70
0
 40
0.000000
 41
0.000000
 39
0.000000
  0
VERTEX
  8
SILKSCREEN_TOP
 10
103.060500
 20
60.949840
 40
0.200660
 41
0.200660
 42
0.000000
  0
VERTEX
  8
SILKSCREEN_TOP
 10
100.495100
 20
60.949840
 40
0.200660
 41
0.200660
 42
0.000000
  0
SEQEND
  0
POLYLINE
  8
SILKSCREEN_TOP
 66
1
 70
0
 40
0.000000
 41
0.000000
 39
0.000000
  0
VERTEX
  8
SILKSCREEN_TOP
 10
102.196900
 20
64.018160
 40
0.200660
 41
0.200660
 42
0.000000
  0
VERTEX
  8
SILKSCREEN_TOP
 10
100.495100
 20
64.018160
 40
0.200660
 41
0.200660
 42
0.000000
  0
SEQEND
  0
POLYLINE
  8
TOP
 66
1
 70
1
 40
0.000000
 41
0.000000
 39
0.000000
  0
VERTEX
  8
TOP
 10
72.750680
 20
84.955380
 40
0.000000
 41
0.000000
 42
0.000000
  0
VERTEX
  8
TOP
 10
72.750680
 20
83.654900
 40
0.000000
 41
0.000000
 42
0.000000
  0
VERTEX
  8
TOP
 10
72.501760
 20
83.654900
 40
0.000000
 41
0.000000
 42
0.000000
  0
VERTEX
  8
TOP
 10
72.501760
 20
84.955380
 40
0.000000
 41
0.000000
 42
0.000000
  0
SEQEND
  0
POLYLINE
  8
TOP
 66
1
 70
1
 40
0.000000
 41
0.000000
 39
0.000000
  0
VERTEX
  8
TOP
 10
72.250300
 20
84.955380
 40
0.000000
 41
0.000000
 42
0.000000
  0
VERTEX
  8
TOP
 10
72.250300
 20
83.654900
 40
0.000000
 41
0.000000
 42
0.000000
  0
VERTEX
  8
TOP
 10
72.001380
 20
83.654900
 40
0.000000
 41
0.000000
 42
0.000000
  0
VERTEX
  8
TOP
 10
72.001380
 20
84.955380
 40
0.000000
 41
0.000000
 42
0.000000
  0
SEQEND
  0
POLYLINE
  8
TOP
 66
1
 70
1
 40
0.000000
 41
0.000000
 39
0.000000
  0
VERTEX
  8
TOP
 10
71.749920
 20
84.955380
 40
0.000000
 41
0.000000
 42
0.000000
  0
VERTEX
  8
TOP
 10
71.749920
 20
83.654900
 40
0.000000
 41
0.000000
 42
0.000000
  0
VERTEX
  8
TOP
 10
71.501000
 20
83.654900
 40
0.000000
 41
0.000000
 42
0.000000
  0
VERTEX
  8
TOP
 10
71.501000
 20
84.955380
 40
0.000000
 41
0.000000
 42
0.000000
  0
SEQEND
  0
POLYLINE
  8
TOP
 66
1
 70
1
 40
0.000000
 41
0.000000
 39
0.000000
  0
VERTEX
  8
TOP
 10
71.249540
 20
84.955380
 40
0.000000
 41
0.000000
 42
0.000000
  0
VERTEX
  8
TOP
 10
71.249540
 20
83.654900
 40
0.000000
 41
0.000000
 42
0.000000
  0
VERTEX
  8
TOP
 10
71.000620
 20
83.654900
 40
0.000000
 41
0.000000
 42
0.000000
  0
VERTEX
  8
TOP
 10
71.000620
 20
84.955380
 40
0.000000
 41
0.000000
 42
0.000000
  0
SEQEND
  0
POLYLINE
  8
TOP
 66
1
 70
1
 40
0.000000
 41
0.000000
 39
0.000000
  0
VERTEX
  8
TOP
 10
70.751700
 20
84.955380
 40
0.000000
 41
0.000000
 42
0.000000
  0
VERTEX
  8
TOP
 10
70.751700
 20
83.654900
 40
0.000000
 41
0.000000
 42
0.000000
  0
VERTEX
  8
TOP
 10
70.502780
 20
83.654900
 40
0.000000
 41
0.000000
 42
0.000000
  0
VERTEX
  8
TOP
 10
70.502780
 20
84.955380
 40
0.000000
 41
0.000000
 42
0.000000
  0
SEQEND
  0
POLYLINE
  8
TOP
 66
1
 70
1
 40
0.000000
 41
0.000000
 39
0.000000
  0
VERTEX
  8
TOP
 10
70.251320
 20
84.955380
 40
0.000000
 41
0.000000
 42
0.000000
  0
VERTEX
  8
TOP
 10
70.251320
 20
83.654900
 40
0.000000
 41
0.000000
 42
0.000000
  0
VERTEX
  8
TOP
 10
70.002400
 20
83.654900
 40
0.000000
 41
0.000000
 42
0.000000
  0
VERTEX
  8
TOP
 10
70.002400
 20
84.955380
 40
0.000000
 41
0.000000
 42
0.000000
  0
SEQEND
  0
POLYLINE
  8
TOP
 66
1
 70
1
 40
0.000000
 41
0.000000
 39
0.000000
  0
VERTEX
  8
TOP
 10
76.125070
 20
83.455510
 40
0.000000
 41
0.000000
 42
0.000000
  0
VERTEX
  8
TOP
 10
76.125070
 20
80.455770
 40
0.000000
 41
0.000000
 42
0.000000
  0
VERTEX
  8
TOP
 10
74.126090
 20
80.455770
 40
0.000000
 41
0.000000
 42
0.000000
  0
VERTEX
  8
TOP
 10
74.126090
 20
83.455510
 40
0.000000
 41
0.000000
 42
0.000000
  0
SEQEND
  0
POLYLINE
  8
TOP
 66
1
 70
1
 40
0.000000
 41
0.000000
 39
0.000000
  0
VERTEX
  8
TOP
 10
68.624450
 20
83.455510
 40
0.000000
 41
0.000000
 42
0.000000
  0
VERTEX
  8
TOP
 10
68.624450
 20
80.455770
 40
0.000000
 41
0.000000
 42
0.000000
  0
VERTEX
  8
TOP
 10
66.625470
 20
80.455770
 40
0.000000
 41
0.000000
 42
0.000000
  0
VERTEX
  8
TOP
 10
66.625470
 20
83.455510
 40
0.000000
 41
0.000000
 42
0.000000
  0
SEQEND
  0
POLYLINE
  8
SILKSCREEN_TOP
 66
1
 70
0
 40
0.000000
 41
0.000000
 39
0.000000
  0
VERTEX
  8
SILKSCREEN_TOP
 10
76.126340
 20
85.305900
 40
0.200660
 41
0.200660
 42
0.000000
  0
VERTEX
  8
SILKSCREEN_TOP
 10
76.126340
 20
80.304640
 40
0.200660
 41
0.200660
 42
0.000000
  0
VERTEX
  8
SILKSCREEN_TOP
 10
66.626740
 20
80.304640
 40
0.200660
 41
0.200660
 42
0.000000
  0
SEQEND
  0
POLYLINE
  8
SILKSCREEN_TOP
 66
1
 70
0
 40
0.000000
 41
0.000000
 39
0.000000
  0
VERTEX
  8
SILKSCREEN_TOP
 10
73.126600
 20
84.305140
 40
0.200660
 41
0.200660
 42
0.000000
  0
VERTEX
  8
SILKSCREEN_TOP
 10
74.127360
 20
83.804760
 40
0.200660
 41
0.200660
 42
0.000000
  0
VERTEX
  8
SILKSCREEN_TOP
 10
74.127360
 20
84.805520
 40
0.200660
 41
0.200660
 42
0.000000
  0
VERTEX
  8
SILKSCREEN_TOP
 10
73.126600
 20
84.305140
 40
0.200660
 41
0.200660
 42
0.000000
  0
SEQEND
  0
POLYLINE
  8
SILKSCREEN_TOP
 66
1
 70
0
 40
0.000000
 41
0.000000
 39
0.000000
  0
VERTEX
  8
SILKSCREEN_TOP
 10
66.626740
 20
80.304640
 40
0.200660
 41
0.200660
 42
0.000000
  0
VERTEX
  8
SILKSCREEN_TOP
 10
66.626740
 20
85.305900
 40
0.200660
 41
0.200660
 42
0.000000
  0
SEQEND
  0
POLYLINE
  8
SILKSCREEN_TOP
 66
1
 70
0
 40
0.000000
 41
0.000000
 39
0.000000
  0
VERTEX
  8
SILKSCREEN_TOP
 10
66.626740
 20
85.305900
 40
0.200660
 41
0.200660
 42
0.000000
  0
VERTEX
  8
SILKSCREEN_TOP
 10
76.126340
 20
85.305900
 40
0.200660
 41
0.200660
 42
0.000000
  0
SEQEND
  0
POLYLINE
  8
TOP
 66
1
 70
1
 40
0.000000
 41
0.000000
 39
0.000000
  0
VERTEX
  8
TOP
 10
133.319520
 20
76.573380
 40
0.000000
 41
0.000000
 42
0.000000
  0
VERTEX
  8
TOP
 10
133.319520
 20
75.272900
 40
0.000000
 41
0.000000
 42
0.000000
  0
VERTEX
  8
TOP
 10
133.070600
 20
75.272900
 40
0.000000
 41
0.000000
 42
0.000000
  0
VERTEX
  8
TOP
 10
133.070600
 20
76.573380
 40
0.000000
 41
0.000000
 42
0.000000
  0
SEQEND
  0
POLYLINE
  8
TOP
 66
1
 70
1
 40
0.000000
 41
0.000000
 39
0.000000
  0
VERTEX
  8
TOP
 10
132.819140
 20
76.573380
 40
0.000000
 41
0.000000
 42
0.000000
  0
VERTEX
  8
TOP
 10
132.819140
 20
75.272900
 40
0.000000
 41
0.000000
 42
0.000000
  0
VERTEX
  8
TOP
 10
132.570220
 20
75.272900
 40
0.000000
 41
0.000000
 42
0.000000
  0
VERTEX
  8
TOP
 10
132.570220
 20
76.573380
 40
0.000000
 41
0.000000
 42
0.000000
  0
SEQEND
  0
POLYLINE
  8
TOP
 66
1
 70
1
 40
0.000000
 41
0.000000
 39
0.000000
  0
VERTEX
  8
TOP
 10
132.318760
 20
76.573380
 40
0.000000
 41
0.000000
 42
0.000000
  0
VERTEX
  8
TOP
 10
132.318760
 20
75.272900
 40
0.000000
 41
0.000000
 42
0.000000
  0
VERTEX
  8
TOP
 10
132.069840
 20
75.272900
 40
0.000000
 41
0.000000
 42
0.000000
  0
VERTEX
  8
TOP
 10
132.069840
 20
76.573380
 40
0.000000
 41
0.000000
 42
0.000000
  0
SEQEND
  0
POLYLINE
  8
TOP
 66
1
 70
1
 40
0.000000
 41
0.000000
 39
0.000000
  0
VERTEX
  8
TOP
 10
131.818380
 20
76.573380
 40
0.000000
 41
0.000000
 42
0.000000
  0
VERTEX
  8
TOP
 10
131.818380
 20
75.272900
 40
0.000000
 41
0.000000
 42
0.000000
  0
VERTEX
  8
TOP
 10
131.569460
 20
75.272900
 40
0.000000
 41
0.000000
 42
0.000000
  0
VERTEX
  8
TOP
 10
131.569460
 20
76.573380
 40
0.000000
 41
0.000000
 42
0.000000
  0
SEQEND
  0
POLYLINE
  8
TOP
 66
1
 70
1
 40
0.000000
 41
0.000000
 39
0.000000
  0
VERTEX
  8
TOP
 10
131.320540
 20
76.573380
 40
0.000000
 41
0.000000
 42
0.000000
  0
VERTEX
  8
TOP
 10
131.320540
 20
75.272900
 40
0.000000
 41
0.000000
 42
0.000000
  0
VERTEX
  8
TOP
 10
131.071620
 20
75.272900
 40
0.000000
 41
0.000000
 42
0.000000
  0
VERTEX
  8
TOP
 10
131.071620
 20
76.573380
 40
0.000000
 41
0.000000
 42
0.000000
  0
SEQEND
  0
POLYLINE
  8
TOP
 66
1
 70
1
 40
0.000000
 41
0.000000
 39
0.000000
  0
VERTEX
  8
TOP
 10
130.820160
 20
76.573380
 40
0.000000
 41
0.000000
 42
0.000000
  0
VERTEX
  8
TOP
 10
130.820160
 20
75.272900
 40
0.000000
 41
0.000000
 42
0.000000
  0
VERTEX
  8
TOP
 10
130.571240
 20
75.272900
 40
0.000000
 41
0.000000
 42
0.000000
  0
VERTEX
  8
TOP
 10
130.571240
 20
76.573380
 40
0.000000
 41
0.000000
 42
0.000000
  0
SEQEND
  0
POLYLINE
  8
TOP
 66
1
 70
1
 40
0.000000
 41
0.000000
 39
0.000000
  0
VERTEX
  8
TOP
 10
130.319780
 20
76.573380
 40
0.000000
 41
0.000000
 42
0.000000
  0
VERTEX
  8
TOP
 10
130.319780
 20
75.272900
 40
0.000000
 41
0.000000
 42
0.000000
  0
VERTEX
  8
TOP
 10
130.070860
 20
75.272900
 40
0.000000
 41
0.000000
 42
0.000000
  0
VERTEX
  8
TOP
 10
130.070860
 20
76.573380
 40
0.000000
 41
0.000000
 42
0.000000
  0
SEQEND
  0
POLYLINE
  8
TOP
 66
1
 70
1
 40
0.000000
 41
0.000000
 39
0.000000
  0
VERTEX
  8
TOP
 10
129.819400
 20
76.573380
 40
0.000000
 41
0.000000
 42
0.000000
  0
VERTEX
  8
TOP
 10
129.819400
 20
75.272900
 40
0.000000
 41
0.000000
 42
0.000000
  0
VERTEX
  8
TOP
 10
129.570480
 20
75.272900
 40
0.000000
 41
0.000000
 42
0.000000
  0
VERTEX
  8
TOP
 10
129.570480
 20
76.573380
 40
0.000000
 41
0.000000
 42
0.000000
  0
SEQEND
  0
POLYLINE
  8
TOP
 66
1
 70
1
 40
0.000000
 41
0.000000
 39
0.000000
  0
VERTEX
  8
TOP
 10
129.319020
 20
76.573380
 40
0.000000
 41
0.000000
 42
0.000000
  0
VERTEX
  8
TOP
 10
129.319020
 20
75.272900
 40
0.000000
 41
0.000000
 42
0.000000
  0
VERTEX
  8
TOP
 10
129.070100
 20
75.272900
 40
0.000000
 41
0.000000
 42
0.000000
  0
VERTEX
  8
TOP
 10
129.070100
 20
76.573380
 40
0.000000
 41
0.000000
 42
0.000000
  0
SEQEND
  0
POLYLINE
  8
TOP
 66
1
 70
1
 40
0.000000
 41
0.000000
 39
0.000000
  0
VERTEX
  8
TOP
 10
128.818640
 20
76.573380
 40
0.000000
 41
0.000000
 42
0.000000
  0
VERTEX
  8
TOP
 10
128.818640
 20
75.272900
 40
0.000000
 41
0.000000
 42
0.000000
  0
VERTEX
  8
TOP
 10
128.569720
 20
75.272900
 40
0.000000
 41
0.000000
 42
0.000000
  0
VERTEX
  8
TOP
 10
128.569720
 20
76.573380
 40
0.000000
 41
0.000000
 42
0.000000
  0
SEQEND
  0
POLYLINE
  8
TOP
 66
1
 70
1
 40
0.000000
 41
0.000000
 39
0.000000
  0
VERTEX
  8
TOP
 10
128.318260
 20
76.573380
 40
0.000000
 41
0.000000
 42
0.000000
  0
VERTEX
  8
TOP
 10
128.318260
 20
75.272900
 40
0.000000
 41
0.000000
 42
0.000000
  0
VERTEX
  8
TOP
 10
128.069340
 20
75.272900
 40
0.000000
 41
0.000000
 42
0.000000
  0
VERTEX
  8
TOP
 10
128.069340
 20
76.573380
 40
0.000000
 41
0.000000
 42
0.000000
  0
SEQEND
  0
POLYLINE
  8
TOP
 66
1
 70
1
 40
0.000000
 41
0.000000
 39
0.000000
  0
VERTEX
  8
TOP
 10
127.820420
 20
76.573380
 40
0.000000
 41
0.000000
 42
0.000000
  0
VERTEX
  8
TOP
 10
127.820420
 20
75.272900
 40
0.000000
 41
0.000000
 42
0.000000
  0
VERTEX
  8
TOP
 10
127.571500
 20
75.272900
 40
0.000000
 41
0.000000
 42
0.000000
  0
VERTEX
  8
TOP
 10
127.571500
 20
76.573380
 40
0.000000
 41
0.000000
 42
0.000000
  0
SEQEND
  0
POLYLINE
  8
TOP
 66
1
 70
1
 40
0.000000
 41
0.000000
 39
0.000000
  0
VERTEX
  8
TOP
 10
127.320040
 20
76.573380
 40
0.000000
 41
0.000000
 42
0.000000
  0
VERTEX
  8
TOP
 10
127.320040
 20
75.272900
 40
0.000000
 41
0.000000
 42
0.000000
  0
VERTEX
  8
TOP
 10
127.071120
 20
75.272900
 40
0.000000
 41
0.000000
 42
0.000000
  0
VERTEX
  8
TOP
 10
127.071120
 20
76.573380
 40
0.000000
 41
0.000000
 42
0.000000
  0
SEQEND
  0
POLYLINE
  8
TOP
 66
1
 70
1
 40
0.000000
 41
0.000000
 39
0.000000
  0
VERTEX
  8
TOP
 10
126.819660
 20
76.573380
 40
0.000000
 41
0.000000
 42
0.000000
  0
VERTEX
  8
TOP
 10
126.819660
 20
75.272900
 40
0.000000
 41
0.000000
 42
0.000000
  0
VERTEX
  8
TOP
 10
126.570740
 20
75.272900
 40
0.000000
 41
0.000000
 42
0.000000
  0
VERTEX
  8
TOP
 10
126.570740
 20
76.573380
 40
0.000000
 41
0.000000
 42
0.000000
  0
SEQEND
  0
POLYLINE
  8
TOP
 66
1
 70
1
 40
0.000000
 41
0.000000
 39
0.000000
  0
VERTEX
  8
TOP
 10
126.319280
 20
76.573380
 40
0.000000
 41
0.000000
 42
0.000000
  0
VERTEX
  8
TOP
 10
126.319280
 20
75.272900
 40
0.000000
 41
0.000000
 42
0.000000
  0
VERTEX
  8
TOP
 10
126.070360
 20
75.272900
 40
0.000000
 41
0.000000
 42
0.000000
  0
VERTEX
  8
TOP
 10
126.070360
 20
76.573380
 40
0.000000
 41
0.000000
 42
0.000000
  0
SEQEND
  0
POLYLINE
  8
TOP
 66
1
 70
1
 40
0.000000
 41
0.000000
 39
0.000000
  0
VERTEX
  8
TOP
 10
125.818900
 20
76.573380
 40
0.000000
 41
0.000000
 42
0.000000
  0
VERTEX
  8
TOP
 10
125.818900
 20
75.272900
 40
0.000000
 41
0.000000
 42
0.000000
  0
VERTEX
  8
TOP
 10
125.569980
 20
75.272900
 40
0.000000
 41
0.000000
 42
0.000000
  0
VERTEX
  8
TOP
 10
125.569980
 20
76.573380
 40
0.000000
 41
0.000000
 42
0.000000
  0
SEQEND
  0
POLYLINE
  8
TOP
 66
1
 70
1
 40
0.000000
 41
0.000000
 39
0.000000
  0
VERTEX
  8
TOP
 10
125.318520
 20
76.573380
 40
0.000000
 41
0.000000
 42
0.000000
  0
VERTEX
  8
TOP
 10
125.318520
 20
75.272900
 40
0.000000
 41
0.000000
 42
0.000000
  0
VERTEX
  8
TOP
 10
125.069600
 20
75.272900
 40
0.000000
 41
0.000000
 42
0.000000
  0
VERTEX
  8
TOP
 10
125.069600
 20
76.573380
 40
0.000000
 41
0.000000
 42
0.000000
  0
SEQEND
  0
POLYLINE
  8
TOP
 66
1
 70
1
 40
0.000000
 41
0.000000
 39
0.000000
  0
VERTEX
  8
TOP
 10
124.820680
 20
76.573380
 40
0.000000
 41
0.000000
 42
0.000000
  0
VERTEX
  8
TOP
 10
124.820680
 20
75.272900
 40
0.000000
 41
0.000000
 42
0.000000
  0
VERTEX
  8
TOP
 10
124.571760
 20
75.272900
 40
0.000000
 41
0.000000
 42
0.000000
  0
VERTEX
  8
TOP
 10
124.571760
 20
76.573380
 40
0.000000
 41
0.000000
 42
0.000000
  0
SEQEND
  0
POLYLINE
  8
TOP
 66
1
 70
1
 40
0.000000
 41
0.000000
 39
0.000000
  0
VERTEX
  8
TOP
 10
124.320300
 20
76.573380
 40
0.000000
 41
0.000000
 42
0.000000
  0
VERTEX
  8
TOP
 10
124.320300
 20
75.272900
 40
0.000000
 41
0.000000
 42
0.000000
  0
VERTEX
  8
TOP
 10
124.071380
 20
75.272900
 40
0.000000
 41
0.000000
 42
0.000000
  0
VERTEX
  8
TOP
 10
124.071380
 20
76.573380
 40
0.000000
 41
0.000000
 42
0.000000
  0
SEQEND
  0
POLYLINE
  8
TOP
 66
1
 70
1
 40
0.000000
 41
0.000000
 39
0.000000
  0
VERTEX
  8
TOP
 10
123.819920
 20
76.573380
 40
0.000000
 41
0.000000
 42
0.000000
  0
VERTEX
  8
TOP
 10
123.819920
 20
75.272900
 40
0.000000
 41
0.000000
 42
0.000000
  0
VERTEX
  8
TOP
 10
123.571000
 20
75.272900
 40
0.000000
 41
0.000000
 42
0.000000
  0
VERTEX
  8
TOP
 10
123.571000
 20
76.573380
 40
0.000000
 41
0.000000
 42
0.000000
  0
SEQEND
  0
POLYLINE
  8
TOP
 66
1
 70
1
 40
0.000000
 41
0.000000
 39
0.000000
  0
VERTEX
  8
TOP
 10
123.319540
 20
76.573380
 40
0.000000
 41
0.000000
 42
0.000000
  0
VERTEX
  8
TOP
 10
123.319540
 20
75.272900
 40
0.000000
 41
0.000000
 42
0.000000
  0
VERTEX
  8
TOP
 10
123.070620
 20
75.272900
 40
0.000000
 41
0.000000
 42
0.000000
  0
VERTEX
  8
TOP
 10
123.070620
 20
76.573380
 40
0.000000
 41
0.000000
 42
0.000000
  0
SEQEND
  0
POLYLINE
  8
TOP
 66
1
 70
1
 40
0.000000
 41
0.000000
 39
0.000000
  0
VERTEX
  8
TOP
 10
122.819160
 20
76.573380
 40
0.000000
 41
0.000000
 42
0.000000
  0
VERTEX
  8
TOP
 10
122.819160
 20
75.272900
 40
0.000000
 41
0.000000
 42
0.000000
  0
VERTEX
  8
TOP
 10
122.570240
 20
75.272900
 40
0.000000
 41
0.000000
 42
0.000000
  0
VERTEX
  8
TOP
 10
122.570240
 20
76.573380
 40
0.000000
 41
0.000000
 42
0.000000
  0
SEQEND
  0
POLYLINE
  8
TOP
 66
1
 70
1
 40
0.000000
 41
0.000000
 39
0.000000
  0
VERTEX
  8
TOP
 10
122.318780
 20
76.573380
 40
0.000000
 41
0.000000
 42
0.000000
  0
VERTEX
  8
TOP
 10
122.318780
 20
75.272900
 40
0.000000
 41
0.000000
 42
0.000000
  0
VERTEX
  8
TOP
 10
122.069860
 20
75.272900
 40
0.000000
 41
0.000000
 42
0.000000
  0
VERTEX
  8
TOP
 10
122.069860
 20
76.573380
 40
0.000000
 41
0.000000
 42
0.000000
  0
SEQEND
  0
POLYLINE
  8
TOP
 66
1
 70
1
 40
0.000000
 41
0.000000
 39
0.000000
  0
VERTEX
  8
TOP
 10
121.818400
 20
76.573380
 40
0.000000
 41
0.000000
 42
0.000000
  0
VERTEX
  8
TOP
 10
121.818400
 20
75.272900
 40
0.000000
 41
0.000000
 42
0.000000
  0
VERTEX
  8
TOP
 10
121.569480
 20
75.272900
 40
0.000000
 41
0.000000
 42
0.000000
  0
VERTEX
  8
TOP
 10
121.569480
 20
76.573380
 40
0.000000
 41
0.000000
 42
0.000000
  0
SEQEND
  0
POLYLINE
  8
TOP
 66
1
 70
1
 40
0.000000
 41
0.000000
 39
0.000000
  0
VERTEX
  8
TOP
 10
121.320560
 20
76.573380
 40
0.000000
 41
0.000000
 42
0.000000
  0
VERTEX
  8
TOP
 10
121.320560
 20
75.272900
 40
0.000000
 41
0.000000
 42
0.000000
  0
VERTEX
  8
TOP
 10
121.071640
 20
75.272900
 40
0.000000
 41
0.000000
 42
0.000000
  0
VERTEX
  8
TOP
 10
121.071640
 20
76.573380
 40
0.000000
 41
0.000000
 42
0.000000
  0
SEQEND
  0
POLYLINE
  8
TOP
 66
1
 70
1
 40
0.000000
 41
0.000000
 39
0.000000
  0
VERTEX
  8
TOP
 10
120.820180
 20
76.573380
 40
0.000000
 41
0.000000
 42
0.000000
  0
VERTEX
  8
TOP
 10
120.820180
 20
75.272900
 40
0.000000
 41
0.000000
 42
0.000000
  0
VERTEX
  8
TOP
 10
120.571260
 20
75.272900
 40
0.000000
 41
0.000000
 42
0.000000
  0
VERTEX
  8
TOP
 10
120.571260
 20
76.573380
 40
0.000000
 41
0.000000
 42
0.000000
  0
SEQEND
  0
POLYLINE
  8
TOP
 66
1
 70
1
 40
0.000000
 41
0.000000
 39
0.000000
  0
VERTEX
  8
TOP
 10
120.319800
 20
76.573380
 40
0.000000
 41
0.000000
 42
0.000000
  0
VERTEX
  8
TOP
 10
120.319800
 20
75.272900
 40
0.000000
 41
0.000000
 42
0.000000
  0
VERTEX
  8
TOP
 10
120.070880
 20
75.272900
 40
0.000000
 41
0.000000
 42
0.000000
  0
VERTEX
  8
TOP
 10
120.070880
 20
76.573380
 40
0.000000
 41
0.000000
 42
0.000000
  0
SEQEND
  0
POLYLINE
  8
TOP
 66
1
 70
1
 40
0.000000
 41
0.000000
 39
0.000000
  0
VERTEX
  8
TOP
 10
119.819420
 20
76.573380
 40
0.000000
 41
0.000000
 42
0.000000
  0
VERTEX
  8
TOP
 10
119.819420
 20
75.272900
 40
0.000000
 41
0.000000
 42
0.000000
  0
VERTEX
  8
TOP
 10
119.570500
 20
75.272900
 40
0.000000
 41
0.000000
 42
0.000000
  0
VERTEX
  8
TOP
 10
119.570500
 20
76.573380
 40
0.000000
 41
0.000000
 42
0.000000
  0
SEQEND
  0
POLYLINE
  8
TOP
 66
1
 70
1
 40
0.000000
 41
0.000000
 39
0.000000
  0
VERTEX
  8
TOP
 10
119.319040
 20
76.573380
 40
0.000000
 41
0.000000
 42
0.000000
  0
VERTEX
  8
TOP
 10
119.319040
 20
75.272900
 40
0.000000
 41
0.000000
 42
0.000000
  0
VERTEX
  8
TOP
 10
119.070120
 20
75.272900
 40
0.000000
 41
0.000000
 42
0.000000
  0
VERTEX
  8
TOP
 10
119.070120
 20
76.573380
 40
0.000000
 41
0.000000
 42
0.000000
  0
SEQEND
  0
POLYLINE
  8
TOP
 66
1
 70
1
 40
0.000000
 41
0.000000
 39
0.000000
  0
VERTEX
  8
TOP
 10
118.818660
 20
76.573380
 40
0.000000
 41
0.000000
 42
0.000000
  0
VERTEX
  8
TOP
 10
118.818660
 20
75.272900
 40
0.000000
 41
0.000000
 42
0.000000
  0
VERTEX
  8
TOP
 10
118.569740
 20
75.272900
 40
0.000000
 41
0.000000
 42
0.000000
  0
VERTEX
  8
TOP
 10
118.569740
 20
76.573380
 40
0.000000
 41
0.000000
 42
0.000000
  0
SEQEND
  0
POLYLINE
  8
TOP
 66
1
 70
1
 40
0.000000
 41
0.000000
 39
0.000000
  0
VERTEX
  8
TOP
 10
118.318280
 20
76.573380
 40
0.000000
 41
0.000000
 42
0.000000
  0
VERTEX
  8
TOP
 10
118.318280
 20
75.272900
 40
0.000000
 41
0.000000
 42
0.000000
  0
VERTEX
  8
TOP
 10
118.069360
 20
75.272900
 40
0.000000
 41
0.000000
 42
0.000000
  0
VERTEX
  8
TOP
 10
118.069360
 20
76.573380
 40
0.000000
 41
0.000000
 42
0.000000
  0
SEQEND
  0
POLYLINE
  8
TOP
 66
1
 70
1
 40
0.000000
 41
0.000000
 39
0.000000
  0
VERTEX
  8
TOP
 10
117.820440
 20
76.573380
 40
0.000000
 41
0.000000
 42
0.000000
  0
VERTEX
  8
TOP
 10
117.820440
 20
75.272900
 40
0.000000
 41
0.000000
 42
0.000000
  0
VERTEX
  8
TOP
 10
117.571520
 20
75.272900
 40
0.000000
 41
0.000000
 42
0.000000
  0
VERTEX
  8
TOP
 10
117.571520
 20
76.573380
 40
0.000000
 41
0.000000
 42
0.000000
  0
SEQEND
  0
POLYLINE
  8
TOP
 66
1
 70
1
 40
0.000000
 41
0.000000
 39
0.000000
  0
VERTEX
  8
TOP
 10
117.320060
 20
76.573380
 40
0.000000
 41
0.000000
 42
0.000000
  0
VERTEX
  8
TOP
 10
117.320060
 20
75.272900
 40
0.000000
 41
0.000000
 42
0.000000
  0
VERTEX
  8
TOP
 10
117.071140
 20
75.272900
 40
0.000000
 41
0.000000
 42
0.000000
  0
VERTEX
  8
TOP
 10
117.071140
 20
76.573380
 40
0.000000
 41
0.000000
 42
0.000000
  0
SEQEND
  0
POLYLINE
  8
TOP
 66
1
 70
1
 40
0.000000
 41
0.000000
 39
0.000000
  0
VERTEX
  8
TOP
 10
116.819680
 20
76.573380
 40
0.000000
 41
0.000000
 42
0.000000
  0
VERTEX
  8
TOP
 10
116.819680
 20
75.272900
 40
0.000000
 41
0.000000
 42
0.000000
  0
VERTEX
  8
TOP
 10
116.570760
 20
75.272900
 40
0.000000
 41
0.000000
 42
0.000000
  0
VERTEX
  8
TOP
 10
116.570760
 20
76.573380
 40
0.000000
 41
0.000000
 42
0.000000
  0
SEQEND
  0
POLYLINE
  8
TOP
 66
1
 70
1
 40
0.000000
 41
0.000000
 39
0.000000
  0
VERTEX
  8
TOP
 10
116.319300
 20
76.573380
 40
0.000000
 41
0.000000
 42
0.000000
  0
VERTEX
  8
TOP
 10
116.319300
 20
75.272900
 40
0.000000
 41
0.000000
 42
0.000000
  0
VERTEX
  8
TOP
 10
116.070380
 20
75.272900
 40
0.000000
 41
0.000000
 42
0.000000
  0
VERTEX
  8
TOP
 10
116.070380
 20
76.573380
 40
0.000000
 41
0.000000
 42
0.000000
  0
SEQEND
  0
POLYLINE
  8
TOP
 66
1
 70
1
 40
0.000000
 41
0.000000
 39
0.000000
  0
VERTEX
  8
TOP
 10
115.818920
 20
76.573380
 40
0.000000
 41
0.000000
 42
0.000000
  0
VERTEX
  8
TOP
 10
115.818920
 20
75.272900
 40
0.000000
 41
0.000000
 42
0.000000
  0
VERTEX
  8
TOP
 10
115.570000
 20
75.272900
 40
0.000000
 41
0.000000
 42
0.000000
  0
VERTEX
  8
TOP
 10
115.570000
 20
76.573380
 40
0.000000
 41
0.000000
 42
0.000000
  0
SEQEND
  0
POLYLINE
  8
TOP
 66
1
 70
1
 40
0.000000
 41
0.000000
 39
0.000000
  0
VERTEX
  8
TOP
 10
115.318540
 20
76.573380
 40
0.000000
 41
0.000000
 42
0.000000
  0
VERTEX
  8
TOP
 10
115.318540
 20
75.272900
 40
0.000000
 41
0.000000
 42
0.000000
  0
VERTEX
  8
TOP
 10
115.069620
 20
75.272900
 40
0.000000
 41
0.000000
 42
0.000000
  0
VERTEX
  8
TOP
 10
115.069620
 20
76.573380
 40
0.000000
 41
0.000000
 42
0.000000
  0
SEQEND
  0
POLYLINE
  8
TOP
 66
1
 70
1
 40
0.000000
 41
0.000000
 39
0.000000
  0
VERTEX
  8
TOP
 10
114.820700
 20
76.573380
 40
0.000000
 41
0.000000
 42
0.000000
  0
VERTEX
  8
TOP
 10
114.820700
 20
75.272900
 40
0.000000
 41
0.000000
 42
0.000000
  0
VERTEX
  8
TOP
 10
114.571780
 20
75.272900
 40
0.000000
 41
0.000000
 42
0.000000
  0
VERTEX
  8
TOP
 10
114.571780
 20
76.573380
 40
0.000000
 41
0.000000
 42
0.000000
  0
SEQEND
  0
POLYLINE
  8
TOP
 66
1
 70
1
 40
0.000000
 41
0.000000
 39
0.000000
  0
VERTEX
  8
TOP
 10
114.320320
 20
76.573380
 40
0.000000
 41
0.000000
 42
0.000000
  0
VERTEX
  8
TOP
 10
114.320320
 20
75.272900
 40
0.000000
 41
0.000000
 42
0.000000
  0
VERTEX
  8
TOP
 10
114.071400
 20
75.272900
 40
0.000000
 41
0.000000
 42
0.000000
  0
VERTEX
  8
TOP
 10
114.071400
 20
76.573380
 40
0.000000
 41
0.000000
 42
0.000000
  0
SEQEND
  0
POLYLINE
  8
TOP
 66
1
 70
1
 40
0.000000
 41
0.000000
 39
0.000000
  0
VERTEX
  8
TOP
 10
113.819940
 20
76.573380
 40
0.000000
 41
0.000000
 42
0.000000
  0
VERTEX
  8
TOP
 10
113.819940
 20
75.272900
 40
0.000000
 41
0.000000
 42
0.000000
  0
VERTEX
  8
TOP
 10
113.571020
 20
75.272900
 40
0.000000
 41
0.000000
 42
0.000000
  0
VERTEX
  8
TOP
 10
113.571020
 20
76.573380
 40
0.000000
 41
0.000000
 42
0.000000
  0
SEQEND
  0
POLYLINE
  8
TOP
 66
1
 70
1
 40
0.000000
 41
0.000000
 39
0.000000
  0
VERTEX
  8
TOP
 10
136.693910
 20
75.073510
 40
0.000000
 41
0.000000
 42
0.000000
  0
VERTEX
  8
TOP
 10
136.693910
 20
72.073770
 40
0.000000
 41
0.000000
 42
0.000000
  0
VERTEX
  8
TOP
 10
134.694930
 20
72.073770
 40
0.000000
 41
0.000000
 42
0.000000
  0
VERTEX
  8
TOP
 10
134.694930
 20
75.073510
 40
0.000000
 41
0.000000
 42
0.000000
  0
SEQEND
  0
POLYLINE
  8
TOP
 66
1
 70
1
 40
0.000000
 41
0.000000
 39
0.000000
  0
VERTEX
  8
TOP
 10
112.195610
 20
75.073510
 40
0.000000
 41
0.000000
 42
0.000000
  0
VERTEX
  8
TOP
 10
112.195610
 20
72.073770
 40
0.000000
 41
0.000000
 42
0.000000
  0
VERTEX
  8
TOP
 10
110.196630
 20
72.073770
 40
0.000000
 41
0.000000
 42
0.000000
  0
VERTEX
  8
TOP
 10
110.196630
 20
75.073510
 40
0.000000
 41
0.000000
 42
0.000000
  0
SEQEND
  0
POLYLINE
  8
SILKSCREEN_TOP
 66
1
 70
0
 40
0.000000
 41
0.000000
 39
0.000000
  0
VERTEX
  8
SILKSCREEN_TOP
 10
136.695180
 20
76.923900
 40
0.200660
 41
0.200660
 42
0.000000
  0
VERTEX
  8
SILKSCREEN_TOP
 10
136.695180
 20
71.922640
 40
0.200660
 41
0.200660
 42
0.000000
  0
VERTEX
  8
SILKSCREEN_TOP
 10
110.195360
 20
71.922640
 40
0.200660
 41
0.200660
 42
0.000000
  0
VERTEX
  8
SILKSCREEN_TOP
 10
110.195360
 20
76.923900
 40
0.200660
 41
0.200660
 42
0.000000
  0
VERTEX
  8
SILKSCREEN_TOP
 10
136.695180
 20
76.923900
 40
0.200660
 41
0.200660
 42
0.000000
  0
SEQEND
  0
POLYLINE
  8
SILKSCREEN_TOP
 66
1
 70
0
 40
0.000000
 41
0.000000
 39
0.000000
  0
VERTEX
  8
SILKSCREEN_TOP
 10
133.695440
 20
75.923140
 40
0.200660
 41
0.200660
 42
0.000000
  0
VERTEX
  8
SILKSCREEN_TOP
 10
134.696200
 20
75.422760
 40
0.200660
 41
0.200660
 42
0.000000
  0
VERTEX
  8
SILKSCREEN_TOP
 10
134.696200
 20
76.423520
 40
0.200660
 41
0.200660
 42
0.000000
  0
VERTEX
  8
SILKSCREEN_TOP
 10
133.695440
 20
75.923140
 40
0.200660
 41
0.200660
 42
0.000000
  0
SEQEND
  0
POLYLINE
  8
SILKSCREEN_TOP
 66
1
 70
1
 40
0.000000
 41
0.000000
 39
0.000000
  0
VERTEX
  8
SILKSCREEN_TOP
 10
96.774000
 20
98.044000
 40
0.000000
 41
0.000000
 42
0.000000
  0
VERTEX
  8
SILKSCREEN_TOP
 10
96.774000
 20
100.042980
 40
0.000000
 41
0.000000
 42
0.000000
  0
VERTEX
  8
SILKSCREEN_TOP
 10
106.773980
 20
100.042980
 40
0.000000
 41
0.000000
 42
0.000000
  0
VERTEX
  8
SILKSCREEN_TOP
 10
106.773980
 20
98.044000
 40
0.000000
 41
0.000000
 42
0.000000
  0
SEQEND
  0
POLYLINE
  8
OUTLINE
 66
1
 70
1
 40
0.000000
 41
0.000000
 39
0.000000
  0
VERTEX
  8
OUTLINE
 10
38.061900
 20
106.210100
 40
0.000000
 41
0.000000
 42
0.000000
  0
VERTEX
  8
OUTLINE
 10
38.061900
 20
30.909260
 40
0.000000
 41
0.000000
 42
0.000000
  0
VERTEX
  8
OUTLINE
 10
158.163260
 20
30.909260
 40
0.000000
 41
0.000000
 42
0.000000
  0
VERTEX
  8
OUTLINE
 10
158.163260
 20
106.210100
 40
0.000000
 41
0.000000
 42
0.000000
  0
SEQEND
  0
TEXT
  8
SILKSCREEN_TOP
 10
90.995500
 20
98.468180
 11
0.000000
 21
0.000000
 40
1.016000
 41
1.125000
 50
0.000000
  7
STANDARD
 71
0
 72
0
  1
V1.0
 73
0
  0
TEXT
  8
SILKSCREEN_TOP
 10
90.805000
 20
100.754180
 11
0.000000
 21
0.000000
 40
1.016000
 41
1.125000
 50
0.000000
  7
STANDARD
 71
0
 72
0
  1
5inches_Adapter
 73
0
  0
ENDSEC
  0
EOF
